<?xml version="1.0" encoding="UTF-8"?>
<svg version="1.1" viewBox="0 0 15 16" xmlns="http://www.w3.org/2000/svg" xmlns:cc="http://creativecommons.org/ns#" xmlns:dc="http://purl.org/dc/elements/1.1/" xmlns:rdf="http://www.w3.org/1999/02/22-rdf-syntax-ns#">
<metadata>
<rdf:RDF>
<cc:Work rdf:about="">
<dc:format>image/svg+xml</dc:format>
<dc:type rdf:resource="http://purl.org/dc/dcmitype/StillImage"/>
<dc:title/>
</cc:Work>
</rdf:RDF>
</metadata>
<g>
<g transform="translate(-8 -4)">
<g font-weight="400">
<path transform="translate(-289,-96)" d="m300 101v5.0002l3.3434 0.53115-0.0156 8.0468-1.3278 0.42183c6e-3 0.59278 0.43931 1.0114 1 1h8c0.57896 2e-3 0.98177-0.42708 1-1v-14c-0.0102-0.53477-0.48177-0.99739-1-1h-10c-0.53297 8e-3 -0.99716 0.45677-1 1zm1 0h10v14h-8l0.71845-0.42179 0.0937-8.4218-2.8122-0.1561v-0.99993z" fill="#062c70" overflow="visible" style="text-indent:0;text-transform:none"/>
<path transform="translate(-289,-96)" d="m297 106v9c6e-3 0.59278 0.43931 1.0114 1 1h5c0.57896 2e-3 0.98177-0.42708 1-1v-9c-0.0102-0.53477-0.48177-0.99739-1-1h-5c-0.53297 8e-3 -0.99716 0.45677-1 1zm1 1.0002h5v7h-5z" fill="#062c70" overflow="visible" style="text-indent:0;text-transform:none"/>
</g>
</g>
</g>
</svg>
