<?xml version="1.0" encoding="UTF-8"?>
<svg width="258.95mm" height="231.1mm" version="1.1" viewBox="0 0 258.949 231.09938" xmlns="http://www.w3.org/2000/svg" xmlns:cc="http://creativecommons.org/ns#" xmlns:dc="http://purl.org/dc/elements/1.1/" xmlns:rdf="http://www.w3.org/1999/02/22-rdf-syntax-ns#">
<metadata>
<rdf:RDF>
<cc:Work rdf:about="">
<dc:format>image/svg+xml</dc:format>
<dc:type rdf:resource="http://purl.org/dc/dcmitype/StillImage"/>
<dc:title/>
</cc:Work>
</rdf:RDF>
</metadata>
<g transform="translate(-2.4081 2.0079)">
<path d="m14.129 148.54c14.437-37.104 75.381-94.27 139.82-99.867 14.969-1.2999 16.396 24.18 27.376 27.436 10.092 2.9927 11.122 13.255 25.658 26.727 5.4055 11.533 15.035 47.218-29.079 89.146-32.577 30.963-125.53 36.887-135.37 37.093-29.128 0.6098-32.464-15.7-20.366-19.984 10.251-3.6292 27.862-17.284 21.828-26.715-16.827 26.832-63.105 51.577-29.871-33.837z" fill="#7eabff"/>
<path d="m140.56 216.63s53.122 20.335 90.551 7.2464c17.009-23.435 7.8068-75.327 0.7055-96.781-12.415-37.508 16.942-68.125-1.3216-104.56-16.865-1.3855-31.412 9.2025-36.99 24.106 4.0306-22.551-2.2132-38.988-17.668-48.648-20.669 15.31-32.604 41.534-21.543 50.621 10.452 25.308 36.987 42.725 55.482 63.746 14.417 16.868 17.978 81.587-69.217 104.27z" fill="#7eabff"/>
<path d="m243.78 220.15c34.099-72.429 10.65-126.55-4.1409-140.94-17.357 55.044 23.847 5.9524 4.1409 140.94z" fill="#7eabff"/>
<path d="m137.08 46.757c-37.33-2.2444-8.7146-26.978-28.038-46.837 32.158 10.98 7.5172 34.743 28.038 46.837z" fill="#7eabff"/>
<path d="m151.28 47.442c-36.015-20.639-4.7784-30.716-7.0866-49.404 14.877 18.527-7.0073 24.12 7.0866 49.404z" fill="#7eabff"/>
<ellipse transform="matrix(.98711 -.16005 .16064 .98701 0 0)" cx="80.947" cy="129.96" rx="12.494" ry="15.116" fill="#00276f"/>
<path d="m156.22 93.226c-10.589 6.5242-38.908 2.9107-47.561 2.6841-13.511-0.35371-29.239 8.2292-37.463 22.463-1.0179 1.7616-1.9208 3.6098-2.6904 5.5384 3.3989-29.415 34.005-34.635 48.717-33.824 12.135 0.66836 35.012 2.105 38.998 3.1392z" fill="#00276f"/>
<path d="m84.07 80.759c-3.5781 9.2211-9.9981 12.015-7.5395 19.44 10.263-4.8187 7.9371-13.198 7.5395-19.44z" fill="#00276f"/>
<path d="m89.556 91.797c6.6046-0.73578 6.9604-10.25 6.3324-13.537-2.7962 4.8842-8.2032 10.131-6.3324 13.537z" fill="#00276f"/>
<path d="m69.016 93.557c-0.25788 9.1572-4.5417 13.237-0.67742 18.439 9.0088-8.146 2.4561-12.899 0.67742-18.439z" fill="#00276f"/>
<path d="m68.187 127.1c10.521 14.1 38.607 12.162 56.488-1.6859 12.388-9.5939 18.966-28.046 30.115-27.858-15.007-2.8349-25.218 28.53-46.039 33.848-12.294 3.14-28.842 5.6167-32.541-4.3468-0.68422-1.8514-7.363-2.1695-8.0225 0.0431z" fill="#00276f"/>
<ellipse transform="matrix(.97867 -.20545 .19609 .98059 0 0)" cx="-20.543" cy="181.06" rx="7.6623" ry="10.308" fill="#00276f"/>
<path d="m208.96 92.391c29.933-18.579 22.249-38.084 14.787-58.157-16.76 8.4682-25.145 24.109-14.787 58.157z" fill="#00276f"/>
<path d="m176.48 64.676c15.036-26.802 11.933-42.487-2.2202-55.536-18.163 16.02-16.73 33.716 2.2202 55.536z" fill="#00276f"/>
</g>
</svg>
