<?xml version="1.0" encoding="UTF-8"?>
<svg width="355.86" height="355.86" version="1.1" viewBox="0 0 355.85734 355.85999" xml:space="preserve" xmlns="http://www.w3.org/2000/svg" xmlns:cc="http://creativecommons.org/ns#" xmlns:dc="http://purl.org/dc/elements/1.1/" xmlns:rdf="http://www.w3.org/1999/02/22-rdf-syntax-ns#"><metadata><rdf:RDF><cc:Work rdf:about=""><dc:format>image/svg+xml</dc:format><dc:type rdf:resource="http://purl.org/dc/dcmitype/StillImage"/><dc:title/></cc:Work></rdf:RDF></metadata><defs><clipPath id="a"><path d="m0 500h1024v-500h-1024z"/></clipPath></defs><g transform="matrix(1.3333 0 0 -1.3333 -164.74 516.6)"><g clip-path="url(#a)"><g transform="translate(375.72 120.55)"><path d="m0 0c8.134 0 14.73 6.596 14.73 14.73v237.43c0 8.137-6.596 14.731-14.73 14.731h-237.43c-8.137 0-14.73-6.594-14.73-14.731v-237.43c0-8.134 6.593-14.73 14.73-14.73z" fill="#3c5a99"/></g><g transform="translate(307.7 120.55)"><path d="m0 0v103.36h34.693l5.194 40.28h-39.887v25.717c0 11.662 3.238 19.609 19.962 19.609l21.33 0.01v36.026c-3.69 0.49-16.351 1.587-31.081 1.587-30.753 0-51.806-18.771-51.806-53.244v-29.705h-34.781v-40.28h34.781v-103.36z" fill="#fff"/></g></g></g></svg>
