<?xml version="1.0" encoding="UTF-8"?>
<svg version="1.1" viewBox="0 0 2305 1482.5" xml:space="preserve" xmlns="http://www.w3.org/2000/svg" xmlns:cc="http://creativecommons.org/ns#" xmlns:dc="http://purl.org/dc/elements/1.1/" xmlns:rdf="http://www.w3.org/1999/02/22-rdf-syntax-ns#"><metadata><rdf:RDF><cc:Work rdf:about=""><dc:format>image/svg+xml</dc:format><dc:type rdf:resource="http://purl.org/dc/dcmitype/StillImage"/></cc:Work></rdf:RDF></metadata><g transform="matrix(1.25,0,0,-1.25,0,1482.5)"><g transform="scale(.1257)"><path d="m10198 668.67c1144 0 1604.3 596.86 1604.3 1778.4 0 1175.3-460.3 1772.2-1604.3 1772.2-1144.2 0-1592-596.91-1592-1772.2 0-1181.6 447.76-1778.4 1592-1778.4m0 292.28c-920.3 0-1274.9 503.66-1274.9 1479.9 0 976.23 354.6 1479.9 1274.9 1479.9 926.4 0 1287.1-503.63 1287.1-1479.9 0-976.27-360.7-1479.9-1287.1-1479.9" fill="#161716"/><path d="m13351 668.67c870.8 0 1312.1 230.02 1312.1 1001.1 0 677.79-453.8 808.32-1268.5 982.41-653 143.04-938.9 242.51-938.9 684.15 0 360.58 211.4 590.63 907.8 590.63 429.2 0 771.2-105.77 1032.3-254.84l149.3 261.15c-298.6 174.04-684.1 286.05-1187.8 286.05-889.2 0-1212.6-335.83-1212.6-876.75 0-677.93 447.9-814.72 1218.8-982.52 715.2-155.55 988.9-242.53 988.9-696.44 0-565.87-323.4-708.9-988.9-708.9-348.1 0-777.2 62.046-1193.8 329.56l-168-242.53c460.1-304.82 945.3-373.09 1349.3-373.09" fill="#161716"/><path d="m118.13 3.2188c1324.5 0 1380.5 590.88 1380.5 1424.1v2717.3h-310.9v-2717.3c0-628.18 24.87-1131.7-1069.6-1131.7h-118.13v-292.36h118.13" fill="#161716"/><path d="m3438.7 668.67c1318.3 0 1374.3 590.62 1374.3 1423.9v2052.1h-310.9v-2052.1c0-627.95 24.86-1131.6-1063.4-1131.6-1094.4 0-1088.2 503.66-1088.2 1100.5v2083.2h-317.16v-2076.8c0-808.5 80.84-1399.1 1405.3-1399.1" fill="#161716"/><path d="m6722 4219.3c-1318.3 0-1374.2-590.81-1374.2-1424.1v-2052.1h310.9v2052.1c0 628.14-24.87 1131.7 1063.3 1131.7 1094.4 0 1088.2-503.6 1088.2-1100.5v-2083.3h317.21v2077c0 808.33-80.83 1399.1-1405.4 1399.1" fill="#161716"/><path d="m10401 6857.4c60.2 43.1 116.2 93.64 165.9 155.14 260.5 322.55 297.6 774.68 89.6 1133.8-208.1 359.15-617.4 553.57-1026.6 489.11-78.06-12.23-149.76-35.37-217.12-65.85-7.23 73.59-23.5 147.28-51.96 220.97-148.81 387-521.79 645.26-936.97 644.64-414.74-0.5-787.88-257.64-936.82-644.64-28.38-73.68-44.63-147.31-51.88-220.88-67.32 30.47-138.98 53.59-217 65.81-409.23 64.45-818.55-129.97-1026.6-489.11-208.02-359.16-170.86-811.28 89.59-1133.8 49.71-61.51 105.68-112.05 165.87-155.15-60.19-43.07-116.16-93.63-165.87-155.16-260.45-322.48-297.64-774.57-89.54-1133.7 207.84-359.18 617.08-553.57 1026.6-489.15 77.99 12.25 149.63 35.39 216.94 65.88 7.26-73.65 23.5-147.38 51.91-221.14 148.94-386.95 522.01-645.51 936.79-644.96 415.16 0.58 788.19 258.01 936.96 644.96 28.45 73.76 44.72 147.49 51.95 221.14 67.39-30.51 139.11-53.63 217.17-65.88 409.2-64.42 819.5 129.41 1026.6 489.15 207.1 359.67 170.9 811.24-89.6 1133.7-49.7 61.53-105.7 112.07-165.9 155.14" fill="#fff"/><path d="m6283.3 6704.5c49.05 60.31 103.99 110.49 163.22 152.96 0.14-0.09 0.3-0.19 0.43-0.3-59.29-42.51-114.53-92.28-163.65-152.66" fill="#c0d1d6"/><path d="m6282.8 6703.8c0.14 0.19 0.3 0.39 0.45 0.55-0.15-0.16-0.29-0.36-0.45-0.55" fill="#c0d1d6"/><path d="m6282.1 6703.1c0.1 0.12 0.19 0.24 0.29 0.36-0.1-0.12-0.19-0.24-0.29-0.36" fill="#c0d1d6"/><path d="m7220.4 5079.7c77.25 12.32 148.27 35.32 215.01 65.54 0.03-0.16 0.05-0.35 0.07-0.54-66.71-30.18-137.9-52.7-215.08-65" fill="#c0d1d6"/><path d="m7219.5 5079.6c0.17 0.03 0.31 0.05 0.48 0.1-0.17-0.05-0.31-0.05-0.48-0.1" fill="#c0d1d6"/><path d="m7062.5 5067.2c-354.41 0-689.14 187.95-870.48 501.36-90.02 155.4-134.15 328.15-134.15 500.3 0.02 225.78 75.9 450.46 223.7 633.43 0.19 0.26 0.4 0.52 0.59 0.76 0.1 0.12 0.2 0.24 0.29 0.37 0.12 0.12 0.21 0.24 0.31 0.38 0.17 0.19 0.31 0.38 0.46 0.55 0.04 0.07 0.07 0.1 0.11 0.14 49.14 60.38 104.37 110.16 163.67 152.65 208.49-149.35 470.65-203.81 721.56-271.08 40.23-10.79 80.45-21.59 120.7-32.37-277.73-277.59-555.44-555.15-833.2-832.75 379.15 101.8 758.3 203.51 1137.5 305.26-10.77-40.23-21.54-80.41-32.31-120.63-67-250.98-150.88-505.15-125.78-760.34-66.74-30.22-137.77-53.22-215-65.54-0.13 0-0.32-0.05-0.43-0.05-0.18-0.05-0.32-0.07-0.49-0.1-0.31-0.04-0.64-0.09-0.96-0.14-52.18-8.21-104.33-12.2-156.09-12.2" fill="#c0d1d6"/><path d="m7485.8 4928.5c-27.29 72.13-43.12 144.18-50.22 216.16 0 0.02 0.04 0.02 0.04 0.05 7.13-72.01 22.89-144.08 50.18-216.21" fill="#c0d1d6"/><path d="m7486.1 4927.7c-0.07 0.23-0.17 0.47-0.27 0.69 0.1-0.22 0.2-0.46 0.27-0.69" fill="#c0d1d6"/><path d="m7486.4 4926.8c-0.07 0.21-0.17 0.43-0.24 0.62 0.1-0.22 0.17-0.41 0.24-0.62" fill="#c0d1d6"/><path d="m7486.7 4926c-0.05 0.16-0.12 0.35-0.19 0.53 0.07-0.2 0.11-0.34 0.19-0.53" fill="#c0d1d6"/><path d="m9361.8 4925.9c27.97 72.99 44.03 145.95 51.23 218.84 0.05-0.03 0.05-0.03 0.07-0.05-7.2-72.87-23.33-145.8-51.3-218.79" fill="#c0d1d6"/><path d="m7487.1 4925.1c-0.07 0.14-0.11 0.29-0.16 0.43 0.05-0.14 0.09-0.29 0.16-0.43" fill="#c0d1d6"/><path d="m9361.5 4925c0.09 0.24 0.19 0.5 0.28 0.74-0.09-0.24-0.19-0.5-0.28-0.74" fill="#c0d1d6"/><path d="m8422.9 4279.2c-414.23 0-786.68 258.44-935.45 644.96-0.12 0.29-0.24 0.6-0.34 0.91-0.07 0.14-0.11 0.28-0.16 0.44-0.07 0.16-0.12 0.28-0.19 0.45-0.08 0.19-0.12 0.34-0.19 0.53-0.05 0.14-0.1 0.23-0.15 0.35-0.07 0.22-0.14 0.41-0.24 0.62-0.02 0.07-0.04 0.17-0.09 0.24-0.07 0.24-0.17 0.48-0.27 0.7-0.02 0.07-0.02 0.09-0.04 0.15-27.31 72.12-43.06 144.2-50.19 216.2 233.73 105.75 411.98 305.54 596.08 489.3 29.4 29.44 58.81 58.82 88.23 88.25 101.53-379.26 203.02-758.51 304.37-1137.8 101.53 379.34 203.06 758.59 304.65 1137.8 29.41-29.43 58.87-58.87 88.28-88.3 183.87-183.74 362.13-383.5 595.9-489.25-7.2-72.89-23.26-145.85-51.23-218.84 0-0.04-0.03-0.07-0.03-0.12-0.09-0.24-0.19-0.51-0.28-0.74-0.12-0.31-0.24-0.6-0.36-0.89-148.78-386.95-521.8-644.39-936.96-644.96h-1.34" fill="#c0d1d6"/><path d="m7435.5 5144.7c-0.03 0.19-0.05 0.38-0.08 0.55 0.03 0.03 0.05 0.03 0.08 0.05 0.02-0.19 0.04-0.38 0.04-0.55 0-0.03-0.04-0.03-0.04-0.05" fill="#9cb4bd"/><path d="m7435.6 5144.7c0 0.17-0.02 0.36-0.05 0.55-0.02-0.02-0.04-0.02-0.07-0.05-25.09 255.19 58.77 509.35 125.78 760.33 10.76 40.23 21.54 80.41 32.31 120.63 138.39 37.12 276.8 74.26 415.16 111.37 37.06-138.41 74.14-276.86 111.18-415.27-29.42-29.44-58.82-58.83-88.23-88.26-184.1-183.76-362.35-383.56-596.08-489.3" fill="#9cb4bd"/><path d="m10563 6707.5c-48.5 59.01-102.8 107.8-161.1 149.59 0.1 0.12 0.3 0.21 0.4 0.33 58.3-41.78 112.3-90.96 160.7-149.92" fill="#c0d1d6"/><path d="m10563 6707c0 0.08 0 0.12-0.1 0.17 0.1-0.05 0.1-0.09 0.1-0.17" fill="#c0d1d6"/><path d="m9786.6 5067.2c-51.83 0-104.1 4-156.31 12.23-77.97 12.23-149.85 34.87-217.15 65.29 0.03 0.19 0.05 0.35 0.07 0.54 67.35-30.48 139.04-53.58 217.08-65.83 52.21-8.23 104.48-12.23 156.31-12.23 354.29-0.02 689.59 187.56 870.29 501.39 89.6 155.59 133.6 328.39 133.7 500.49-0.1-172.1-44.1-344.9-133.7-500.49-180.7-313.83-516-501.41-870.29-501.39" fill="#c0d1d6"/><path d="m9786.6 5067.2c-51.83 0-104.1 4-156.31 12.23-78.04 12.25-149.73 35.35-217.08 65.83 25.14 255.19-58.81 509.36-125.9 760.34-10.76 40.24-21.53 80.49-32.27 120.72 379.27-101.75 758.55-203.48 1137.8-305.3-277.7 277.56-555.41 555.11-833.12 832.68 40.2 10.76 80.43 21.55 120.62 32.34 250.91 67.27 513 121.74 721.6 271.09 58.3-41.79 112.6-90.58 161.1-149.59 0.1-0.12 0.2-0.22 0.3-0.36 0.1-0.05 0.1-0.09 0.1-0.17 1.3-1.56 2.6-3.13 3.9-4.71 147.8-182.98 223.4-407.51 223.3-633.22-0.1-172.1-44.1-344.9-133.7-500.49-180.7-313.83-516-501.41-870.29-501.39" fill="#c0d1d6"/><path d="m9413.2 5144.7c-0.03 0.02-0.03 0.02-0.08 0.05 0.03 0.17 0.05 0.36 0.05 0.55 0.03-0.02 0.07-0.02 0.1-0.05-0.03-0.19-0.05-0.36-0.07-0.55" fill="#9cb4bd"/><path d="m9413.1 5144.7c-233.77 105.74-412.02 305.51-595.9 489.25-29.42 29.44-58.87 58.87-88.28 88.31 37.06 138.43 74.14 276.86 111.2 415.32 138.32-37.09 276.63-74.21 414.95-111.32 10.74-40.22 21.51-80.48 32.28-120.73 67.07-250.98 151.02-505.14 125.9-760.33-0.03 0.03-0.07 0.03-0.1 0.05 0-0.19-0.02-0.38-0.05-0.55" fill="#9cb4bd"/><path d="m6456 5721c277.76 277.59 555.47 555.16 833.2 832.75 138.53-37.17 277.14-74.33 415.66-111.5-37.11-138.67-74.22-277.34-111.36-415.99-379.2-101.76-758.35-203.46-1137.5-305.26" fill="#9cb4bd"/><path d="m7593.5 6026.2c37.13 138.65 74.25 277.34 111.36 416.01 79.84-21.42 159.64-42.82 239.45-64.24 21.46-80.16 42.9-160.23 64.35-240.4-138.37-37.11-276.78-74.25-415.16-111.37" fill="#86a1ad"/><path d="m9629 8635.3c0.12 0.01 0.22 0.03 0.36 0.05-0.11-0.02-0.24-0.04-0.36-0.05" fill="#c0d1d6"/><path d="m9627.7 8635.1c0.25 0.04 0.48 0.07 0.72 0.11-0.24-0.04-0.47-0.07-0.72-0.11" fill="#c0d1d6"/><path d="m9413.3 8569.7c-0.02 0.17-0.05 0.35-0.07 0.53 66.48 30.07 137.46 52.53 214.32 64.84-76.96-12.34-147.72-35.27-214.25-65.37" fill="#c0d1d6"/><path d="m10563 7007.6c0.1 0.08 0.1 0.15 0.2 0.22-0.1-0.07-0.1-0.14-0.2-0.22" fill="#c0d1d6"/><path d="m10402 6857.4c-0.1 0.1-0.3 0.19-0.4 0.31 58.3 41.8 112.7 90.6 161.2 149.61-48.5-58.97-102.5-108.16-160.8-149.92" fill="#c0d1d6"/><path d="m10402 6857.8c-208.6 149.35-470.73 203.73-721.6 271.09-40.24 10.8-80.47 21.59-120.72 32.39 277.76 277.58 555.42 555.15 833.22 832.71-379.3-101.78-758.56-203.51-1137.7-305.26 10.75 40.23 21.49 80.42 32.26 120.64 67.08 251.04 151.07 505.25 125.94 760.36 66.53 30.1 137.29 53.03 214.25 65.37 0.05 0.01 0.1 0.02 0.14 0.03 0.24 0.03 0.48 0.07 0.72 0.11 0.19 0.03 0.38 0.06 0.57 0.1 0.12 0.01 0.24 0.03 0.36 0.05 0.31 0.05 0.65 0.11 0.99 0.15 52.14 8.22 104.28 12.23 156.04 12.23 354.26 0 689.06-187.97 870.56-501.34 90-155.38 134.1-328.15 134.1-500.31 0-225.78-75.9-450.51-223.7-633.51-1.3-1.59-2.5-3.14-3.8-4.7-0.1-0.07-0.1-0.14-0.2-0.21-0.1-0.1-0.2-0.19-0.2-0.29-48.5-59.01-102.9-107.81-161.2-149.61" fill="#c0d1d6"/><path d="m9559.6 7161.2c-138.6 37.18-277.18 74.35-415.76 111.53 37.09 138.63 74.18 277.27 111.25 415.92 379.18 101.74 758.43 203.49 1137.7 305.26-277.8-277.56-555.46-555.13-833.22-832.71" fill="#9cb4bd"/><path d="m10402 6857.1c-0.2 0.09-0.3 0.21-0.5 0.3 0.2 0.13 0.3 0.22 0.5 0.34 0.1-0.12 0.3-0.21 0.4-0.31-0.1-0.12-0.3-0.22-0.4-0.33" fill="#9cb4bd"/><path d="m9559.7 6553.7c-101.35 101.28-202.67 202.54-304.01 303.84 101.3 101.22 202.64 202.49 303.91 303.72 40.25-10.8 80.48-21.59 120.73-32.38 250.86-67.37 512.99-121.75 721.59-271.1-0.2-0.12-0.3-0.22-0.5-0.34 0.2-0.09 0.3-0.21 0.5-0.31-208.6-149.35-470.69-203.81-721.59-271.07-40.2-10.8-80.43-21.59-120.63-32.36" fill="#9cb4bd"/><path d="m9255.7 6857.5c-58.63 58.58-117.3 117.21-175.94 175.82 21.38 79.79 42.72 159.63 64.09 239.43 138.58-37.18 277.16-74.35 415.76-111.53-101.26-101.23-202.61-202.49-303.91-303.72" fill="#86a1ad"/><path d="m10393 5721c-379.2 101.82-758.49 203.55-1137.8 305.3-37.07 138.6-74.16 277.2-111.25 415.83 138.6 37.19 277.25 74.35 415.88 111.54 277.71-277.56 555.42-555.1 833.12-832.67" fill="#9cb4bd"/><path d="m9255 6026.3c-138.32 37.11-276.63 74.23-414.94 111.32 21.46 80.1 42.9 160.22 64.34 240.31 79.81 21.39 159.56 42.79 239.35 64.21 37.09-138.64 74.18-277.24 111.25-415.84" fill="#86a1ad"/><path d="m9143.8 6442.1c-21.37 79.84-42.74 159.69-64.09 239.52 58.65 58.62 117.31 117.23 175.96 175.86 101.35-101.29 202.67-202.56 304.01-303.84-138.63-37.19-277.28-74.35-415.88-111.54" fill="#86a1ad"/><path d="m9079.7 6681.6c-15.69 58.61-31.34 117.14-47.02 175.74 15.68 58.65 31.37 117.29 47.05 175.93 58.63-58.6 117.3-117.23 175.93-175.8-58.65-58.64-117.3-117.25-175.96-175.87" fill="#7994a1"/><path d="m8904.4 6377.9c11.23 41.9 22.45 83.8 33.67 125.7 4.43 16.61 8.88 33.24 13.31 49.85 12.08 12.09 24.16 24.13 36.25 36.21 30.68 30.65 61.35 61.31 92.03 91.96 21.35-79.83 42.72-159.69 64.09-239.52-79.79-21.42-159.54-42.81-239.35-64.2" fill="#7994a1"/><path d="m8951.4 6553.5c27.09 101.32 54.16 202.59 81.27 303.91 15.67-58.6 31.32-117.14 47.02-175.74-30.67-30.66-61.36-61.31-92.03-91.97-12.09-12.08-24.17-24.12-36.26-36.2" fill="#708b99"/><path d="m7062.3 8647.8h0.17-0.17" fill="#c0d1d6"/><path d="m7218.6 8635.5c-52.12 8.21-104.28 12.22-156 12.22 51.74 0 103.86-4.01 156-12.22" fill="#c0d1d6"/><path d="m7219.7 8635.4c-0.05 0.01-0.09 0.02-0.14 0.02 0.05 0 0.09-0.01 0.14-0.02" fill="#c0d1d6"/><path d="m7220.9 8635.2c-0.12 0.02-0.23 0.04-0.38 0.06 0.15-0.02 0.26-0.04 0.38-0.06" fill="#c0d1d6"/><path d="m7222.1 8635c-0.23 0.04-0.47 0.08-0.72 0.12 0.22-0.04 0.49-0.08 0.72-0.12" fill="#c0d1d6"/><path d="m7435.5 8569.8c-66.24 29.96-136.69 52.82-213.24 65.18 76.45-12.34 147.12-34.72 213.29-64.65-0.03-0.18-0.03-0.36-0.05-0.53" fill="#c0d1d6"/><path d="m6282.6 7011.3c-0.15 0.19-0.29 0.37-0.46 0.54 0.17-0.17 0.31-0.35 0.46-0.54" fill="#c0d1d6"/><path d="m6446.5 6857.5c-59.49 42.67-114.57 93.04-163.83 153.68 49.31-60.68 104.72-110.68 164.26-153.34-0.14-0.12-0.28-0.22-0.43-0.34" fill="#c0d1d6"/><path d="m6447 6857.8c-59.54 42.66-114.95 92.66-164.26 153.34-0.02 0.05-0.07 0.09-0.11 0.15-0.15 0.19-0.29 0.37-0.46 0.54-0.19 0.26-0.38 0.51-0.59 0.78-147.77 183-223.68 407.72-223.7 633.51 0 172.16 44.1 344.93 134.1 500.3 181.51 313.33 516.2 501.29 870.39 501.34h0.21c51.72 0 103.88-4.01 156-12.22 0.36-0.06 0.67-0.1 1.01-0.16 0.05 0 0.1-0.01 0.14-0.02 0.26-0.04 0.55-0.09 0.82-0.13 0.14-0.02 0.26-0.04 0.37-0.06 0.17-0.03 0.34-0.06 0.53-0.08 0.24-0.04 0.48-0.08 0.72-0.12 0.04-0.01 0.04-0.01 0.09-0.02 76.56-12.36 147.01-35.22 213.25-65.18-25.16-255.16 58.75-509.37 125.8-760.45 10.77-40.2 21.54-80.42 32.27-120.62-379.19 101.73-758.41 203.44-1137.6 305.22 277.75-277.54 555.51-555.13 833.22-832.68-40.23-10.81-80.48-21.6-120.73-32.4-250.98-67.34-513.03-121.72-721.52-271.04" fill="#c0d1d6"/><path d="m6447 6857.2c-0.14 0.12-0.28 0.22-0.42 0.31 0.14 0.12 0.28 0.22 0.42 0.34 0.15-0.12 0.29-0.22 0.43-0.34-0.14-0.09-0.28-0.19-0.43-0.31" fill="#9cb4bd"/><path d="m7289.2 6553.7c-40.25 10.79-80.48 21.58-120.7 32.37-250.91 67.27-513.06 121.73-721.57 271.08 0.14 0.12 0.29 0.21 0.43 0.31-0.14 0.12-0.29 0.22-0.43 0.33 208.48 149.33 470.54 203.71 721.52 271.06 40.25 10.79 80.5 21.59 120.72 32.38 101.35-101.28 202.63-202.5 303.96-303.77-101.31-101.24-202.63-202.51-303.93-303.76" fill="#9cb4bd"/><path d="m7289.2 7161.2c-277.71 277.56-555.47 555.15-833.22 832.68 379.15-101.77 758.36-203.47 1137.6-305.21 37.13-138.67 74.24-277.3 111.36-415.95-138.59-37.17-277.14-74.35-415.69-111.52" fill="#9cb4bd"/><path d="m7593.2 6857.5c-101.35 101.28-202.62 202.5-303.96 303.78 138.55 37.17 277.11 74.33 415.68 111.5 21.37-79.84 42.75-159.7 64.12-239.53-58.61-58.58-117.23-117.19-175.84-175.75" fill="#86a1ad"/><path d="m7704.9 6442.2c-138.53 37.16-277.14 74.33-415.67 111.49 101.3 101.25 202.62 202.52 303.94 303.78 58.6-58.59 117.23-117.2 175.83-175.75-21.37-79.83-42.74-159.68-64.1-239.52" fill="#86a1ad"/><path d="m7944.4 6378c-79.81 21.41-159.61 42.81-239.44 64.22 21.36 79.84 42.73 159.69 64.1 239.52 30.71-30.68 61.38-61.35 92.09-92.03 12.1-12.11 24.19-24.2 36.32-36.31 4.43-16.58 8.88-33.19 13.31-49.77 11.19-41.88 22.42-83.78 33.62-125.63" fill="#7994a1"/><path d="m7769 6681.7c-58.61 58.55-117.24 117.16-175.85 175.74 58.61 58.56 117.24 117.17 175.85 175.74 15.67-58.57 31.34-117.18 47.02-175.74-15.68-58.58-31.35-117.16-47.02-175.74" fill="#7994a1"/><path d="m7897.4 6553.4c-12.14 12.11-24.22 24.19-36.33 36.3-30.7 30.68-61.38 61.37-92.09 92.04 15.67 58.58 31.36 117.16 47.03 175.75 27.14-101.37 54.25-202.72 81.39-304.09" fill="#708b99"/><path d="m8424.2 4584.4c-101.35 379.34-202.84 758.59-304.38 1137.8 101.47 101.46 202.98 202.95 304.47 304.42 101.54-101.47 203.05-202.96 304.56-304.42-101.58-379.26-203.12-758.51-304.65-1137.8" fill="#74909e"/><path d="m8119.9 5722.3c-37.04 138.41-74.12 276.87-111.18 415.28 80.07 21.5 160.16 42.98 240.21 64.47 58.49-58.44 116.95-116.87 175.43-175.34-101.48-101.45-203-202.94-304.46-304.41" fill="#5f7c8b"/><path d="m8728.9 5722.3c-101.51 101.47-203.02 202.96-304.56 304.41 58.46 58.49 116.97 116.95 175.46 175.41 80.09-21.48 160.2-42.97 240.3-64.49-37.06-138.46-74.14-276.89-111.2-415.33" fill="#5f7c8b"/><path d="m8424.3 6026.7c-58.48 58.46-116.95 116.9-175.43 175.33 41.93 11.25 83.85 22.5 125.77 33.75 16.61 4.44 33.22 8.92 49.83 13.37 16.54-4.45 33.12-8.88 49.65-13.32 41.88-11.25 83.76-22.48 125.64-33.73-58.49-58.46-117-116.92-175.46-175.4" fill="#52707f"/><path d="m8008.7 6137.6c-21.44 80.17-42.88 160.24-64.34 240.41 58.57-15.73 117.11-31.42 175.66-47.12 42.96-42.93 85.94-85.89 128.89-128.82-80.05-21.49-160.14-42.98-240.21-64.47" fill="#52707f"/><path d="m8248.9 6202c-42.95 42.93-85.94 85.89-128.89 128.82 101.52-27.23 203-54.47 304.49-81.7-16.61-4.45-33.22-8.93-49.82-13.38-41.93-11.24-83.85-22.49-125.78-33.74" fill="#496878"/><path d="m7435.6 8570.3c-0.05 0.02-0.03 0.02-0.07 0.03 7.27 73.37 23.58 146.84 51.9 220.31-28.32-73.5-44.56-146.95-51.83-220.34" fill="#96adb7"/><path d="m9413.1 8570.2c-7.25 73.12-23.41 146.33-51.57 219.56 28.19-73.23 44.39-146.41 51.64-219.53-0.02-0.02-0.02-0.02-0.07-0.03" fill="#96adb7"/><path d="m8728.9 7992.4c-101.56 379.3-203.12 758.58-304.67 1137.8-101.35-379.18-202.82-758.44-304.33-1137.7-29.43 29.41-58.87 58.81-88.27 88.21-183.89 183.79-362.18 383.76-596.03 489.54 7.27 73.39 23.53 146.85 51.83 220.34 148.94 387 522.08 644.13 936.81 644.65h1.47c414.56 0 786.86-258.12 935.52-644.65 0.12-0.29 0.24-0.59 0.33-0.88 28.17-73.22 44.32-146.43 51.57-219.55-233.8-105.8-412.05-305.74-595.9-489.49-29.44-29.42-58.9-58.84-88.33-88.26" fill="#96adb7"/><path d="m8424.4 7688.3c-101.51 101.43-203.04 202.87-304.53 304.27 101.51 379.26 202.98 758.51 304.32 1137.7 101.56-379.23 203.12-758.5 304.68-1137.8-101.46-101.38-202.95-202.76-304.47-304.17" fill="#74909e"/><path d="m9413.2 8569.6c-0.03 0.18-0.03 0.35-0.05 0.53 0.05 0.02 0.05 0.03 0.07 0.04 0.03-0.18 0.05-0.36 0.07-0.53-0.02-0.02-0.07-0.04-0.09-0.04" fill="#75919e"/><path d="m8840 7577.3c-37.04 138.36-74.11 276.77-111.15 415.13 29.43 29.43 58.89 58.84 88.32 88.26 183.86 183.76 362.11 383.69 595.91 489.49 0.02-0.19 0.02-0.36 0.05-0.55 0.02 0.02 0.07 0.03 0.09 0.05 25.14-255.12-58.87-509.32-125.94-760.36-10.76-40.22-21.51-80.42-32.26-120.64-138.39-37.13-276.68-74.24-415.02-111.38" fill="#74909e"/><path d="m9143.8 7272.8c-79.81 21.4-159.63 42.82-239.44 64.22-21.44 80.11-42.88 160.21-64.33 240.32 138.34 37.14 276.64 74.25 415.02 111.38-37.06-138.65-74.16-277.3-111.25-415.92" fill="#5f7c8b"/><path d="m8600 7512.9c-58.51 58.48-117.02 116.93-175.56 175.4 101.52 101.41 203 202.79 304.47 304.17 37.04-138.37 74.11-276.77 111.15-415.13-80.02-21.48-160.06-42.96-240.06-64.44" fill="#5f7c8b"/><path d="m8904.4 7337c-58.54 15.7-116.97 31.38-175.48 47.07-42.98 42.95-85.94 85.86-128.91 128.81 79.99 21.48 160.04 42.96 240.06 64.44 21.45-80.11 42.89-160.21 64.33-240.32" fill="#52707f"/><path d="m9079.7 7033.3c-30.65 30.66-61.31 61.29-91.99 91.95-12.16 12.15-24.34 24.32-36.47 36.48-4.42 16.52-8.85 33.02-13.26 49.55-11.22 41.89-22.42 83.79-33.64 125.68 79.8-21.4 159.64-42.82 239.44-64.23-21.37-79.79-42.71-159.63-64.08-239.43" fill="#52707f"/><path d="m8951.3 7161.8c-74.14 74.11-148.25 148.21-222.38 222.3 58.5-15.69 116.94-31.37 175.48-47.07 11.22-41.89 22.42-83.79 33.65-125.68 4.4-16.52 8.83-33.03 13.25-49.55" fill="#496878"/><path d="m7435.6 8569.7c-0.03 0.01-0.05 0.02-0.07 0.03 0.02 0.18 0.02 0.36 0.04 0.54 0.05-0.02 0.03-0.01 0.08-0.03-0.03-0.18-0.05-0.36-0.05-0.54" fill="#75919e"/><path d="m8008.7 7577.3c-138.36 37.13-276.77 74.28-415.16 111.4-10.74 40.2-21.52 80.42-32.28 120.62-67.06 251.09-150.96 505.29-125.8 760.45 0.02-0.02 0.05-0.03 0.07-0.04 0 0.18 0.02 0.36 0.05 0.54 233.84-105.78 412.14-305.75 596.03-489.54 29.4-29.39 58.83-58.8 88.27-88.2-37.04-138.4-74.11-276.83-111.18-415.23" fill="#74909e"/><path d="m8248.9 7512.8c-80.05 21.5-160.06 42.98-240.14 64.47 37.07 138.4 74.14 276.83 111.18 415.23 101.49-101.4 203.03-202.84 304.53-304.27-58.5-58.47-117.04-116.94-175.57-175.43" fill="#5f7c8b"/><path d="m8840.1 6137.6c-80.1 21.51-160.21 43-240.3 64.49 42.88 42.89 85.75 85.72 128.65 128.6 58.64 15.73 117.35 31.47 176 47.22-21.45-80.1-42.89-160.21-64.35-240.31" fill="#52707f"/><path d="m8599.8 6202.1c-41.88 11.25-83.76 22.48-125.64 33.72-16.53 4.46-33.12 8.88-49.65 13.33 101.31 27.19 202.61 54.37 303.94 81.55-42.89-42.87-85.77-85.71-128.65-128.6" fill="#496878"/><path d="m7704.9 7272.8c-37.12 138.65-74.24 277.28-111.35 415.95 138.39-37.13 276.8-74.26 415.16-111.4-21.44-80.11-42.88-160.2-64.32-240.3-79.83-21.42-159.69-42.84-239.49-64.25" fill="#5f7c8b"/><path d="m7769 7033.2c-21.38 79.83-42.74 159.69-64.11 239.54 79.8 21.41 159.66 42.83 239.49 64.24-11.22-41.89-22.45-83.8-33.67-125.69-4.43-16.57-8.88-33.18-13.3-49.76-12.14-12.11-24.22-24.2-36.33-36.32-30.71-30.68-61.39-61.34-92.08-92.01" fill="#52707f"/><path d="m7944.4 7337c21.44 80.11 42.88 160.19 64.32 240.31 80.07-21.49 160.1-42.97 240.14-64.47-42.93-42.9-85.86-85.81-128.79-128.72-58.58-15.71-117.12-31.41-175.67-47.12" fill="#52707f"/><path d="m7897.4 7161.5c4.42 16.58 8.87 33.18 13.3 49.76 11.22 41.89 22.45 83.8 33.67 125.69 58.55 15.71 117.09 31.41 175.67 47.12-74.24-74.18-148.46-148.38-222.64-222.57" fill="#496878"/><path d="m8120 6330.9c-58.55 15.69-117.09 31.39-175.67 47.12-11.2 41.85-22.42 83.75-33.62 125.63-4.43 16.58-8.88 33.19-13.3 49.77 74.17-74.18 148.38-148.36 222.59-222.52" fill="#496878"/><path d="m8424.4 7465.7c-16.6 4.46-33.17 8.89-49.77 13.35-41.93 11.25-83.83 22.5-125.76 33.76 58.53 58.48 117.07 116.96 175.57 175.43 58.54-58.47 117.05-116.92 175.56-175.4-41.95-11.27-83.88-22.52-125.83-33.79-16.61-4.46-33.16-8.9-49.77-13.35" fill="#52707f"/><path d="m8728.9 7384c-101.49 27.22-203.05 54.46-304.52 81.67 16.62 4.45 33.18 8.9 49.78 13.35 41.95 11.26 83.88 22.53 125.83 33.79 42.97-42.95 85.93-85.86 128.91-128.81" fill="#496878"/><path d="m7816 6857.5c-15.68 58.56-31.35 117.17-47.02 175.75 30.7 30.67 61.37 61.33 92.07 92.01 12.12 12.12 24.2 24.2 36.33 36.32-27.14-101.38-54.25-202.71-81.38-304.08" fill="#496878"/><path d="m9032.7 6857.4c-27.14 101.44-54.3 202.92-81.41 304.36 12.13-12.15 24.31-24.32 36.47-36.48 30.68-30.65 61.33-61.29 91.99-91.94-15.68-58.66-31.38-117.29-47.05-175.94" fill="#496878"/><path d="m8120.1 7384.1l128.79 128.73c41.93-11.26 83.83-22.51 125.75-33.77 16.61-4.45 33.17-8.89 49.78-13.35-101.42-27.2-202.91-54.41-304.32-81.61" fill="#496878"/><path d="m8728.4 6330.7c74.31 74.24 148.66 148.51 222.98 222.77-4.42-16.6-8.88-33.24-13.3-49.84-11.23-41.91-22.45-83.81-33.67-125.71-58.66-15.74-117.35-31.5-176.01-47.22" fill="#496878"/><path d="m8424.5 6249.2c-101.49 27.23-202.98 54.47-304.49 81.7-74.2 74.16-148.41 148.34-222.6 222.52-27.13 101.37-54.25 202.71-81.38 304.08 27.13 101.37 54.25 202.7 81.38 304.08 74.19 74.19 148.42 148.39 222.65 222.57 101.41 27.2 202.9 54.42 304.32 81.61 101.46-27.22 203.02-54.45 304.5-81.66 74.14-74.1 148.25-148.21 222.39-222.31 27.11-101.43 54.27-202.92 81.41-304.36-27.11-101.32-54.17-202.59-81.26-303.91-74.33-74.25-148.68-148.53-222.99-222.77-101.31-27.18-202.61-54.37-303.93-81.55" fill="#436272"/></g></g></svg>
