<?xml version="1.0" encoding="UTF-8" standalone="no"?>
<!-- Created with Inkscape (http://www.inkscape.org/) -->

<svg
   xmlns:dc="http://purl.org/dc/elements/1.1/"
   xmlns:cc="http://creativecommons.org/ns#"
   xmlns:rdf="http://www.w3.org/1999/02/22-rdf-syntax-ns#"
   xmlns:svg="http://www.w3.org/2000/svg"
   xmlns="http://www.w3.org/2000/svg"
   xmlns:sodipodi="http://sodipodi.sourceforge.net/DTD/sodipodi-0.dtd"
   xmlns:inkscape="http://www.inkscape.org/namespaces/inkscape"
   width="258.94901mm"
   height="231.09938mm"
   viewBox="0 0 258.949 231.09938"
   version="1.1"
   id="svg8"
   inkscape:version="0.92.2 5c3e80d, 2017-08-06"
   sodipodi:docname="xiaoju_logo-01a-blue-white.svg"
   inkscape:export-filename="/Users/xiaoju/Documents/REFERENCE/creative ideas/creative-xiaoju_io/logo/xiaoju_logo-00a.png"
   inkscape:export-xdpi="70"
   inkscape:export-ydpi="70">
  <defs
     id="defs2" />
  <sodipodi:namedview
     id="base"
     pagecolor="#4c6236"
     bordercolor="#666666"
     borderopacity="1.0"
     inkscape:pageopacity="0"
     inkscape:pageshadow="2"
     inkscape:zoom="0.49497474"
     inkscape:cx="197.571"
     inkscape:cy="403.44474"
     inkscape:document-units="mm"
     inkscape:current-layer="layer1"
     showgrid="false"
     objecttolerance="1"
     guidetolerance="1"
     inkscape:window-width="1280"
     inkscape:window-height="751"
     inkscape:window-x="0"
     inkscape:window-y="1"
     inkscape:window-maximized="1"
     fit-margin-top="0"
     fit-margin-left="0"
     fit-margin-right="0"
     fit-margin-bottom="0"
     gridtolerance="1" />
  <metadata
     id="metadata5">
    <rdf:RDF>
      <cc:Work
         rdf:about="">
        <dc:format>image/svg+xml</dc:format>
        <dc:type
           rdf:resource="http://purl.org/dc/dcmitype/StillImage" />
        <dc:title></dc:title>
      </cc:Work>
    </rdf:RDF>
  </metadata>
  <g
     inkscape:groupmode="layer"
     id="layer1"
     inkscape:label="black"
     style="display:inline"
     transform="translate(-2.408115,2.0078586)">
    <path
       style="display:inline;opacity:1;fill:#ffffff;fill-opacity:1;stroke:none;stroke-width:0.5291667;stroke-linecap:butt;stroke-linejoin:miter;stroke-miterlimit:4;stroke-dasharray:none;stroke-opacity:1"
       d="m 14.128993,148.53896 c 14.436771,-37.1035 75.38062,-94.270175 139.822197,-99.86654 14.9686,-1.299934 16.39569,24.180173 27.37639,27.436495 10.09177,2.992714 11.12172,13.254541 25.65787,26.726955 5.40547,11.53263 15.03517,47.21756 -29.07867,89.14619 -32.57667,30.96298 -125.533847,36.88689 -135.369305,37.0928 -29.127711,0.6098 -32.46385,-15.7005 -20.365536,-19.98364 10.251211,-3.62921 27.862404,-17.28409 21.828062,-26.71482 -16.826519,26.83208 -63.105498,51.57749 -29.871008,-33.83744 z"
       id="path1047"
       inkscape:connector-curvature="0"
       sodipodi:nodetypes="ssscssscs" />
    <path
       sodipodi:nodetypes="ccsccccccc"
       inkscape:connector-curvature="0"
       id="path1113"
       d="m 140.55994,216.63141 c 0,0 53.12234,20.33474 90.55119,7.2464 17.00893,-23.43453 7.8068,-75.32701 0.7055,-96.78089 C 219.4012,89.588427 248.75839,58.971971 230.49502,22.534685 213.63018,21.149223 199.08271,31.737165 193.50478,46.640363 197.5354,24.089207 191.2916,7.6527867 175.83718,-2.0078586 155.16805,13.302081 143.23275,39.526031 154.29432,48.6129 c 10.4517,25.307864 36.98724,42.72491 55.48243,63.7462 14.41682,16.8681 17.97843,81.58723 -69.21684,104.27231 z"
       style="display:inline;opacity:1;fill:#ffffff;fill-opacity:1;stroke:none;stroke-width:0.5291667;stroke-linecap:butt;stroke-linejoin:miter;stroke-miterlimit:4;stroke-dasharray:none;stroke-opacity:1" />
    <path
       sodipodi:nodetypes="ccc"
       inkscape:connector-curvature="0"
       id="path1116"
       d="m 243.78117,220.14938 c 34.09885,-72.42898 10.64978,-126.549415 -4.14088,-140.937539 -17.35664,55.044129 23.84658,5.952438 4.14088,140.937539 z"
       style="display:inline;opacity:1;fill:#ffffff;fill-opacity:1;stroke:none;stroke-width:0.26458332px;stroke-linecap:butt;stroke-linejoin:miter;stroke-opacity:1" />
    <path
       sodipodi:nodetypes="ccc"
       inkscape:connector-curvature="0"
       id="path1127"
       d="M 137.08416,46.756728 C 99.754311,44.512338 128.36961,19.779148 109.04593,-0.07985813 141.20356,10.900133 116.5631,34.663179 137.08416,46.756728 Z"
       style="display:inline;opacity:1;fill:#ffffff;fill-opacity:1;stroke:none;stroke-width:0.29301044px;stroke-linecap:butt;stroke-linejoin:miter;stroke-opacity:1" />
    <path
       sodipodi:nodetypes="ccc"
       inkscape:connector-curvature="0"
       id="path1129"
       d="m 151.27696,47.441876 c -36.01517,-20.638777 -4.7784,-30.715696 -7.08657,-49.404173 14.87738,18.527122 -7.00733,24.119962 7.08657,49.404173 z"
       style="display:inline;opacity:1;fill:#ffffff;fill-opacity:1;stroke:none;stroke-width:0.30464315px;stroke-linecap:butt;stroke-linejoin:miter;stroke-opacity:1" />
    <ellipse
       style="display:inline;opacity:1;fill:#00276f;fill-opacity:1;stroke:none;stroke-width:1.60054851;stroke-linejoin:round;stroke-miterlimit:4;stroke-dasharray:none;stroke-opacity:1"
       id="ellipse1134"
       cx="80.947205"
       cy="129.95555"
       rx="12.494164"
       ry="15.116187"
       transform="matrix(0.98710871,-0.16005125,0.16064173,0.98701278,0,0)" />
    <path
       sodipodi:nodetypes="csscsc"
       inkscape:connector-curvature="0"
       id="path1140"
       d="m 156.21853,93.225614 c -10.58854,6.524222 -38.90784,2.910653 -47.56144,2.684115 -13.511425,-0.353709 -29.239289,8.229161 -37.463431,22.462521 -1.01789,1.76164 -1.920834,3.60984 -2.690401,5.53837 3.398864,-29.414522 34.005322,-34.63451 48.717402,-33.824224 12.13526,0.668364 35.01228,2.104984 38.99787,3.139218 z"
       style="display:inline;opacity:1;fill:#00276f;fill-opacity:1;stroke:none;stroke-width:0.31407553px;stroke-linecap:butt;stroke-linejoin:miter;stroke-opacity:1" />
    <path
       style="display:inline;opacity:1;fill:#00276f;fill-opacity:1;stroke:none;stroke-width:0.06536313;stroke-linecap:butt;stroke-linejoin:miter;stroke-miterlimit:4;stroke-dasharray:none;stroke-opacity:1"
       d="M 84.070187,80.758506 C 80.492093,89.979643 74.072092,92.77366 76.530722,100.19877 86.793445,95.380089 84.467859,87.001227 84.070187,80.758506 Z"
       id="path1142"
       inkscape:connector-curvature="0"
       sodipodi:nodetypes="ccc" />
    <path
       sodipodi:nodetypes="ccc"
       inkscape:connector-curvature="0"
       id="path1144"
       d="m 89.556082,91.797432 c 6.604594,-0.735778 6.960441,-10.250045 6.332405,-13.537 -2.796247,4.884156 -8.20325,10.1311 -6.332405,13.537 z"
       style="display:inline;opacity:1;fill:#00276f;fill-opacity:1;stroke:none;stroke-width:0.07081115;stroke-linecap:butt;stroke-linejoin:miter;stroke-miterlimit:4;stroke-dasharray:none;stroke-opacity:1" />
    <path
       sodipodi:nodetypes="ccc"
       inkscape:connector-curvature="0"
       id="path1146"
       d="m 69.015708,93.556925 c -0.257878,9.157225 -4.541687,13.236915 -0.677417,18.438665 9.008845,-8.14595 2.456122,-12.898882 0.677417,-18.438665 z"
       style="display:inline;opacity:1;fill:#00276f;fill-opacity:1;stroke:none;stroke-width:0.07074009;stroke-linecap:butt;stroke-linejoin:miter;stroke-miterlimit:4;stroke-dasharray:none;stroke-opacity:1" />
    <path
       style="display:inline;opacity:1;fill:#00276f;stroke:none;stroke-width:0.26458332px;stroke-linecap:butt;stroke-linejoin:miter;stroke-opacity:1;fill-opacity:1"
       d="m 68.186905,127.09739 c 10.520842,14.09957 38.606995,12.16222 56.487585,-1.68587 12.38757,-9.59388 18.96594,-28.045995 30.11482,-27.858338 -15.00745,-2.834945 -25.21753,28.529928 -46.03896,33.847988 -12.293834,3.14001 -28.84182,5.6167 -32.540948,-4.34684 -0.684221,-1.85135 -7.363028,-2.16948 -8.022497,0.0431 z"
       id="path1160"
       inkscape:connector-curvature="0"
       sodipodi:nodetypes="cscsccc" />
    <ellipse
       transform="matrix(0.9786676,-0.20545005,0.19609361,0.98058518,0,0)"
       ry="10.308202"
       rx="7.662293"
       cy="181.05923"
       cx="-20.543091"
       id="ellipse1075"
       style="display:inline;opacity:1;fill:#00276f;fill-opacity:1;stroke:none;stroke-width:1.39326406;stroke-linejoin:round;stroke-miterlimit:4;stroke-dasharray:none;stroke-opacity:1" />
    <path
       style="display:inline;opacity:1;fill:#00276f;fill-opacity:1;stroke:none;stroke-width:0.26458332px;stroke-linecap:butt;stroke-linejoin:miter;stroke-opacity:1"
       d="M 208.96064,92.391138 C 238.89394,73.812521 231.2092,54.30744 223.74726,34.233924 206.98711,42.702149 198.60262,58.342627 208.96064,92.391138 Z"
       id="path1120"
       inkscape:connector-curvature="0"
       sodipodi:nodetypes="ccc" />
    <path
       style="display:inline;opacity:1;fill:#00276f;fill-opacity:1;stroke:none;stroke-width:0.26458332px;stroke-linecap:butt;stroke-linejoin:miter;stroke-opacity:1"
       d="M 176.48294,64.676115 C 191.51859,37.87421 188.41556,22.188724 174.26271,9.1396865 156.10012,25.159259 157.5328,42.856006 176.48294,64.676115 Z"
       id="path1124"
       inkscape:connector-curvature="0"
       sodipodi:nodetypes="ccc" />
  </g>
</svg>
