<?xml version="1.0" encoding="UTF-8" standalone="no"?>
<!-- Created with Inkscape (http://www.inkscape.org/) -->

<svg
   xmlns:dc="http://purl.org/dc/elements/1.1/"
   xmlns:cc="http://creativecommons.org/ns#"
   xmlns:rdf="http://www.w3.org/1999/02/22-rdf-syntax-ns#"
   xmlns:svg="http://www.w3.org/2000/svg"
   xmlns="http://www.w3.org/2000/svg"
   xmlns:sodipodi="http://sodipodi.sourceforge.net/DTD/sodipodi-0.dtd"
   xmlns:inkscape="http://www.inkscape.org/namespaces/inkscape"
   width="22.469475mm"
   height="21.787485mm"
   viewBox="0 0 22.469475 21.787485"
   version="1.1"
   id="svg8"
   inkscape:version="0.92.2 5c3e80d, 2017-08-06"
   sodipodi:docname="ju.svg">
  <defs
     id="defs2" />
  <sodipodi:namedview
     id="base"
     pagecolor="#74c673"
     bordercolor="#666666"
     borderopacity="1.0"
     inkscape:pageopacity="0"
     inkscape:pageshadow="2"
     inkscape:zoom="2.8"
     inkscape:cx="-9.1438067"
     inkscape:cy="44.859398"
     inkscape:document-units="mm"
     inkscape:current-layer="layer1"
     showgrid="false"
     inkscape:window-width="1280"
     inkscape:window-height="751"
     inkscape:window-x="0"
     inkscape:window-y="1"
     inkscape:window-maximized="1"
     fit-margin-top="0"
     fit-margin-left="0"
     fit-margin-right="0"
     fit-margin-bottom="0" />
  <metadata
     id="metadata5">
    <rdf:RDF>
      <cc:Work
         rdf:about="">
        <dc:format>image/svg+xml</dc:format>
        <dc:type
           rdf:resource="http://purl.org/dc/dcmitype/StillImage" />
        <dc:title></dc:title>
      </cc:Work>
    </rdf:RDF>
  </metadata>
  <g
     inkscape:label="Layer 1"
     inkscape:groupmode="layer"
     id="layer1"
     transform="translate(-59.24256,-142.83784)">
    <g
       aria-label="驹"
       transform="scale(0.26458333)"
       style="font-style:normal;font-variant:normal;font-weight:normal;font-stretch:normal;font-size:40px;line-height:1.25;font-family:'Futura Std';-inkscape-font-specification:'Futura Std, weight=650';font-variant-ligatures:normal;font-variant-caps:normal;font-variant-numeric:normal;text-align:start;letter-spacing:0px;word-spacing:0px;writing-mode:lr-tb;text-anchor:start;fill:#ffffff;fill-opacity:1;stroke:none"
       id="flowRoot10">
      <path
         d="m 273.78089,569.56197 q -1.632,1.824 -3.744,3.456 -2.112,1.632 -3.744,2.592 -2.592,1.536 -3.168,1.056 -0.48,-0.576 1.44,-2.88 2.016,-2.496 3.552,-4.512 1.632,-2.112 2.976,-4.128 1.344,-2.112 2.592,-4.416 1.344,-2.304 2.88,-5.28 4.128,-7.968 2.784,-11.712 -1.056,-3.072 0.288,-3.744 1.344,-0.672 5.664,2.016 2.304,1.44 3.552,2.4 1.248,0.864 1.632,1.536 0.48,0.576 0.192,1.152 -0.192,0.48 -0.864,1.056 -1.44,1.344 -2.4,2.496 -0.864,1.056 -1.92,2.784 -1.728,2.784 -3.072,4.896 -1.248,2.016 -2.304,3.552 -1.056,1.44 -2.016,2.688 -0.864,1.152 -1.824,2.208 6.624,-0.768 11.232,-1.92 4.704,-1.248 6.912,-2.592 1.056,-0.576 1.824,-0.864 0.768,-0.384 1.632,-0.288 0.864,0 1.92,0.48 1.056,0.384 2.688,1.248 2.688,1.344 4.128,2.304 1.44,0.96 1.92,1.824 0.48,0.768 0.192,1.536 -0.288,0.768 -1.152,1.824 -0.96,1.152 -1.44,3.744 -0.48,2.496 -0.672,7.872 -0.288,6.336 -0.768,11.616 -0.384,5.184 -0.864,8.256 -0.672,4.128 -1.44,7.104 -0.768,2.88 -1.824,4.992 -0.96,2.112 -2.208,3.648 -1.248,1.536 -2.784,2.88 -2.304,2.016 -3.936,1.728 -1.536,-0.192 -2.016,-2.112 -0.576,-2.016 -1.728,-4.032 -1.152,-2.016 -4.128,-5.568 -2.016,-2.4 -1.632,-3.168 0.384,-0.768 2.976,0.192 2.688,0.96 4.32,1.44 1.632,0.48 2.496,0.384 0.96,-0.192 1.344,-0.864 0.48,-0.768 0.96,-2.208 1.728,-5.088 2.784,-13.056 1.056,-7.968 1.248,-20.544 0,-1.728 -0.192,-2.688 -0.192,-0.96 -0.96,-1.344 -0.672,-0.48 -2.112,-0.384 -1.44,0 -3.84,0.288 -3.072,0.48 -5.664,0.864 -2.496,0.384 -4.416,0.672 -2.208,0.48 -3.744,0.384 -1.536,-0.096 -3.552,-0.864 z m -23.136,9.504 q -1.152,-2.304 -1.248,-3.648 0,-1.344 0.768,-3.168 0.48,-1.056 0.864,-2.208 0.384,-1.152 0.672,-2.592 0.288,-1.536 0.576,-3.648 0.288,-2.112 0.576,-4.992 0.192,-2.112 0.192,-3.264 0.096,-1.152 -0.096,-1.728 -0.192,-0.576 -0.672,-0.672 -0.48,-0.096 -1.152,-0.096 -2.304,0.192 -4.416,0.576 -2.016,0.288 -3.84,1.056 -2.112,0.768 -3.744,0.672 -1.536,-0.192 -4.224,-1.92 -1.728,-1.152 -1.536,-1.92 0.288,-0.864 2.592,-0.864 2.112,0 4.32,-0.192 2.304,-0.288 4.416,-0.672 2.208,-0.48 4.032,-1.056 1.92,-0.672 3.168,-1.44 0.96,-0.576 1.632,-0.864 0.768,-0.288 1.44,-0.288 0.768,-0.096 1.536,0.192 0.768,0.288 1.824,0.864 2.112,1.152 3.264,2.112 1.248,0.864 1.536,1.632 0.384,0.768 0,1.44 -0.384,0.672 -1.344,1.536 -0.672,0.672 -1.248,1.536 -0.48,0.768 -0.96,2.208 -0.48,1.344 -0.864,3.552 -0.384,2.112 -0.768,5.28 -0.192,1.728 -0.48,3.072 -0.192,1.248 -0.48,2.496 -0.288,1.248 -0.768,2.688 -0.384,1.344 -1.056,3.168 0.48,-0.192 0.768,-0.192 0.288,-0.096 0.48,-0.288 1.056,-0.672 2.016,-0.576 1.056,0.096 2.976,1.056 2.016,1.056 3.072,1.824 1.152,0.768 1.536,1.44 0.384,0.576 0.096,1.248 -0.288,0.672 -0.96,1.536 -0.288,0.288 -0.48,0.96 -0.192,0.672 -0.48,2.208 -0.288,1.44 -0.672,4.128 -0.288,2.592 -0.864,6.912 -0.48,4.032 -1.152,6.816 -0.576,2.784 -1.44,4.8 -0.768,1.92 -1.824,3.36 -1.056,1.44 -2.304,2.688 -1.632,1.632 -3.264,1.44 -1.536,-0.096 -2.112,-1.92 -0.288,-0.864 -0.864,-2.016 -0.48,-1.056 -1.152,-2.208 -0.576,-1.056 -1.344,-2.016 -0.672,-1.056 -1.248,-1.728 -4.32,-4.608 1.728,-2.4 1.92,0.672 2.976,0.96 1.152,0.288 1.824,0 0.768,-0.288 1.152,-1.152 0.48,-0.96 1.056,-2.592 0.576,-1.824 0.96,-3.648 0.48,-1.824 0.768,-3.936 0.288,-2.112 0.48,-4.608 0.192,-2.496 0.384,-5.76 0.096,-1.632 -0.576,-2.016 -0.672,-0.384 -3.168,-0.192 -1.92,0.192 -4.224,0.672 -2.304,0.384 -4.512,1.056 -1.632,0.48 -2.976,1.152 -1.248,0.576 -2.688,1.92 -1.056,1.056 -2.016,0.864 -0.864,-0.288 -2.592,-2.496 -1.344,-1.824 -1.344,-2.592 0.096,-0.864 1.536,-1.728 1.248,-0.768 2.016,-3.36 0.864,-2.592 1.152,-5.664 0.384,-3.072 0.192,-5.856 -0.096,-2.784 -0.768,-3.936 -1.44,-2.4 -0.576,-3.168 0.864,-0.864 4.608,0.48 3.456,1.152 4.032,2.496 0.672,1.344 -0.384,3.456 -0.96,2.208 -1.728,5.952 -0.768,3.648 -1.536,9.312 1.92,-0.288 4.32,-0.672 2.4,-0.384 4.608,-0.864 z m 23.232,1.344 q 2.4,-0.288 4.224,-0.768 1.824,-0.576 3.552,-1.632 0.864,-0.48 1.536,-0.768 0.672,-0.288 1.344,-0.288 0.672,0 1.44,0.384 0.864,0.288 2.016,0.864 1.92,1.056 2.88,1.824 1.056,0.672 1.344,1.248 0.384,0.576 0.096,1.056 -0.192,0.48 -0.864,1.056 -1.632,1.44 -2.784,3.264 -1.152,1.824 -2.016,4.32 2.976,3.552 -0.288,4.224 -0.768,0.192 -1.632,0.288 l -2.208,0.288 q -1.248,0.096 -3.168,0.288 -1.92,0.096 -4.608,0.192 -0.384,1.728 -0.864,2.496 -0.48,0.672 -1.152,0.768 -0.864,0.096 -1.728,-1.344 -0.768,-1.44 -0.96,-4.32 -0.192,-4.032 -0.768,-6.72 -0.48,-2.784 -1.536,-5.28 -0.48,-1.056 -0.48,-1.632 0.096,-0.672 0.768,-0.864 0.672,-0.192 2.016,0.096 1.44,0.192 3.84,0.96 z m -25.056,15.264 q -6.336,2.688 -9.792,4.416 -3.36,1.728 -4.992,2.976 -1.056,0.768 -1.824,1.152 -0.672,0.288 -1.44,0.096 -0.768,-0.192 -1.824,-0.96 -1.056,-0.864 -2.688,-2.4 -2.688,-2.592 -2.304,-3.552 0.48,-1.056 3.456,-0.96 1.632,0 3.36,-0.096 1.728,-0.192 4.128,-0.576 2.496,-0.48 5.952,-1.344 3.456,-0.864 8.448,-2.208 2.4,-0.672 3.744,-0.672 1.44,-0.096 1.536,0.48 0.096,0.48 -1.344,1.44 -1.344,0.96 -4.416,2.208 z m 26.112,-2.976 q 3.36,-0.384 4.8,-0.864 1.44,-0.48 2.208,-1.44 0.288,-1.632 0.48,-3.072 0.288,-1.536 0.384,-2.976 0.096,-1.632 -0.384,-2.016 -0.48,-0.48 -1.92,-0.096 -3.264,0.768 -5.664,0.96 0.096,1.344 0.096,3.456 z"
         style="font-style:normal;font-variant:normal;font-weight:normal;font-stretch:normal;font-size:96px;font-family:'Kaiti SC';-inkscape-font-specification:'Kaiti SC';fill:#ffffff"
         id="path40"
         inkscape:connector-curvature="0" />
    </g>
  </g>
</svg>
