<?xml version="1.0" encoding="UTF-8" standalone="no"?>
<!-- Created with Inkscape (http://www.inkscape.org/) -->

<svg
   xmlns:dc="http://purl.org/dc/elements/1.1/"
   xmlns:cc="http://creativecommons.org/ns#"
   xmlns:rdf="http://www.w3.org/1999/02/22-rdf-syntax-ns#"
   xmlns:svg="http://www.w3.org/2000/svg"
   xmlns="http://www.w3.org/2000/svg"
   xmlns:sodipodi="http://sodipodi.sourceforge.net/DTD/sodipodi-0.dtd"
   xmlns:inkscape="http://www.inkscape.org/namespaces/inkscape"
   width="22.469475mm"
   height="21.787485mm"
   viewBox="0 0 22.469475 21.787486"
   version="1.1"
   id="svg8"
   inkscape:version="0.92.2 5c3e80d, 2017-08-06"
   sodipodi:docname="ju_chinese.svg">
  <defs
     id="defs2" />
  <sodipodi:namedview
     id="base"
     pagecolor="#ffffff"
     bordercolor="#666666"
     borderopacity="1.0"
     inkscape:pageopacity="0.0"
     inkscape:pageshadow="2"
     inkscape:zoom="1.979899"
     inkscape:cx="-6.0447825"
     inkscape:cy="21.423758"
     inkscape:document-units="mm"
     inkscape:current-layer="layer3"
     showgrid="false"
     fit-margin-top="0"
     fit-margin-left="0"
     fit-margin-right="0"
     fit-margin-bottom="0"
     inkscape:window-width="1280"
     inkscape:window-height="751"
     inkscape:window-x="0"
     inkscape:window-y="1"
     inkscape:window-maximized="1" />
  <metadata
     id="metadata5">
    <rdf:RDF>
      <cc:Work
         rdf:about="">
        <dc:format>image/svg+xml</dc:format>
        <dc:type
           rdf:resource="http://purl.org/dc/dcmitype/StillImage" />
        <dc:title />
      </cc:Work>
    </rdf:RDF>
  </metadata>
  <g
     inkscape:label="background_frame"
     inkscape:groupmode="layer"
     id="layer1"
     style="display:inline"
     transform="translate(-60.180685,-50.19607)">
    <rect
       style="opacity:1;fill:#ffffff;fill-opacity:1;stroke:none;stroke-width:0.26458332;stroke-linejoin:round;stroke-miterlimit:4;stroke-dasharray:none;stroke-opacity:1"
       id="rect866"
       width="60.356667"
       height="45.095623"
       x="39.098282"
       y="42.240788" />
  </g>
  <g
     inkscape:groupmode="layer"
     id="layer3"
     inkscape:label="chinese_ju"
     style="display:inline"
     transform="translate(-60.180685,-50.19607)"
     sodipodi:insensitive="true">
    <path
       d="m 73.375985,58.05483 q -0.4318,0.4826 -0.9906,0.9144 -0.5588,0.4318 -0.9906,0.6858 -0.6858,0.4064 -0.8382,0.2794 -0.127,-0.1524 0.381,-0.762 0.5334,-0.6604 0.9398,-1.1938 0.4318,-0.5588 0.7874,-1.0922 0.3556,-0.5588 0.6858,-1.1684 0.3556,-0.6096 0.762,-1.397 1.0922,-2.1082 0.7366,-3.0988 -0.2794,-0.8128 0.0762,-0.9906 0.3556,-0.1778 1.4986,0.5334 0.6096,0.381 0.9398,0.635 0.3302,0.2286 0.4318,0.4064 0.127,0.1524 0.0508,0.3048 -0.0508,0.127 -0.2286,0.2794 -0.381,0.3556 -0.635,0.6604 -0.2286,0.2794 -0.508,0.7366 -0.4572,0.7366 -0.8128,1.2954 -0.3302,0.5334 -0.6096,0.9398 -0.2794,0.381 -0.5334,0.7112 -0.2286,0.3048 -0.4826,0.5842 1.7526,-0.2032 2.9718,-0.508 1.2446,-0.3302 1.8288,-0.6858 0.2794,-0.1524 0.4826,-0.2286 0.2032,-0.1016 0.4318,-0.0762 0.2286,0 0.508,0.127 0.2794,0.1016 0.7112,0.3302 0.7112,0.3556 1.0922,0.6096 0.381,0.254 0.508,0.4826 0.127,0.2032 0.0508,0.4064 -0.0762,0.2032 -0.3048,0.4826 -0.254,0.3048 -0.381,0.9906 -0.127,0.6604 -0.1778,2.0828 -0.0762,1.6764 -0.2032,3.0734 -0.1016,1.3716 -0.2286,2.1844 -0.1778,1.0922 -0.381,1.8796 -0.2032,0.762 -0.4826,1.3208 -0.254,0.5588 -0.5842,0.9652 -0.3302,0.4064 -0.7366,0.762 -0.6096,0.5334 -1.0414,0.4572 -0.4064,-0.0508 -0.5334,-0.5588 -0.1524,-0.5334 -0.4572,-1.0668 -0.3048,-0.5334 -1.0922,-1.4732 -0.5334,-0.635 -0.4318,-0.8382 0.1016,-0.2032 0.7874,0.0508 0.7112,0.254 1.143,0.381 0.4318,0.127 0.6604,0.1016 0.254,-0.0508 0.3556,-0.2286 0.127,-0.2032 0.254,-0.5842 0.4572,-1.3462 0.7366,-3.4544 0.2794,-2.1082 0.3302,-5.4356 0,-0.4572 -0.0508,-0.7112 -0.0508,-0.254 -0.254,-0.3556 -0.1778,-0.127 -0.5588,-0.1016 -0.381,0 -1.016,0.0762 -0.8128,0.127 -1.4986,0.2286 -0.6604,0.1016 -1.1684,0.1778 -0.5842,0.127 -0.9906,0.1016 -0.4064,-0.0254 -0.9398,-0.2286 z m -6.1214,2.5146 q -0.3048,-0.6096 -0.3302,-0.9652 0,-0.3556 0.2032,-0.8382 0.127,-0.2794 0.2286,-0.5842 0.1016,-0.3048 0.1778,-0.6858 0.0762,-0.4064 0.1524,-0.9652 0.0762,-0.5588 0.1524,-1.3208 0.0508,-0.5588 0.0508,-0.8636 0.0254,-0.3048 -0.0254,-0.4572 -0.0508,-0.1524 -0.1778,-0.1778 -0.127,-0.0254 -0.3048,-0.0254 -0.6096,0.0508 -1.1684,0.1524 -0.5334,0.0762 -1.016,0.2794 -0.5588,0.2032 -0.9906,0.1778 -0.4064,-0.0508 -1.1176,-0.508 -0.4572,-0.3048 -0.4064,-0.508 0.0762,-0.2286 0.6858,-0.2286 0.5588,0 1.143,-0.0508 0.6096,-0.0762 1.1684,-0.1778 0.5842,-0.127 1.0668,-0.2794 0.508,-0.1778 0.8382,-0.381 0.254,-0.1524 0.4318,-0.2286 0.2032,-0.0762 0.381,-0.0762 0.2032,-0.0254 0.4064,0.0508 0.2032,0.0762 0.4826,0.2286 0.5588,0.3048 0.8636,0.5588 0.3302,0.2286 0.4064,0.4318 0.1016,0.2032 0,0.381 -0.1016,0.1778 -0.3556,0.4064 -0.1778,0.1778 -0.3302,0.4064 -0.127,0.2032 -0.254,0.5842 -0.127,0.3556 -0.2286,0.9398 -0.1016,0.5588 -0.2032,1.397 -0.0508,0.4572 -0.127,0.8128 -0.0508,0.3302 -0.127,0.6604 -0.0762,0.3302 -0.2032,0.7112 -0.1016,0.3556 -0.2794,0.8382 0.127,-0.0508 0.2032,-0.0508 0.0762,-0.0254 0.127,-0.0762 0.2794,-0.1778 0.5334,-0.1524 0.2794,0.0254 0.7874,0.2794 0.5334,0.2794 0.8128,0.4826 0.3048,0.2032 0.4064,0.381 0.1016,0.1524 0.0254,0.3302 -0.0762,0.1778 -0.254,0.4064 -0.0762,0.0762 -0.127,0.254 -0.0508,0.1778 -0.127,0.5842 -0.0762,0.381 -0.1778,1.0922 -0.0762,0.6858 -0.2286,1.8288 -0.127,1.0668 -0.3048,1.8034 -0.1524,0.7366 -0.381,1.27 -0.2032,0.508 -0.4826,0.889 -0.2794,0.381 -0.6096,0.7112 -0.4318,0.4318 -0.8636,0.381 -0.4064,-0.0254 -0.5588,-0.508 -0.0762,-0.2286 -0.2286,-0.5334 -0.127,-0.2794 -0.3048,-0.5842 -0.1524,-0.2794 -0.3556,-0.5334 -0.1778,-0.2794 -0.3302,-0.4572 -1.143,-1.2192 0.4572,-0.635 0.508,0.1778 0.7874,0.254 0.3048,0.0762 0.4826,0 0.2032,-0.0762 0.3048,-0.3048 0.127,-0.254 0.2794,-0.6858 0.1524,-0.4826 0.254,-0.9652 0.127,-0.4826 0.2032,-1.0414 0.0762,-0.5588 0.127,-1.2192 0.0508,-0.6604 0.1016,-1.524 0.0254,-0.4318 -0.1524,-0.5334 -0.1778,-0.1016 -0.8382,-0.0508 -0.508,0.0508 -1.1176,0.1778 -0.6096,0.1016 -1.1938,0.2794 -0.4318,0.127 -0.7874,0.3048 -0.3302,0.1524 -0.7112,0.508 -0.2794,0.2794 -0.5334,0.2286 -0.2286,-0.0762 -0.6858,-0.6604 -0.3556,-0.4826 -0.3556,-0.6858 0.0254,-0.2286 0.4064,-0.4572 0.3302,-0.2032 0.5334,-0.889 0.2286,-0.6858 0.3048,-1.4986 0.1016,-0.8128 0.0508,-1.5494 -0.0254,-0.7366 -0.2032,-1.0414 -0.381,-0.635 -0.1524,-0.8382 0.2286,-0.2286 1.2192,0.127 0.9144,0.3048 1.0668,0.6604 0.1778,0.3556 -0.1016,0.9144 -0.254,0.5842 -0.4572,1.5748 -0.2032,0.9652 -0.4064,2.4638 0.508,-0.0762 1.143,-0.1778 0.635,-0.1016 1.2192,-0.2286 z m 6.1468,0.3556 q 0.635,-0.0762 1.1176,-0.2032 0.4826,-0.1524 0.9398,-0.4318 0.2286,-0.127 0.4064,-0.2032 0.1778,-0.0762 0.3556,-0.0762 0.1778,0 0.381,0.1016 0.2286,0.0762 0.5334,0.2286 0.508,0.2794 0.762,0.4826 0.2794,0.1778 0.3556,0.3302 0.1016,0.1524 0.0254,0.2794 -0.0508,0.127 -0.2286,0.2794 -0.4318,0.381 -0.7366,0.8636 -0.3048,0.4826 -0.5334,1.143 0.7874,0.9398 -0.0762,1.1176 -0.2032,0.0508 -0.4318,0.0762 l -0.5842,0.0762 q -0.3302,0.0254 -0.8382,0.0762 -0.508,0.0254 -1.2192,0.0508 -0.1016,0.4572 -0.2286,0.6604 -0.127,0.1778 -0.3048,0.2032 -0.2286,0.0254 -0.4572,-0.3556 -0.2032,-0.381 -0.254,-1.143 -0.0508,-1.0668 -0.2032,-1.778 -0.127,-0.7366 -0.4064,-1.397 -0.127,-0.2794 -0.127,-0.4318 0.0254,-0.1778 0.2032,-0.2286 0.1778,-0.0508 0.5334,0.0254 0.381,0.0508 1.016,0.254 z m -6.6294,4.0386 q -1.6764,0.7112 -2.5908,1.1684 -0.889,0.4572 -1.3208,0.7874 -0.2794,0.2032 -0.4826,0.3048 -0.1778,0.0762 -0.381,0.0254 -0.2032,-0.0508 -0.4826,-0.254 -0.2794,-0.2286 -0.7112,-0.635 -0.7112,-0.6858 -0.6096,-0.9398 0.127,-0.2794 0.9144,-0.254 0.4318,0 0.889,-0.0254 0.4572,-0.0508 1.0922,-0.1524 0.6604,-0.127 1.5748,-0.3556 0.9144,-0.2286 2.2352,-0.5842 0.635,-0.1778 0.9906,-0.1778 0.381,-0.0254 0.4064,0.127 0.0254,0.127 -0.3556,0.381 -0.3556,0.254 -1.1684,0.5842 z m 6.9088,-0.7874 q 0.889,-0.1016 1.27,-0.2286 0.381,-0.127 0.5842,-0.381 0.0762,-0.4318 0.127,-0.8128 0.0762,-0.4064 0.1016,-0.7874 0.0254,-0.4318 -0.1016,-0.5334 -0.127,-0.127 -0.508,-0.0254 -0.8636,0.2032 -1.4986,0.254 0.0254,0.3556 0.0254,0.9144 z"
       style="font-style:normal;font-variant:normal;font-weight:normal;font-stretch:normal;font-size:25.39999962px;line-height:1.25;font-family:'Kaiti SC';-inkscape-font-specification:'Kaiti SC';font-variant-ligatures:normal;font-variant-caps:normal;font-variant-numeric:normal;text-align:start;letter-spacing:0px;word-spacing:0px;writing-mode:lr-tb;text-anchor:start;fill:#000000;fill-opacity:1;stroke:none;stroke-width:0.26458332"
       id="path829"
       inkscape:connector-curvature="0" />
  </g>
</svg>
