<?xml version="1.0" encoding="UTF-8" standalone="no"?>
<svg
   xmlns:dc="http://purl.org/dc/elements/1.1/"
   xmlns:cc="http://creativecommons.org/ns#"
   xmlns:rdf="http://www.w3.org/1999/02/22-rdf-syntax-ns#"
   xmlns:svg="http://www.w3.org/2000/svg"
   xmlns="http://www.w3.org/2000/svg"
   xmlns:sodipodi="http://sodipodi.sourceforge.net/DTD/sodipodi-0.dtd"
   xmlns:inkscape="http://www.inkscape.org/namespaces/inkscape"
   width="261.09mm"
   height="231.1mm"
   version="1.1"
   viewBox="0 0 261.09448 231.09888"
   id="svg8"
   sodipodi:docname="xiaoju_logo-01d-grey.svg"
   inkscape:version="0.92.2 5c3e80d, 2017-08-06">
  <defs
     id="defs12" />
  <sodipodi:namedview
     pagecolor="#919237"
     bordercolor="#666666"
     borderopacity="1"
     objecttolerance="10"
     gridtolerance="10"
     guidetolerance="10"
     inkscape:pageopacity="0"
     inkscape:pageshadow="2"
     inkscape:window-width="1280"
     inkscape:window-height="751"
     id="namedview10"
     showgrid="false"
     inkscape:zoom="0.27019327"
     inkscape:cx="493.39842"
     inkscape:cy="436.72442"
     inkscape:window-x="0"
     inkscape:window-y="1"
     inkscape:window-maximized="1"
     inkscape:current-layer="svg8" />
  <metadata
     id="metadata2">
    <rdf:RDF>
      <cc:Work
         rdf:about="">
        <dc:format>image/svg+xml</dc:format>
        <dc:type
           rdf:resource="http://purl.org/dc/dcmitype/StillImage" />
        <dc:title />
      </cc:Work>
    </rdf:RDF>
  </metadata>
  <g
     transform="translate(-.26262 2.0079)"
     id="g6"
     style="fill:#9e9e9e;fill-opacity:1">
    <path
       transform="matrix(.26458 0 0 .26458 .26262 -2.0079)"
       d="m663.59 0c-78.12 57.864-123.23 156.98-81.422 191.32 0.0197 0.0478 0.0408 0.0948 0.0606 0.14257-0.45249 0.0266-0.89825 0.0422-1.3574 0.082-243.56 21.152-473.9 237.22-528.46 377.45-125.61 322.83 49.302 229.3 112.9 127.89 22.807 35.644-43.755 87.254-82.5 100.97-45.726 16.188-33.116 77.832 76.973 75.527 37.173-0.77824 388.51-23.168 511.63-140.19 131.68-125.16 136.66-235.59 122.86-297.96 52.404 68.043 60.625 306.67-264.02 391.12 0 0 200.78 76.854 342.24 27.387 64.286-88.571 29.506-284.7 2.666-365.79-46.925-141.76 64.033-257.48-4.9941-395.2-63.741-5.2364-118.72 34.78-139.81 91.107 15.234-85.233-8.363-147.35-66.773-183.87zm-119.61 0.17188c8.7238 70.634-109.34 108.72 26.785 186.72-53.268-95.562 29.444-116.7-26.785-186.72zm-132.83 7.1152c73.034 75.058-35.118 168.54 105.97 177.02-77.56-45.708 15.57-135.52-105.97-177.02zm246.49 34.846c53.491 49.319 65.218 108.6 8.3906 209.9-71.623-82.47-77.037-149.35-8.3906-209.9zm187.03 94.844c28.203 75.868 57.247 149.59-55.887 219.81-39.148-128.69-7.4587-187.8 55.887-219.81zm-483.25 166.4c2.3737 12.423 1.0286 48.381-23.934 51.162-7.0709-12.873 13.365-32.702 23.934-51.162zm543.31 3.5957c-65.6 208.04 90.129 22.496 15.65 532.68 128.88-273.75 40.251-478.3-15.65-532.68zm-587.98 5.8457c1.503 23.595 10.292 55.262-28.496 73.475-9.2925-28.063 14.973-38.623 28.496-73.475zm114.2 34.965c3.9048-3e-3 7.6165 0.0977 11.092 0.28907 45.866 2.5261 132.33 7.9563 147.39 11.865-40.02 24.658-147.05 11.001-179.76 10.145-51.067-1.3368-110.51 31.103-141.59 84.898-3.8472 6.6582-7.2594 13.643-10.168 20.932 12.043-104.22 114.46-128.08 173.04-128.13zm-171.1 13.406c6.7227 20.938 31.489 38.902-2.5606 69.689-14.605-19.66 1.5859-35.079 2.5606-69.689zm316.32 14.426c2.5851-0.0423 5.2025 0.17548 7.8613 0.67774-42.138-0.70926-66.999 69.033-113.82 105.29-67.58 52.339-173.73 59.661-213.5 6.3711 2.4925-8.3625 27.734-7.1593 30.32-0.16211 13.981 37.657 76.525 28.295 122.99 16.428 75.006-19.158 113.58-127.75 166.14-128.61zm-200.75 10.936a57.132 47.222 80.682 0 1 51.092 49.305 57.132 47.222 80.682 0 1 -37.436 63.949 57.132 47.222 80.682 0 1 -55.791 -48.832 57.132 47.222 80.682 0 1 37.436 -63.949 57.132 47.222 80.682 0 1 4.6992 -0.47266zm-320.08 269.4a38.962 28.957 79.367 0 1 30.199 32.674 38.962 28.957 79.367 0 1 -20.701 44.154 38.962 28.957 79.367 0 1 -35.982 -32.254 38.962 28.957 79.367 0 1 20.701 -44.154 38.962 28.957 79.367 0 1 5.7832 -0.41992z"
       id="path4"
       fill="#fff"
       style="fill:#9e9e9e;fill-opacity:1" />
  </g>
</svg>
