<?xml version="1.0" encoding="UTF-8" standalone="no"?>
<!-- Created with Inkscape (http://www.inkscape.org/) -->

<svg
   xmlns:dc="http://purl.org/dc/elements/1.1/"
   xmlns:cc="http://creativecommons.org/ns#"
   xmlns:rdf="http://www.w3.org/1999/02/22-rdf-syntax-ns#"
   xmlns:svg="http://www.w3.org/2000/svg"
   xmlns="http://www.w3.org/2000/svg"
   xmlns:sodipodi="http://sodipodi.sourceforge.net/DTD/sodipodi-0.dtd"
   xmlns:inkscape="http://www.inkscape.org/namespaces/inkscape"
   width="202.36304"
   height="536.28461"
   viewBox="0 0 10.708377 28.378396"
   version="1.1"
   id="svg68"
   inkscape:version="0.92.2 5c3e80d, 2017-08-06"
   sodipodi:docname="name_vertical.svg">
  <defs
     id="defs62" />
  <sodipodi:namedview
     id="base"
     pagecolor="#a2a2a2"
     bordercolor="#666666"
     borderopacity="1.0"
     inkscape:pageopacity="0"
     inkscape:pageshadow="2"
     inkscape:zoom="0.9899495"
     inkscape:cx="-93.335926"
     inkscape:cy="271.44811"
     inkscape:document-units="mm"
     inkscape:current-layer="layer3"
     showgrid="false"
     showguides="true"
     inkscape:guide-bbox="true"
     guidetolerance="1"
     fit-margin-top="0"
     fit-margin-left="0"
     fit-margin-right="0"
     fit-margin-bottom="0"
     inkscape:window-width="1280"
     inkscape:window-height="751"
     inkscape:window-x="0"
     inkscape:window-y="1"
     inkscape:window-maximized="1"
     scale-x="1e-05"
     inkscape:pagecheckerboard="false"
     units="px"
     objecttolerance="1"
     gridtolerance="1">
    <inkscape:grid
       type="xygrid"
       id="grid843"
       originx="-23.339665"
       originy="20.388865" />
    <sodipodi:guide
       position="-22.914128,41.0547"
       orientation="1,0"
       id="guide884"
       inkscape:locked="false" />
    <sodipodi:guide
       position="-2.5481891,38.809636"
       orientation="1,0"
       id="guide886"
       inkscape:locked="false" />
    <sodipodi:guide
       position="0.01759693,34.800593"
       orientation="1,0"
       id="guide905"
       inkscape:locked="false" />
    <sodipodi:guide
       position="10.708378,34.2126"
       orientation="1,0"
       id="guide907"
       inkscape:locked="false" />
  </sodipodi:namedview>
  <metadata
     id="metadata65">
    <rdf:RDF>
      <cc:Work
         rdf:about="">
        <dc:format>image/svg+xml</dc:format>
        <dc:type
           rdf:resource="http://purl.org/dc/dcmitype/StillImage" />
        <dc:title />
      </cc:Work>
    </rdf:RDF>
  </metadata>
  <g
     inkscape:groupmode="layer"
     id="layer3"
     inkscape:label="vertical"
     transform="translate(-23.341759,-8.4126631)">
    <text
       xml:space="preserve"
       style="font-style:normal;font-variant:normal;font-weight:normal;font-stretch:normal;font-size:2.70061564px;line-height:1.25;font-family:'Futura Std';-inkscape-font-specification:'Futura Std, weight=650';font-variant-ligatures:normal;font-variant-caps:normal;font-variant-numeric:normal;text-align:start;letter-spacing:0px;word-spacing:0px;writing-mode:lr-tb;text-anchor:start;fill:#ffffff;fill-opacity:1;stroke:none;stroke-width:0.06751537"
       x="22.03776"
       y="17.360636"
       id="text891"><tspan
         sodipodi:role="line"
         x="22.03776"
         y="17.360636"
         style="font-style:normal;font-variant:normal;font-weight:normal;font-stretch:normal;font-size:12.96295261px;font-family:'Kaiti SC';-inkscape-font-specification:'Kaiti SC';fill:#ffffff;fill-opacity:1;stroke-width:0.06751537"
         id="tspan893">小</tspan></text>
    <text
       id="text899"
       y="28.438528"
       x="22.876806"
       style="font-style:normal;font-variant:normal;font-weight:normal;font-stretch:normal;font-size:2.51597857px;line-height:1.25;font-family:'Futura Std';-inkscape-font-specification:'Futura Std, weight=650';font-variant-ligatures:normal;font-variant-caps:normal;font-variant-numeric:normal;text-align:start;letter-spacing:0px;word-spacing:0px;writing-mode:lr-tb;text-anchor:start;fill:#ffffff;fill-opacity:1;stroke:none;stroke-width:0.06289946"
       xml:space="preserve"><tspan
         id="tspan897"
         style="font-style:normal;font-variant:normal;font-weight:normal;font-stretch:normal;font-size:12.0766964px;font-family:'Kaiti SC';-inkscape-font-specification:'Kaiti SC';fill:#ffffff;fill-opacity:1;stroke-width:0.06289946"
         y="28.438528"
         x="22.876806"
         sodipodi:role="line">驹</tspan></text>
    <g
       transform="matrix(0.77665138,0,0,0.77665138,23.219283,-14.661591)"
       id="g927"
       style="font-style:normal;font-variant:normal;font-weight:normal;font-stretch:normal;font-size:2.11666679px;line-height:1.25;font-family:'Futura Std';-inkscape-font-specification:'Futura Std, weight=650';font-variant-ligatures:normal;font-variant-caps:normal;font-variant-numeric:normal;text-align:start;letter-spacing:0px;word-spacing:0px;writing-mode:lr-tb;text-anchor:start;display:inline;fill:#e7e7e7;fill-opacity:1;stroke:none;stroke-width:0.05291667"
       aria-label="xiaoju.io">
      <path
         inkscape:connector-curvature="0"
         id="path909"
         style="font-style:normal;font-variant:normal;font-weight:normal;font-stretch:normal;font-size:3.95111132px;font-family:Menlo;-inkscape-font-specification:Menlo;fill:#e7e7e7;fill-opacity:1;stroke-width:0.05291667"
         d="m 2.1906375,59.267554 -0.7736307,1.03408 0.8488716,1.126684 H 1.8549474 L 1.2221522,60.562083 0.59128629,61.428318 H 0.18035528 L 1.0292269,60.301634 0.25559617,59.267554 H 0.6491639 l 0.5729883,0.781348 0.5691298,-0.781348 z" />
      <path
         inkscape:connector-curvature="0"
         id="path911"
         style="font-style:normal;font-variant:normal;font-weight:normal;font-stretch:normal;font-size:3.95111132px;font-family:Menlo;-inkscape-font-specification:Menlo;fill:#e7e7e7;fill-opacity:1;stroke-width:0.05291667"
         d="m 3.0202165,59.275271 h 0.9086784 v 1.877164 h 0.7041776 v 0.275883 H 2.8697347 V 61.152435 H 3.5739123 V 59.551154 H 3.0202165 Z m 0.5536958,-0.839225 h 0.3549826 v 0.447587 H 3.5739123 Z" />
      <path
         inkscape:connector-curvature="0"
         id="path913"
         style="font-style:normal;font-variant:normal;font-weight:normal;font-stretch:normal;font-size:3.95111132px;font-family:Menlo;-inkscape-font-specification:Menlo;fill:#e7e7e7;fill-opacity:1;stroke-width:0.05291667"
         d="M 6.1417487,60.342148 H 6.0240643 q -0.3106099,0 -0.4688087,0.109968 -0.1562695,0.108038 -0.1562695,0.324114 0,0.194855 0.1176845,0.302893 0.1176844,0.108038 0.3260438,0.108038 0.2932466,0 0.4610916,-0.202571 0.1678451,-0.204501 0.1697743,-0.563342 v -0.0791 z m 0.6887435,-0.146623 v 1.232793 H 6.4735803 v -0.320256 q -0.1138259,0.192925 -0.2874587,0.285529 -0.1717036,0.09067 -0.4186481,0.09067 -0.3299023,0 -0.5266862,-0.185208 -0.1967839,-0.187138 -0.1967839,-0.499677 0,-0.36077 0.2411567,-0.547908 0.243086,-0.187137 0.7118946,-0.187137 h 0.4765256 v -0.05595 q -0.00193,-0.25852 -0.1311892,-0.374275 -0.12926,-0.117684 -0.4128603,-0.117684 -0.1813498,0 -0.3665581,0.05209 -0.1852084,0.05209 -0.3607705,0.152411 V 59.36594 q 0.1967839,-0.07524 0.3762045,-0.111897 0.1813498,-0.03859 0.3511241,-0.03859 0.2681663,0 0.4572331,0.0791 0.1909961,0.0791 0.3086806,0.237298 0.073312,0.09646 0.1041797,0.239227 0.030868,0.140836 0.030868,0.424436 z" />
      <path
         inkscape:connector-curvature="0"
         id="path915"
         style="font-style:normal;font-variant:normal;font-weight:normal;font-stretch:normal;font-size:3.95111132px;font-family:Menlo;-inkscape-font-specification:Menlo;fill:#e7e7e7;fill-opacity:1;stroke-width:0.05291667"
         d="m 8.352673,59.516428 q -0.2700955,0 -0.4090017,0.210288 -0.1389063,0.210289 -0.1389063,0.623149 0,0.410931 0.1389063,0.623149 0.1389062,0.210289 0.4090017,0.210289 0.2720248,0 0.410931,-0.210289 0.1389063,-0.212218 0.1389063,-0.623149 0,-0.41286 -0.1389063,-0.623149 -0.1389062,-0.210288 -0.410931,-0.210288 z m 0,-0.300964 q 0.4495161,0 0.6868143,0.291317 0.2392274,0.291318 0.2392274,0.843084 0,0.553696 -0.2372981,0.845013 -0.2372982,0.289388 -0.6887436,0.289388 -0.4495161,0 -0.6868142,-0.289388 -0.2372982,-0.291317 -0.2372982,-0.845013 0,-0.551766 0.2372982,-0.843084 0.2372981,-0.291317 0.6868142,-0.291317 z" />
      <path
         inkscape:connector-curvature="0"
         id="path917"
         style="font-style:normal;font-variant:normal;font-weight:normal;font-stretch:normal;font-size:3.95111132px;font-family:Menlo;-inkscape-font-specification:Menlo;fill:#e7e7e7;fill-opacity:1;stroke-width:0.05291667"
         d="m 10.698646,61.466903 v -1.923466 h -0.611574 v -0.275883 h 0.966556 v 2.199349 q 0,0.376205 -0.173633,0.578776 -0.171703,0.204501 -0.49003,0.204501 H 9.8999346 V 61.949216 H 10.35138 q 0.173633,0 0.260449,-0.121542 0.08682,-0.119614 0.08682,-0.360771 z m 0,-3.040504 h 0.354982 v 0.449517 h -0.354982 z" />
      <path
         inkscape:connector-curvature="0"
         id="path919"
         style="font-style:normal;font-variant:normal;font-weight:normal;font-stretch:normal;font-size:3.95111132px;font-family:Menlo;-inkscape-font-specification:Menlo;fill:#e7e7e7;fill-opacity:1;stroke-width:0.05291667"
         d="m 12.294138,60.610315 v -1.338902 h 0.354983 v 1.338902 q 0,0.291317 0.102251,0.428294 0.104179,0.136977 0.320256,0.136977 0.250803,0 0.383921,-0.175562 0.133119,-0.177492 0.133119,-0.507394 v -1.221217 h 0.356912 v 2.156905 h -0.356912 v -0.324115 q -0.09453,0.187138 -0.25852,0.283601 -0.162058,0.09646 -0.380063,0.09646 -0.331832,0 -0.493889,-0.216076 -0.162058,-0.218006 -0.162058,-0.657875 z" />
    </g>
    <g
       aria-label="xiaoju.io"
       style="font-style:normal;font-variant:normal;font-weight:normal;font-stretch:normal;font-size:2.11666679px;line-height:1.25;font-family:'Futura Std';-inkscape-font-specification:'Futura Std, weight=650';font-variant-ligatures:normal;font-variant-caps:normal;font-variant-numeric:normal;text-align:start;letter-spacing:0px;word-spacing:0px;writing-mode:lr-tb;text-anchor:start;display:inline;fill:#e7e7e7;fill-opacity:1;stroke:none;stroke-width:0.05291667"
       id="g947"
       transform="matrix(0.77665138,0,0,0.77665138,14.132119,-10.960782)">
      <path
         d="m 15.045253,60.6489 h 0.679098 v 0.779418 h -0.679098 z"
         style="font-style:normal;font-variant:normal;font-weight:normal;font-stretch:normal;font-size:3.95111132px;font-family:Menlo;-inkscape-font-specification:Menlo;fill:#e7e7e7;fill-opacity:1;stroke-width:0.05291667"
         id="path941"
         inkscape:connector-curvature="0" />
      <path
         d="m 17.281258,59.275271 h 0.908679 v 1.877164 h 0.704177 v 0.275883 h -1.763337 v -0.275883 h 0.704177 v -1.601281 h -0.553696 z m 0.553696,-0.839225 h 0.354983 v 0.447587 h -0.354983 z"
         style="font-style:normal;font-variant:normal;font-weight:normal;font-stretch:normal;font-size:3.95111132px;font-family:Menlo;-inkscape-font-specification:Menlo;fill:#e7e7e7;fill-opacity:1;stroke-width:0.05291667"
         id="path943"
         inkscape:connector-curvature="0" />
      <path
         d="m 20.236875,59.516428 q -0.270095,0 -0.409002,0.210288 -0.138906,0.210289 -0.138906,0.623149 0,0.410931 0.138906,0.623149 0.138907,0.210289 0.409002,0.210289 0.272025,0 0.410931,-0.210289 0.138906,-0.212218 0.138906,-0.623149 0,-0.41286 -0.138906,-0.623149 -0.138906,-0.210288 -0.410931,-0.210288 z m 0,-0.300964 q 0.449516,0 0.686814,0.291317 0.239228,0.291318 0.239228,0.843084 0,0.553696 -0.237298,0.845013 -0.237299,0.289388 -0.688744,0.289388 -0.449516,0 -0.686814,-0.289388 -0.237298,-0.291317 -0.237298,-0.845013 0,-0.551766 0.237298,-0.843084 0.237298,-0.291317 0.686814,-0.291317 z"
         style="font-style:normal;font-variant:normal;font-weight:normal;font-stretch:normal;font-size:3.95111132px;font-family:Menlo;-inkscape-font-specification:Menlo;fill:#e7e7e7;fill-opacity:1;stroke-width:0.05291667"
         id="path945"
         inkscape:connector-curvature="0" />
    </g>
  </g>
</svg>
