<?xml version="1.0" encoding="UTF-8" standalone="no"?>
<!-- Created with Inkscape (http://www.inkscape.org/) -->

<svg
   xmlns:dc="http://purl.org/dc/elements/1.1/"
   xmlns:cc="http://creativecommons.org/ns#"
   xmlns:rdf="http://www.w3.org/1999/02/22-rdf-syntax-ns#"
   xmlns:svg="http://www.w3.org/2000/svg"
   xmlns="http://www.w3.org/2000/svg"
   xmlns:sodipodi="http://sodipodi.sourceforge.net/DTD/sodipodi-0.dtd"
   xmlns:inkscape="http://www.inkscape.org/namespaces/inkscape"
   width="40mm"
   height="92.345467mm"
   viewBox="0 0 40 92.345467"
   version="1.1"
   id="svg822"
   inkscape:version="0.92.2 5c3e80d, 2017-08-06"
   sodipodi:docname="name_vertical.svg">
  <defs
     id="defs816" />
  <sodipodi:namedview
     id="base"
     pagecolor="#bfee90"
     bordercolor="#666666"
     borderopacity="1.0"
     inkscape:pageopacity="0"
     inkscape:pageshadow="2"
     inkscape:zoom="0.98994949"
     inkscape:cx="-69.415887"
     inkscape:cy="186.70946"
     inkscape:document-units="mm"
     inkscape:current-layer="layer1"
     showgrid="false"
     showguides="true"
     inkscape:guide-bbox="true"
     fit-margin-top="0"
     fit-margin-left="0"
     fit-margin-right="0"
     fit-margin-bottom="0"
     inkscape:window-width="1280"
     inkscape:window-height="751"
     inkscape:window-x="0"
     inkscape:window-y="1"
     inkscape:window-maximized="1" />
  <metadata
     id="metadata819">
    <rdf:RDF>
      <cc:Work
         rdf:about="">
        <dc:format>image/svg+xml</dc:format>
        <dc:type
           rdf:resource="http://purl.org/dc/dcmitype/StillImage" />
        <dc:title></dc:title>
      </cc:Work>
    </rdf:RDF>
  </metadata>
  <g
     inkscape:label="Layer 1"
     inkscape:groupmode="layer"
     id="layer1"
     transform="translate(-29.970142,-71.981487)">
    <g
       aria-label="小"
       style="font-style:normal;font-variant:normal;font-weight:normal;font-stretch:normal;font-size:10.58333302px;line-height:1.25;font-family:'Futura Std';-inkscape-font-specification:'Futura Std, weight=650';font-variant-ligatures:normal;font-variant-caps:normal;font-variant-numeric:normal;text-align:start;letter-spacing:0px;word-spacing:0px;writing-mode:lr-tb;text-anchor:start;fill:#ffffff;fill-opacity:1;stroke:none;stroke-width:0.26458332"
       id="text826"
       transform="matrix(1.918384,0,0,1.918384,-49.868478,-104.21032)">
      <path
         d="m 53.423151,94.416193 q -0.127,0.254 -0.2286,0.5842 -0.1016,0.3302 -0.1778,0.9144 -0.0762,0.5842 -0.127,1.4986 -0.0254,0.889 -0.0254,2.2606 0,1.346197 0.0254,3.251197 0.0508,1.905 0.127,4.4704 0.0508,1.4224 -0.2286,2.4384 -0.254,1.016 -0.8382,1.905 -0.4318,0.6604 -0.9906,0.6096 -0.5334,-0.0508 -0.8382,-0.8128 -0.127,-0.3556 -0.6858,-1.0414 -0.5334,-0.6858 -1.6256,-1.7526 -0.6858,-0.6604 -0.5588,-0.8636 0.127,-0.2032 1.0668,0.1016 0.762,0.254 1.2192,0.381 0.4572,0.1016 0.6858,0.1016 0.2286,0 0.3048,-0.0762 0.0762,-0.1016 0.1016,-0.254 0.1524,-1.1938 0.2286,-2.8702 0.0762,-1.7018 0.1016,-3.4544 0.0254,-1.7526 -0.0254,-3.327397 -0.0254,-1.6002 -0.1016,-2.6162 -0.0762,-0.9906 -0.254,-1.6002 -0.1778,-0.6096 -0.5334,-1.1176 -0.3302,-0.4572 -0.381,-0.762 -0.0508,-0.3302 0.1778,-0.4572 0.254,-0.1524 0.7874,-0.0254 0.5588,0.1016 1.4224,0.5334 0.6604,0.3302 1.016,0.5588 0.3556,0.2286 0.4826,0.4572 0.1524,0.2032 0.1016,0.4318 -0.0508,0.2286 -0.2286,0.5334 z m 8.2296,8.940797 q 0.1016,1.143 -0.1016,1.778 -0.1778,0.635 -0.5588,0.7112 -0.381,0.0762 -0.9144,-0.4064 -0.5334,-0.4826 -1.0922,-1.6002 -0.127,-0.2032 -0.381,-0.6096 -0.254,-0.4064 -0.6096,-0.9144 -0.3302,-0.5334 -0.762,-1.143 -0.4064,-0.6096 -0.8636,-1.219197 -0.6096,-0.8382 -0.4572,-1.016 0.1778,-0.2032 1.143,0.1778 2.3876,0.939797 3.429,2.031997 1.0668,1.0668 1.1684,2.2098 z m -15.6464,-3.505197 q 0.508,1.371597 0.1524,3.047997 -0.3556,1.651 -1.905,3.3782 -0.5842,0.6604 -1.1176,0.508 -0.5334,-0.1524 -0.6604,-1.1176 -0.0508,-0.4064 -0.0762,-0.7112 0,-0.3048 0.0762,-0.5842 0.1016,-0.2794 0.3048,-0.5588 0.2032,-0.3048 0.5588,-0.6604 0.2286,-0.254 0.4826,-0.6604 0.254,-0.4318 0.4572,-0.889 0.2286,-0.4572 0.381,-0.889 0.1524,-0.4572 0.2032,-0.761997 0.127,-0.8636 0.4826,-0.889 0.3556,-0.0508 0.6604,0.7874 z"
         style="font-style:normal;font-variant:normal;font-weight:normal;font-stretch:normal;font-size:25.39999962px;font-family:'Kaiti SC';-inkscape-font-specification:'Kaiti SC';stroke-width:0.26458332;fill:#ffffff"
         id="path840"
         inkscape:connector-curvature="0" />
    </g>
    <g
       aria-label="xiaoju.io"
       style="font-style:normal;font-variant:normal;font-weight:normal;font-stretch:normal;font-size:10.58333302px;line-height:1.25;font-family:'Futura Std';-inkscape-font-specification:'Futura Std, weight=650';font-variant-ligatures:normal;font-variant-caps:normal;font-variant-numeric:normal;text-align:start;letter-spacing:0px;word-spacing:0px;writing-mode:lr-tb;text-anchor:start;fill:#ffffff;fill-opacity:1;stroke:none;stroke-width:0.26458332"
       id="text830"
       transform="matrix(0.44481388,0,0,0.44481388,17.771211,88.318853)">
      <path
         d="m 36.040293,158.09351 -3.31556,4.43177 3.638021,4.82865 h -1.761133 l -2.711979,-3.71244 -2.70371,3.71244 h -1.761133 l 3.63802,-4.82865 -3.315559,-4.43177 h 1.686718 l 2.455664,3.34863 2.439128,-3.34863 z"
         style="font-style:normal;font-variant:normal;font-weight:normal;font-stretch:normal;font-size:16.93333244px;font-family:Menlo;-inkscape-font-specification:Menlo;stroke-width:0.26458332;fill:#ffffff"
         id="path846"
         inkscape:connector-curvature="0" />
      <path
         d="m 39.595631,158.12658 h 3.894336 v 8.04499 h 3.017904 v 1.18236 h -7.557162 v -1.18236 h 3.017904 v -6.86263 h -2.372982 z m 2.372982,-3.59668 h 1.521354 v 1.91823 h -1.521354 z"
         style="font-style:normal;font-variant:normal;font-weight:normal;font-stretch:normal;font-size:16.93333244px;font-family:Menlo;-inkscape-font-specification:Menlo;stroke-width:0.26458332;fill:#ffffff"
         id="path848"
         inkscape:connector-curvature="0" />
      <path
         d="m 52.973625,162.69891 h -0.504362 q -1.331185,0 -2.009179,0.47129 -0.669727,0.46302 -0.669727,1.38907 0,0.83509 0.504362,1.29811 0.504362,0.46302 1.397331,0.46302 1.256771,0 1.976106,-0.86816 0.719336,-0.87644 0.727605,-2.41433 v -0.339 z m 2.951758,-0.62838 v 5.2834 h -1.529622 v -1.37253 q -0.487826,0.82682 -1.231966,1.2237 -0.735873,0.38861 -1.794206,0.38861 -1.413867,0 -2.257227,-0.79375 -0.843359,-0.80202 -0.843359,-2.14147 0,-1.54616 1.033529,-2.34818 1.041797,-0.80202 3.050976,-0.80202 h 2.042253 v -0.23978 q -0.0083,-1.10794 -0.56224,-1.60404 -0.553971,-0.50436 -1.769401,-0.50436 -0.777213,0 -1.570963,0.22325 -0.79375,0.22324 -1.546159,0.65319 v -1.52136 q 0.843359,-0.32246 1.612304,-0.47956 0.777214,-0.16536 1.504818,-0.16536 1.149284,0 1.95957,0.339 0.818555,0.33899 1.322917,1.01699 0.314193,0.41341 0.446484,1.02526 0.132292,0.60358 0.132292,1.81901 z"
         style="font-style:normal;font-variant:normal;font-weight:normal;font-stretch:normal;font-size:16.93333244px;font-family:Menlo;-inkscape-font-specification:Menlo;stroke-width:0.26458332;fill:#ffffff"
         id="path850"
         inkscape:connector-curvature="0" />
      <path
         d="m 62.449014,159.16011 q -1.157552,0 -1.752864,0.90124 -0.595313,0.90124 -0.595313,2.67064 0,1.76113 0.595313,2.67064 0.595312,0.90123 1.752864,0.90123 1.165821,0 1.761133,-0.90123 0.595312,-0.90951 0.595312,-2.67064 0,-1.7694 -0.595312,-2.67064 -0.595312,-0.90124 -1.761133,-0.90124 z m 0,-1.28984 q 1.926498,0 2.94349,1.2485 1.02526,1.2485 1.02526,3.61322 0,2.37298 -1.016992,3.62148 -1.016992,1.24024 -2.951758,1.24024 -1.926497,0 -2.943489,-1.24024 -1.016992,-1.2485 -1.016992,-3.62148 0,-2.36472 1.016992,-3.61322 1.016992,-1.2485 2.943489,-1.2485 z"
         style="font-style:normal;font-variant:normal;font-weight:normal;font-stretch:normal;font-size:16.93333244px;font-family:Menlo;-inkscape-font-specification:Menlo;stroke-width:0.26458332;fill:#ffffff"
         id="path852"
         inkscape:connector-curvature="0" />
      <path
         d="m 72.503181,167.51929 v -8.24342 h -2.621028 v -1.18236 h 4.142382 v 9.42578 q 0,1.61231 -0.74414,2.48047 -0.735873,0.87643 -2.10013,0.87643 h -2.10013 v -1.28984 H 71.0149 q 0.744141,0 1.116211,-0.5209 0.37207,-0.51263 0.37207,-1.54616 z m 0,-13.03073 h 1.521354 v 1.9265 h -1.521354 z"
         style="font-style:normal;font-variant:normal;font-weight:normal;font-stretch:normal;font-size:16.93333244px;font-family:Menlo;-inkscape-font-specification:Menlo;stroke-width:0.26458332;fill:#ffffff"
         id="path854"
         inkscape:connector-curvature="0" />
      <path
         d="m 79.341007,163.8482 v -5.73815 h 1.521354 v 5.73815 q 0,1.2485 0.438216,1.83555 0.446485,0.58704 1.372526,0.58704 1.07487,0 1.645378,-0.75241 0.570508,-0.76068 0.570508,-2.17454 v -5.23379 h 1.529622 v 9.24388 h -1.529622 v -1.38906 q -0.405144,0.80201 -1.107943,1.21542 -0.694531,0.41342 -1.628841,0.41342 -1.422135,0 -2.116667,-0.92605 -0.694531,-0.93431 -0.694531,-2.81946 z"
         style="font-style:normal;font-variant:normal;font-weight:normal;font-stretch:normal;font-size:16.93333244px;font-family:Menlo;-inkscape-font-specification:Menlo;stroke-width:0.26458332;fill:#ffffff"
         id="path856"
         inkscape:connector-curvature="0" />
      <path
         d="m 91.131498,164.01356 h 2.910417 v 3.34037 h -2.910417 z"
         style="font-style:normal;font-variant:normal;font-weight:normal;font-stretch:normal;font-size:16.93333244px;font-family:Menlo;-inkscape-font-specification:Menlo;stroke-width:0.26458332;fill:#ffffff"
         id="path858"
         inkscape:connector-curvature="0" />
      <path
         d="m 100.71438,158.12658 h 3.89434 v 8.04499 h 3.0179 v 1.18236 h -7.55716 v -1.18236 h 3.0179 v -6.86263 h -2.37298 z m 2.37298,-3.59668 h 1.52136 v 1.91823 h -1.52136 z"
         style="font-style:normal;font-variant:normal;font-weight:normal;font-stretch:normal;font-size:16.93333244px;font-family:Menlo;-inkscape-font-specification:Menlo;stroke-width:0.26458332;fill:#ffffff"
         id="path860"
         inkscape:connector-curvature="0" />
      <path
         d="m 113.3813,159.16011 q -1.15755,0 -1.75286,0.90124 -0.59531,0.90124 -0.59531,2.67064 0,1.76113 0.59531,2.67064 0.59531,0.90123 1.75286,0.90123 1.16582,0 1.76114,-0.90123 0.59531,-0.90951 0.59531,-2.67064 0,-1.7694 -0.59531,-2.67064 -0.59532,-0.90124 -1.76114,-0.90124 z m 0,-1.28984 q 1.9265,0 2.94349,1.2485 1.02526,1.2485 1.02526,3.61322 0,2.37298 -1.01699,3.62148 -1.01699,1.24024 -2.95176,1.24024 -1.92649,0 -2.94349,-1.24024 -1.01699,-1.2485 -1.01699,-3.62148 0,-2.36472 1.01699,-3.61322 1.017,-1.2485 2.94349,-1.2485 z"
         style="font-style:normal;font-variant:normal;font-weight:normal;font-stretch:normal;font-size:16.93333244px;font-family:Menlo;-inkscape-font-specification:Menlo;stroke-width:0.26458332;fill:#ffffff"
         id="path862"
         inkscape:connector-curvature="0" />
    </g>
    <g
       aria-label="驹"
       style="font-style:normal;font-variant:normal;font-weight:normal;font-stretch:normal;font-size:10.58333302px;line-height:1.25;font-family:'Futura Std';-inkscape-font-specification:'Futura Std, weight=650';font-variant-ligatures:normal;font-variant-caps:normal;font-variant-numeric:normal;text-align:start;letter-spacing:0px;word-spacing:0px;writing-mode:lr-tb;text-anchor:start;fill:#ffffff;fill-opacity:1;stroke:none;stroke-width:0.26458332"
       id="text838"
       transform="matrix(1.7801929,0,0,1.7801929,-41.23624,-102.60192)">
      <path
         d="m 53.194551,129.67743 q -0.4318,0.4826 -0.9906,0.9144 -0.5588,0.4318 -0.9906,0.6858 -0.6858,0.4064 -0.8382,0.2794 -0.127,-0.1524 0.381,-0.762 0.5334,-0.6604 0.9398,-1.1938 0.4318,-0.5588 0.7874,-1.0922 0.3556,-0.5588 0.6858,-1.1684 0.3556,-0.6096 0.762,-1.397 1.0922,-2.1082 0.7366,-3.0988 -0.2794,-0.8128 0.0762,-0.9906 0.3556,-0.1778 1.4986,0.5334 0.6096,0.381 0.9398,0.635 0.3302,0.2286 0.4318,0.4064 0.127,0.1524 0.0508,0.3048 -0.0508,0.127 -0.2286,0.2794 -0.381,0.3556 -0.635,0.6604 -0.2286,0.2794 -0.508,0.7366 -0.4572,0.7366 -0.8128,1.2954 -0.3302,0.5334 -0.6096,0.9398 -0.2794,0.381 -0.5334,0.7112 -0.2286,0.3048 -0.4826,0.5842 1.7526,-0.2032 2.9718,-0.508 1.2446,-0.3302 1.8288,-0.6858 0.2794,-0.1524 0.4826,-0.2286 0.2032,-0.1016 0.4318,-0.0762 0.2286,0 0.508,0.127 0.2794,0.1016 0.7112,0.3302 0.7112,0.3556 1.0922,0.6096 0.381,0.254 0.508,0.4826 0.127,0.2032 0.0508,0.4064 -0.0762,0.2032 -0.3048,0.4826 -0.254,0.3048 -0.381,0.9906 -0.127,0.6604 -0.1778,2.0828 -0.0762,1.6764 -0.2032,3.0734 -0.1016,1.3716 -0.2286,2.1844 -0.1778,1.0922 -0.381,1.8796 -0.2032,0.762 -0.4826,1.3208 -0.254,0.5588 -0.5842,0.9652 -0.3302,0.4064 -0.7366,0.762 -0.6096,0.5334 -1.0414,0.4572 -0.4064,-0.0508 -0.5334,-0.5588 -0.1524,-0.5334 -0.4572,-1.0668 -0.3048,-0.5334 -1.0922,-1.4732 -0.5334,-0.635 -0.4318,-0.8382 0.1016,-0.2032 0.7874,0.0508 0.7112,0.254 1.143,0.381 0.4318,0.127 0.6604,0.1016 0.254,-0.0508 0.3556,-0.2286 0.127,-0.2032 0.254,-0.5842 0.4572,-1.3462 0.7366,-3.4544 0.2794,-2.1082 0.3302,-5.4356 0,-0.4572 -0.0508,-0.7112 -0.0508,-0.254 -0.254,-0.3556 -0.1778,-0.127 -0.5588,-0.1016 -0.381,0 -1.016,0.0762 -0.8128,0.127 -1.4986,0.2286 -0.6604,0.1016 -1.1684,0.1778 -0.5842,0.127 -0.9906,0.1016 -0.4064,-0.0254 -0.9398,-0.2286 z m -6.1214,2.5146 q -0.3048,-0.6096 -0.3302,-0.9652 0,-0.3556 0.2032,-0.8382 0.127,-0.2794 0.2286,-0.5842 0.1016,-0.3048 0.1778,-0.6858 0.0762,-0.4064 0.1524,-0.9652 0.0762,-0.5588 0.1524,-1.3208 0.0508,-0.5588 0.0508,-0.8636 0.0254,-0.3048 -0.0254,-0.4572 -0.0508,-0.1524 -0.1778,-0.1778 -0.127,-0.0254 -0.3048,-0.0254 -0.6096,0.0508 -1.1684,0.1524 -0.5334,0.0762 -1.016,0.2794 -0.5588,0.2032 -0.9906,0.1778 -0.4064,-0.0508 -1.1176,-0.508 -0.4572,-0.3048 -0.4064,-0.508 0.0762,-0.2286 0.6858,-0.2286 0.5588,0 1.143,-0.0508 0.6096,-0.0762 1.1684,-0.1778 0.5842,-0.127 1.0668,-0.2794 0.508,-0.1778 0.8382,-0.381 0.254,-0.1524 0.4318,-0.2286 0.2032,-0.0762 0.381,-0.0762 0.2032,-0.0254 0.4064,0.0508 0.2032,0.0762 0.4826,0.2286 0.5588,0.3048 0.8636,0.5588 0.3302,0.2286 0.4064,0.4318 0.1016,0.2032 0,0.381 -0.1016,0.1778 -0.3556,0.4064 -0.1778,0.1778 -0.3302,0.4064 -0.127,0.2032 -0.254,0.5842 -0.127,0.3556 -0.2286,0.9398 -0.1016,0.5588 -0.2032,1.397 -0.0508,0.4572 -0.127,0.8128 -0.0508,0.3302 -0.127,0.6604 -0.0762,0.3302 -0.2032,0.7112 -0.1016,0.3556 -0.2794,0.8382 0.127,-0.0508 0.2032,-0.0508 0.0762,-0.0254 0.127,-0.0762 0.2794,-0.1778 0.5334,-0.1524 0.2794,0.0254 0.7874,0.2794 0.5334,0.2794 0.8128,0.4826 0.3048,0.2032 0.4064,0.381 0.1016,0.1524 0.0254,0.3302 -0.0762,0.1778 -0.254,0.4064 -0.0762,0.0762 -0.127,0.254 -0.0508,0.1778 -0.127,0.5842 -0.0762,0.381 -0.1778,1.0922 -0.0762,0.6858 -0.2286,1.8288 -0.127,1.0668 -0.3048,1.8034 -0.1524,0.7366 -0.381,1.27 -0.2032,0.508 -0.4826,0.889 -0.2794,0.381 -0.6096,0.7112 -0.4318,0.4318 -0.8636,0.381 -0.4064,-0.0254 -0.5588,-0.508 -0.0762,-0.2286 -0.2286,-0.5334 -0.127,-0.2794 -0.3048,-0.5842 -0.1524,-0.2794 -0.3556,-0.5334 -0.1778,-0.2794 -0.3302,-0.4572 -1.143,-1.2192 0.4572,-0.635 0.508,0.1778 0.7874,0.254 0.3048,0.0762 0.4826,0 0.2032,-0.0762 0.3048,-0.3048 0.127,-0.254 0.2794,-0.6858 0.1524,-0.4826 0.254,-0.9652 0.127,-0.4826 0.2032,-1.0414 0.0762,-0.5588 0.127,-1.2192 0.0508,-0.6604 0.1016,-1.524 0.0254,-0.4318 -0.1524,-0.5334 -0.1778,-0.1016 -0.8382,-0.0508 -0.508,0.0508 -1.1176,0.1778 -0.6096,0.1016 -1.1938,0.2794 -0.4318,0.127 -0.7874,0.3048 -0.3302,0.1524 -0.7112,0.508 -0.2794,0.2794 -0.5334,0.2286 -0.2286,-0.0762 -0.6858,-0.6604 -0.3556,-0.4826 -0.3556,-0.6858 0.0254,-0.2286 0.4064,-0.4572 0.3302,-0.2032 0.5334,-0.889 0.2286,-0.6858 0.3048,-1.4986 0.1016,-0.8128 0.0508,-1.5494 -0.0254,-0.7366 -0.2032,-1.0414 -0.381,-0.635 -0.1524,-0.8382 0.2286,-0.2286 1.2192,0.127 0.9144,0.3048 1.0668,0.6604 0.1778,0.3556 -0.1016,0.9144 -0.254,0.5842 -0.4572,1.5748 -0.2032,0.9652 -0.4064,2.4638 0.508,-0.0762 1.143,-0.1778 0.635,-0.1016 1.2192,-0.2286 z m 6.1468,0.3556 q 0.635,-0.0762 1.1176,-0.2032 0.4826,-0.1524 0.9398,-0.4318 0.2286,-0.127 0.4064,-0.2032 0.1778,-0.0762 0.3556,-0.0762 0.1778,0 0.381,0.1016 0.2286,0.0762 0.5334,0.2286 0.508,0.2794 0.762,0.4826 0.2794,0.1778 0.3556,0.3302 0.1016,0.1524 0.0254,0.2794 -0.0508,0.127 -0.2286,0.2794 -0.4318,0.381 -0.7366,0.8636 -0.3048,0.4826 -0.5334,1.143 0.7874,0.9398 -0.0762,1.1176 -0.2032,0.0508 -0.4318,0.0762 l -0.5842,0.0762 q -0.3302,0.0254 -0.8382,0.0762 -0.508,0.0254 -1.2192,0.0508 -0.1016,0.4572 -0.2286,0.6604 -0.127,0.1778 -0.3048,0.2032 -0.2286,0.0254 -0.4572,-0.3556 -0.2032,-0.381 -0.254,-1.143 -0.0508,-1.0668 -0.2032,-1.778 -0.127,-0.7366 -0.4064,-1.397 -0.127,-0.2794 -0.127,-0.4318 0.0254,-0.1778 0.2032,-0.2286 0.1778,-0.0508 0.5334,0.0254 0.381,0.0508 1.016,0.254 z m -6.6294,4.0386 q -1.6764,0.7112 -2.5908,1.1684 -0.889,0.4572 -1.3208,0.7874 -0.2794,0.2032 -0.4826,0.3048 -0.1778,0.0762 -0.381,0.0254 -0.2032,-0.0508 -0.4826,-0.254 -0.2794,-0.2286 -0.7112,-0.635 -0.7112,-0.6858 -0.6096,-0.9398 0.127,-0.2794 0.9144,-0.254 0.4318,0 0.889,-0.0254 0.4572,-0.0508 1.0922,-0.1524 0.6604,-0.127 1.5748,-0.3556 0.9144,-0.2286 2.2352,-0.5842 0.635,-0.1778 0.9906,-0.1778 0.381,-0.0254 0.4064,0.127 0.0254,0.127 -0.3556,0.381 -0.3556,0.254 -1.1684,0.5842 z m 6.9088,-0.7874 q 0.889,-0.1016 1.27,-0.2286 0.381,-0.127 0.5842,-0.381 0.0762,-0.4318 0.127,-0.8128 0.0762,-0.4064 0.1016,-0.7874 0.0254,-0.4318 -0.1016,-0.5334 -0.127,-0.127 -0.508,-0.0254 -0.8636,0.2032 -1.4986,0.254 0.0254,0.3556 0.0254,0.9144 z"
         style="font-style:normal;font-variant:normal;font-weight:normal;font-stretch:normal;font-size:25.39999962px;font-family:'Kaiti SC';-inkscape-font-specification:'Kaiti SC';stroke-width:0.26458332;fill:#ffffff"
         id="path843"
         inkscape:connector-curvature="0" />
    </g>
  </g>
</svg>
