<?xml version="1.0" encoding="UTF-8" standalone="no"?>
<!-- Created with Inkscape (http://www.inkscape.org/) -->

<svg
   xmlns:dc="http://purl.org/dc/elements/1.1/"
   xmlns:cc="http://creativecommons.org/ns#"
   xmlns:rdf="http://www.w3.org/1999/02/22-rdf-syntax-ns#"
   xmlns:svg="http://www.w3.org/2000/svg"
   xmlns="http://www.w3.org/2000/svg"
   xmlns:sodipodi="http://sodipodi.sourceforge.net/DTD/sodipodi-0.dtd"
   xmlns:inkscape="http://www.inkscape.org/namespaces/inkscape"
   width="400.72122"
   height="310.35626"
   viewBox="0 0 21.204831 16.42302"
   version="1.1"
   id="svg68"
   inkscape:version="0.92.2 5c3e80d, 2017-08-06"
   sodipodi:docname="name_horizontal.svg">
  <defs
     id="defs62" />
  <sodipodi:namedview
     id="base"
     pagecolor="#a2a2a2"
     bordercolor="#666666"
     borderopacity="1.0"
     inkscape:pageopacity="0"
     inkscape:pageshadow="2"
     inkscape:zoom="0.9899495"
     inkscape:cx="203.31636"
     inkscape:cy="96.273441"
     inkscape:document-units="mm"
     inkscape:current-layer="layer1"
     showgrid="false"
     showguides="true"
     inkscape:guide-bbox="true"
     guidetolerance="1"
     fit-margin-top="0"
     fit-margin-left="0"
     fit-margin-right="0"
     fit-margin-bottom="0"
     inkscape:window-width="1280"
     inkscape:window-height="751"
     inkscape:window-x="0"
     inkscape:window-y="1"
     inkscape:window-maximized="1"
     scale-x="1e-05"
     inkscape:pagecheckerboard="false"
     units="px"
     objecttolerance="1"
     gridtolerance="1">
    <inkscape:grid
       type="xygrid"
       id="grid843"
       originx="0.0020927232"
       originy="0.020825408" />
    <sodipodi:guide
       position="0.42763125,20.686662"
       orientation="1,0"
       id="guide884"
       inkscape:locked="false" />
    <sodipodi:guide
       position="20.79357,18.441598"
       orientation="1,0"
       id="guide886"
       inkscape:locked="false" />
  </sodipodi:namedview>
  <metadata
     id="metadata65">
    <rdf:RDF>
      <cc:Work
         rdf:about="">
        <dc:format>image/svg+xml</dc:format>
        <dc:type
           rdf:resource="http://purl.org/dc/dcmitype/StillImage" />
        <dc:title />
      </cc:Work>
    </rdf:RDF>
  </metadata>
  <g
     inkscape:label="without tones"
     inkscape:groupmode="layer"
     id="layer1"
     transform="translate(0.00209272,-45.988295)"
     style="display:inline">
    <text
       xml:space="preserve"
       style="font-style:normal;font-variant:normal;font-weight:normal;font-stretch:normal;font-size:2.11666679px;line-height:1.25;font-family:'Futura Std';-inkscape-font-specification:'Futura Std, weight=650';font-variant-ligatures:normal;font-variant-caps:normal;font-variant-numeric:normal;text-align:start;letter-spacing:0px;word-spacing:0px;writing-mode:lr-tb;text-anchor:start;fill:#000000;fill-opacity:1;stroke:none;stroke-width:0.05291667"
       x="-25.123337"
       y="33.525379"
       id="text23"><tspan
         sodipodi:role="line"
         id="tspan21"
         x="-25.123337"
         y="35.536213"
         style="stroke-width:0.05291667" /></text>
    <g
       aria-label="小驹"
       style="font-style:normal;font-variant:normal;font-weight:normal;font-stretch:normal;font-size:2.11666679px;line-height:1.25;font-family:'Futura Std';-inkscape-font-specification:'Futura Std, weight=650';font-variant-ligatures:normal;font-variant-caps:normal;font-variant-numeric:normal;text-align:start;letter-spacing:0px;word-spacing:0px;writing-mode:lr-tb;text-anchor:start;fill:#e7e7e7;fill-opacity:1;stroke:none;stroke-width:0.05291667"
       id="text27"
       transform="matrix(1.1658905,0,0,1.1658905,-0.12673557,-7.5056318)">
      <path
         d="m 4.5163478,47.319086 q -0.0508,0.1016 -0.09144,0.23368 -0.04064,0.13208 -0.07112,0.36576 -0.03048,0.23368 -0.0508,0.59944 -0.01016,0.3556 -0.01016,0.90424 0,0.53848 0.01016,1.30048 0.02032,0.762 0.0508,1.78816 0.02032,0.56896 -0.09144,0.97536 -0.1016,0.4064 -0.33528,0.762 -0.17272,0.26416 -0.39624,0.24384 -0.21336,-0.02032 -0.33528,-0.32512 -0.0508,-0.14224 -0.27432,-0.41656 -0.21336,-0.27432 -0.65024,-0.70104 -0.27432,-0.26416 -0.22352,-0.34544 0.0508,-0.08128 0.42672,0.04064 0.3048,0.1016 0.48768,0.1524 0.18288,0.04064 0.27432,0.04064 0.09144,0 0.12192,-0.03048 0.03048,-0.04064 0.04064,-0.1016 0.06096,-0.47752 0.09144,-1.14808 0.03048,-0.68072 0.04064,-1.38176 0.01016,-0.70104 -0.01016,-1.33096 -0.01016,-0.64008 -0.04064,-1.04648 -0.03048,-0.39624 -0.1016,-0.64008 -0.07112,-0.24384 -0.21336,-0.44704 -0.13208,-0.18288 -0.1524,-0.3048 -0.02032,-0.13208 0.07112,-0.18288 0.1016,-0.06096 0.31496,-0.01016 0.22352,0.04064 0.56896,0.21336 0.26416,0.13208 0.4064,0.22352 0.14224,0.09144 0.19304,0.18288 0.06096,0.08128 0.04064,0.17272 -0.02032,0.09144 -0.09144,0.21336 z m 3.2918399,3.57632 q 0.04064,0.4572 -0.04064,0.7112 -0.07112,0.254 -0.22352,0.28448 -0.1524,0.03048 -0.36576,-0.16256 -0.21336,-0.19304 -0.4368799,-0.64008 -0.0508,-0.08128 -0.1524,-0.24384 -0.1016,-0.16256 -0.24384,-0.36576 -0.13208,-0.21336 -0.3048,-0.4572 -0.16256,-0.24384 -0.34544,-0.48768 -0.24384,-0.33528 -0.18288,-0.4064 0.07112,-0.08128 0.4572,0.07112 0.9550399,0.37592 1.3715999,0.8128 0.42672,0.42672 0.46736,0.88392 z m -6.2585599,-1.40208 q 0.2032,0.54864 0.06096,1.2192 -0.14224,0.6604 -0.76199996,1.35128 -0.23368,0.26416 -0.44703999,0.2032 -0.21336,-0.06096 -0.26416,-0.44704 -0.02032,-0.16256 -0.03048,-0.28448 0,-0.12192 0.03048,-0.23368 0.04064,-0.11176 0.12192,-0.22352 0.08128,-0.12192 0.22351999,-0.26416 0.09144,-0.1016 0.19304,-0.26416 0.1016,-0.17272 0.18288,-0.3556 0.09144,-0.18288 0.15239996,-0.3556 0.06096,-0.18288 0.08128,-0.3048 0.0508,-0.34544 0.19304,-0.3556 0.14224,-0.02032 0.26416,0.31496 z"
         style="font-style:normal;font-variant:normal;font-weight:normal;font-stretch:normal;font-size:10.15999985px;font-family:'Kaiti SC';-inkscape-font-specification:'Kaiti SC';fill:#e7e7e7;fill-opacity:1;stroke-width:0.05291667"
         id="path838"
         inkscape:connector-curvature="0" />
      <path
         d="m 14.584908,49.025966 q -0.17272,0.19304 -0.39624,0.36576 -0.22352,0.17272 -0.39624,0.27432 -0.27432,0.16256 -0.33528,0.11176 -0.0508,-0.06096 0.1524,-0.3048 0.21336,-0.26416 0.37592,-0.47752 0.17272,-0.22352 0.31496,-0.43688 0.14224,-0.22352 0.27432,-0.46736 0.14224,-0.24384 0.3048,-0.5588 0.43688,-0.84328 0.29464,-1.23952 -0.11176,-0.32512 0.03048,-0.39624 0.14224,-0.07112 0.59944,0.21336 0.24384,0.1524 0.37592,0.254 0.13208,0.09144 0.17272,0.16256 0.0508,0.06096 0.02032,0.12192 -0.02032,0.0508 -0.09144,0.11176 -0.1524,0.14224 -0.254,0.26416 -0.09144,0.11176 -0.2032,0.29464 -0.18288,0.29464 -0.32512,0.51816 -0.13208,0.21336 -0.24384,0.37592 -0.11176,0.1524 -0.21336,0.28448 -0.09144,0.12192 -0.19304,0.23368 0.70104,-0.08128 1.18872,-0.2032 0.49784,-0.13208 0.73152,-0.27432 0.11176,-0.06096 0.19304,-0.09144 0.08128,-0.04064 0.17272,-0.03048 0.09144,0 0.2032,0.0508 0.11176,0.04064 0.28448,0.13208 0.28448,0.14224 0.43688,0.24384 0.1524,0.1016 0.2032,0.19304 0.0508,0.08128 0.02032,0.16256 -0.03048,0.08128 -0.12192,0.19304 -0.1016,0.12192 -0.1524,0.39624 -0.0508,0.26416 -0.07112,0.83312 -0.03048,0.67056 -0.08128,1.22936 -0.04064,0.54864 -0.09144,0.87376 -0.07112,0.43688 -0.1524,0.75184 -0.08128,0.3048 -0.19304,0.52832 -0.1016,0.22352 -0.23368,0.38608 -0.13208,0.16256 -0.29464,0.3048 -0.24384,0.21336 -0.41656,0.18288 -0.16256,-0.02032 -0.21336,-0.22352 -0.06096,-0.21336 -0.18288,-0.42672 -0.12192,-0.21336 -0.43688,-0.58928 -0.21336,-0.254 -0.17272,-0.33528 0.04064,-0.08128 0.31496,0.02032 0.28448,0.1016 0.4572,0.1524 0.17272,0.0508 0.26416,0.04064 0.1016,-0.02032 0.14224,-0.09144 0.0508,-0.08128 0.1016,-0.23368 0.18288,-0.53848 0.29464,-1.38176 0.11176,-0.84328 0.13208,-2.17424 0,-0.18288 -0.02032,-0.28448 -0.02032,-0.1016 -0.1016,-0.14224 -0.07112,-0.0508 -0.22352,-0.04064 -0.1524,0 -0.4064,0.03048 -0.32512,0.0508 -0.59944,0.09144 -0.26416,0.04064 -0.46736,0.07112 -0.23368,0.0508 -0.39624,0.04064 -0.16256,-0.01016 -0.37592,-0.09144 z m -2.44856,1.00584 q -0.12192,-0.24384 -0.13208,-0.38608 0,-0.14224 0.08128,-0.33528 0.0508,-0.11176 0.09144,-0.23368 0.04064,-0.12192 0.07112,-0.27432 0.03048,-0.16256 0.06096,-0.38608 0.03048,-0.22352 0.06096,-0.52832 0.02032,-0.22352 0.02032,-0.34544 0.01016,-0.12192 -0.01016,-0.18288 -0.02032,-0.06096 -0.07112,-0.07112 -0.0508,-0.01016 -0.12192,-0.01016 -0.24384,0.02032 -0.46736,0.06096 -0.21336,0.03048 -0.4064,0.11176 -0.22352,0.08128 -0.39624,0.07112 -0.16256,-0.02032 -0.44704,-0.2032 -0.18288,-0.12192 -0.16256,-0.2032 0.03048,-0.09144 0.27432,-0.09144 0.22352,0 0.4572,-0.02032 0.24384,-0.03048 0.46736,-0.07112 0.23368,-0.0508 0.42672,-0.11176 0.2032,-0.07112 0.33528,-0.1524 0.1016,-0.06096 0.17272,-0.09144 0.08128,-0.03048 0.1524,-0.03048 0.08128,-0.01016 0.16256,0.02032 0.08128,0.03048 0.19304,0.09144 0.22352,0.12192 0.34544,0.22352 0.13208,0.09144 0.16256,0.17272 0.04064,0.08128 0,0.1524 -0.04064,0.07112 -0.14224,0.16256 -0.07112,0.07112 -0.13208,0.16256 -0.0508,0.08128 -0.1016,0.23368 -0.0508,0.14224 -0.09144,0.37592 -0.04064,0.22352 -0.08128,0.5588 -0.02032,0.18288 -0.0508,0.32512 -0.02032,0.13208 -0.0508,0.26416 -0.03048,0.13208 -0.08128,0.28448 -0.04064,0.14224 -0.11176,0.33528 0.0508,-0.02032 0.08128,-0.02032 0.03048,-0.01016 0.0508,-0.03048 0.11176,-0.07112 0.21336,-0.06096 0.11176,0.01016 0.31496,0.11176 0.21336,0.11176 0.32512,0.19304 0.12192,0.08128 0.16256,0.1524 0.04064,0.06096 0.01016,0.13208 -0.03048,0.07112 -0.1016,0.16256 -0.03048,0.03048 -0.0508,0.1016 -0.02032,0.07112 -0.0508,0.23368 -0.03048,0.1524 -0.07112,0.43688 -0.03048,0.27432 -0.09144,0.73152 -0.0508,0.42672 -0.12192,0.72136 -0.06096,0.29464 -0.1524,0.508 -0.08128,0.2032 -0.19304,0.3556 -0.11176,0.1524 -0.24384,0.28448 -0.17272,0.17272 -0.34544,0.1524 -0.16256,-0.01016 -0.22352,-0.2032 -0.03048,-0.09144 -0.09144,-0.21336 -0.0508,-0.11176 -0.12192,-0.23368 -0.06096,-0.11176 -0.14224,-0.21336 -0.07112,-0.11176 -0.13208,-0.18288 -0.4572,-0.48768 0.18288,-0.254 0.2032,0.07112 0.31496,0.1016 0.12192,0.03048 0.19304,0 0.08128,-0.03048 0.12192,-0.12192 0.0508,-0.1016 0.11176,-0.27432 0.06096,-0.19304 0.1016,-0.38608 0.0508,-0.19304 0.08128,-0.41656 0.03048,-0.22352 0.0508,-0.48768 0.02032,-0.26416 0.04064,-0.6096 0.01016,-0.17272 -0.06096,-0.21336 -0.07112,-0.04064 -0.33528,-0.02032 -0.2032,0.02032 -0.44704,0.07112 -0.24384,0.04064 -0.47752,0.11176 -0.17272,0.0508 -0.31496,0.12192 -0.13208,0.06096 -0.28448,0.2032 -0.11176,0.11176 -0.21336,0.09144 -0.09144,-0.03048 -0.27432,-0.26416 -0.14224,-0.19304 -0.14224,-0.27432 0.01016,-0.09144 0.16256,-0.18288 0.13208,-0.08128 0.21336,-0.3556 0.09144,-0.27432 0.12192,-0.59944 0.04064,-0.32512 0.02032,-0.61976 -0.01016,-0.29464 -0.08128,-0.41656 -0.1524,-0.254 -0.06096,-0.33528 0.09144,-0.09144 0.48768,0.0508 0.36576,0.12192 0.42672,0.26416 0.07112,0.14224 -0.04064,0.36576 -0.1016,0.23368 -0.18288,0.62992 -0.08128,0.38608 -0.16256,0.98552 0.2032,-0.03048 0.4572,-0.07112 0.254,-0.04064 0.48768,-0.09144 z m 2.45872,0.14224 q 0.254,-0.03048 0.44704,-0.08128 0.19304,-0.06096 0.37592,-0.17272 0.09144,-0.0508 0.16256,-0.08128 0.07112,-0.03048 0.14224,-0.03048 0.07112,0 0.1524,0.04064 0.09144,0.03048 0.21336,0.09144 0.2032,0.11176 0.3048,0.19304 0.11176,0.07112 0.14224,0.13208 0.04064,0.06096 0.01016,0.11176 -0.02032,0.0508 -0.09144,0.11176 -0.17272,0.1524 -0.29464,0.34544 -0.12192,0.19304 -0.21336,0.4572 0.31496,0.37592 -0.03048,0.44704 -0.08128,0.02032 -0.17272,0.03048 l -0.23368,0.03048 q -0.13208,0.01016 -0.33528,0.03048 -0.2032,0.01016 -0.48768,0.02032 -0.04064,0.18288 -0.09144,0.26416 -0.0508,0.07112 -0.12192,0.08128 -0.09144,0.01016 -0.18288,-0.14224 -0.08128,-0.1524 -0.1016,-0.4572 -0.02032,-0.42672 -0.08128,-0.7112 -0.0508,-0.29464 -0.16256,-0.5588 -0.0508,-0.11176 -0.0508,-0.17272 0.01016,-0.07112 0.08128,-0.09144 0.07112,-0.02032 0.21336,0.01016 0.1524,0.02032 0.4064,0.1016 z m -2.65176,1.61544 q -0.67056,0.28448 -1.03632,0.46736 -0.3556,0.18288 -0.52832,0.31496 -0.11176,0.08128 -0.19304,0.12192 -0.07112,0.03048 -0.1524,0.01016 -0.08128,-0.02032 -0.1930403,-0.1016 -0.11176,-0.09144 -0.28448,-0.254 -0.28448,-0.27432 -0.24384,-0.37592 0.0508,-0.11176 0.36576,-0.1016 0.17272,0 0.3556003,-0.01016 0.18288,-0.02032 0.43688,-0.06096 0.26416,-0.0508 0.62992,-0.14224 0.36576,-0.09144 0.89408,-0.23368 0.254,-0.07112 0.39624,-0.07112 0.1524,-0.01016 0.16256,0.0508 0.01016,0.0508 -0.14224,0.1524 -0.14224,0.1016 -0.46736,0.23368 z m 2.76352,-0.31496 q 0.3556,-0.04064 0.508,-0.09144 0.1524,-0.0508 0.23368,-0.1524 0.03048,-0.17272 0.0508,-0.32512 0.03048,-0.16256 0.04064,-0.31496 0.01016,-0.17272 -0.04064,-0.21336 -0.0508,-0.0508 -0.2032,-0.01016 -0.34544,0.08128 -0.59944,0.1016 0.01016,0.14224 0.01016,0.36576 z"
         style="font-style:normal;font-variant:normal;font-weight:normal;font-stretch:normal;font-size:10.15999985px;font-family:'Kaiti SC';-inkscape-font-specification:'Kaiti SC';fill:#e7e7e7;fill-opacity:1;stroke-width:0.05291667"
         id="path840"
         inkscape:connector-curvature="0" />
    </g>
    <g
       aria-label="xiaoju.io"
       style="font-style:normal;font-variant:normal;font-weight:normal;font-stretch:normal;font-size:2.11666679px;line-height:1.25;font-family:'Futura Std';-inkscape-font-specification:'Futura Std, weight=650';font-variant-ligatures:normal;font-variant-caps:normal;font-variant-numeric:normal;text-align:start;letter-spacing:0px;word-spacing:0px;writing-mode:lr-tb;text-anchor:start;fill:#e7e7e7;fill-opacity:1;stroke:none;stroke-width:0.05291667"
       id="text31"
       transform="matrix(0.97372008,0,0,0.97372008,0.2091368,1.6604189)">
      <path
         d="m 2.1906375,59.267554 -0.7736307,1.03408 0.8488716,1.126684 H 1.8549474 L 1.2221522,60.562083 0.59128629,61.428318 H 0.18035528 L 1.0292269,60.301634 0.25559617,59.267554 H 0.6491639 l 0.5729883,0.781348 0.5691298,-0.781348 z"
         style="font-style:normal;font-variant:normal;font-weight:normal;font-stretch:normal;font-size:3.95111132px;font-family:Menlo;-inkscape-font-specification:Menlo;fill:#e7e7e7;fill-opacity:1;stroke-width:0.05291667"
         id="path845"
         inkscape:connector-curvature="0" />
      <path
         d="m 3.0202165,59.275271 h 0.9086784 v 1.877164 h 0.7041776 v 0.275883 H 2.8697347 V 61.152435 H 3.5739123 V 59.551154 H 3.0202165 Z m 0.5536958,-0.839225 h 0.3549826 v 0.447587 H 3.5739123 Z"
         style="font-style:normal;font-variant:normal;font-weight:normal;font-stretch:normal;font-size:3.95111132px;font-family:Menlo;-inkscape-font-specification:Menlo;fill:#e7e7e7;fill-opacity:1;stroke-width:0.05291667"
         id="path847"
         inkscape:connector-curvature="0" />
      <path
         d="M 6.1417487,60.342148 H 6.0240643 q -0.3106099,0 -0.4688087,0.109968 -0.1562695,0.108038 -0.1562695,0.324114 0,0.194855 0.1176845,0.302893 0.1176844,0.108038 0.3260438,0.108038 0.2932466,0 0.4610916,-0.202571 0.1678451,-0.204501 0.1697743,-0.563342 v -0.0791 z m 0.6887435,-0.146623 v 1.232793 H 6.4735803 v -0.320256 q -0.1138259,0.192925 -0.2874587,0.285529 -0.1717036,0.09067 -0.4186481,0.09067 -0.3299023,0 -0.5266862,-0.185208 -0.1967839,-0.187138 -0.1967839,-0.499677 0,-0.36077 0.2411567,-0.547908 0.243086,-0.187137 0.7118946,-0.187137 h 0.4765256 v -0.05595 q -0.00193,-0.25852 -0.1311892,-0.374275 -0.12926,-0.117684 -0.4128603,-0.117684 -0.1813498,0 -0.3665581,0.05209 -0.1852084,0.05209 -0.3607705,0.152411 V 59.36594 q 0.1967839,-0.07524 0.3762045,-0.111897 0.1813498,-0.03859 0.3511241,-0.03859 0.2681663,0 0.4572331,0.0791 0.1909961,0.0791 0.3086806,0.237298 0.073312,0.09646 0.1041797,0.239227 0.030868,0.140836 0.030868,0.424436 z"
         style="font-style:normal;font-variant:normal;font-weight:normal;font-stretch:normal;font-size:3.95111132px;font-family:Menlo;-inkscape-font-specification:Menlo;fill:#e7e7e7;fill-opacity:1;stroke-width:0.05291667"
         id="path849"
         inkscape:connector-curvature="0" />
      <path
         d="m 8.352673,59.516428 q -0.2700955,0 -0.4090017,0.210288 -0.1389063,0.210289 -0.1389063,0.623149 0,0.410931 0.1389063,0.623149 0.1389062,0.210289 0.4090017,0.210289 0.2720248,0 0.410931,-0.210289 0.1389063,-0.212218 0.1389063,-0.623149 0,-0.41286 -0.1389063,-0.623149 -0.1389062,-0.210288 -0.410931,-0.210288 z m 0,-0.300964 q 0.4495161,0 0.6868143,0.291317 0.2392274,0.291318 0.2392274,0.843084 0,0.553696 -0.2372981,0.845013 -0.2372982,0.289388 -0.6887436,0.289388 -0.4495161,0 -0.6868142,-0.289388 -0.2372982,-0.291317 -0.2372982,-0.845013 0,-0.551766 0.2372982,-0.843084 0.2372981,-0.291317 0.6868142,-0.291317 z"
         style="font-style:normal;font-variant:normal;font-weight:normal;font-stretch:normal;font-size:3.95111132px;font-family:Menlo;-inkscape-font-specification:Menlo;fill:#e7e7e7;fill-opacity:1;stroke-width:0.05291667"
         id="path851"
         inkscape:connector-curvature="0" />
      <path
         d="m 10.698646,61.466903 v -1.923466 h -0.611574 v -0.275883 h 0.966556 v 2.199349 q 0,0.376205 -0.173633,0.578776 -0.171703,0.204501 -0.49003,0.204501 H 9.8999346 V 61.949216 H 10.35138 q 0.173633,0 0.260449,-0.121542 0.08682,-0.119614 0.08682,-0.360771 z m 0,-3.040504 h 0.354982 v 0.449517 h -0.354982 z"
         style="font-style:normal;font-variant:normal;font-weight:normal;font-stretch:normal;font-size:3.95111132px;font-family:Menlo;-inkscape-font-specification:Menlo;fill:#e7e7e7;fill-opacity:1;stroke-width:0.05291667"
         id="path853"
         inkscape:connector-curvature="0" />
      <path
         d="m 12.294138,60.610315 v -1.338902 h 0.354983 v 1.338902 q 0,0.291317 0.102251,0.428294 0.104179,0.136977 0.320256,0.136977 0.250803,0 0.383921,-0.175562 0.133119,-0.177492 0.133119,-0.507394 v -1.221217 h 0.356912 v 2.156905 h -0.356912 v -0.324115 q -0.09453,0.187138 -0.25852,0.283601 -0.162058,0.09646 -0.380063,0.09646 -0.331832,0 -0.493889,-0.216076 -0.162058,-0.218006 -0.162058,-0.657875 z"
         style="font-style:normal;font-variant:normal;font-weight:normal;font-stretch:normal;font-size:3.95111132px;font-family:Menlo;-inkscape-font-specification:Menlo;fill:#e7e7e7;fill-opacity:1;stroke-width:0.05291667"
         id="path855"
         inkscape:connector-curvature="0" />
      <path
         d="m 15.045253,60.6489 h 0.679098 v 0.779418 h -0.679098 z"
         style="font-style:normal;font-variant:normal;font-weight:normal;font-stretch:normal;font-size:3.95111132px;font-family:Menlo;-inkscape-font-specification:Menlo;fill:#e7e7e7;fill-opacity:1;stroke-width:0.05291667"
         id="path857"
         inkscape:connector-curvature="0" />
      <path
         d="m 17.281258,59.275271 h 0.908679 v 1.877164 h 0.704177 v 0.275883 h -1.763337 v -0.275883 h 0.704177 v -1.601281 h -0.553696 z m 0.553696,-0.839225 h 0.354983 v 0.447587 h -0.354983 z"
         style="font-style:normal;font-variant:normal;font-weight:normal;font-stretch:normal;font-size:3.95111132px;font-family:Menlo;-inkscape-font-specification:Menlo;fill:#e7e7e7;fill-opacity:1;stroke-width:0.05291667"
         id="path859"
         inkscape:connector-curvature="0" />
      <path
         d="m 20.236875,59.516428 q -0.270095,0 -0.409002,0.210288 -0.138906,0.210289 -0.138906,0.623149 0,0.410931 0.138906,0.623149 0.138907,0.210289 0.409002,0.210289 0.272025,0 0.410931,-0.210289 0.138906,-0.212218 0.138906,-0.623149 0,-0.41286 -0.138906,-0.623149 -0.138906,-0.210288 -0.410931,-0.210288 z m 0,-0.300964 q 0.449516,0 0.686814,0.291317 0.239228,0.291318 0.239228,0.843084 0,0.553696 -0.237298,0.845013 -0.237299,0.289388 -0.688744,0.289388 -0.449516,0 -0.686814,-0.289388 -0.237298,-0.291317 -0.237298,-0.845013 0,-0.551766 0.237298,-0.843084 0.237298,-0.291317 0.686814,-0.291317 z"
         style="font-style:normal;font-variant:normal;font-weight:normal;font-stretch:normal;font-size:3.95111132px;font-family:Menlo;-inkscape-font-specification:Menlo;fill:#e7e7e7;fill-opacity:1;stroke-width:0.05291667"
         id="path861"
         inkscape:connector-curvature="0" />
    </g>
  </g>
</svg>
