<?xml version="1.0" encoding="UTF-8" standalone="no"?>
<!-- Created with Inkscape (http://www.inkscape.org/) -->

<svg
   xmlns:dc="http://purl.org/dc/elements/1.1/"
   xmlns:cc="http://creativecommons.org/ns#"
   xmlns:rdf="http://www.w3.org/1999/02/22-rdf-syntax-ns#"
   xmlns:svg="http://www.w3.org/2000/svg"
   xmlns="http://www.w3.org/2000/svg"
   xmlns:sodipodi="http://sodipodi.sourceforge.net/DTD/sodipodi-0.dtd"
   xmlns:inkscape="http://www.inkscape.org/namespaces/inkscape"
   width="89.925255mm"
   height="69.866463mm"
   viewBox="0 0 89.925255 69.866463"
   version="1.1"
   id="svg68"
   inkscape:version="0.92.2 5c3e80d, 2017-08-06"
   sodipodi:docname="name-horizontal.svg">
  <defs
     id="defs62" />
  <sodipodi:namedview
     id="base"
     pagecolor="#ffffff"
     bordercolor="#666666"
     borderopacity="1.0"
     inkscape:pageopacity="0.0"
     inkscape:pageshadow="2"
     inkscape:zoom="0.98994949"
     inkscape:cx="440.4061"
     inkscape:cy="63.894945"
     inkscape:document-units="mm"
     inkscape:current-layer="layer1"
     showgrid="false"
     showguides="true"
     inkscape:guide-bbox="true"
     guidetolerance="45"
     fit-margin-top="0"
     fit-margin-left="0"
     fit-margin-right="0"
     fit-margin-bottom="0"
     inkscape:window-width="1280"
     inkscape:window-height="751"
     inkscape:window-x="0"
     inkscape:window-y="1"
     inkscape:window-maximized="1">
    <sodipodi:guide
       position="89.802563,-6.0940633"
       orientation="1,0"
       id="guide105"
       inkscape:locked="false" />
  </sodipodi:namedview>
  <metadata
     id="metadata65">
    <rdf:RDF>
      <cc:Work
         rdf:about="">
        <dc:format>image/svg+xml</dc:format>
        <dc:type
           rdf:resource="http://purl.org/dc/dcmitype/StillImage" />
        <dc:title></dc:title>
      </cc:Work>
    </rdf:RDF>
  </metadata>
  <g
     inkscape:groupmode="layer"
     id="layer5"
     inkscape:label="background"
     sodipodi:insensitive="true"
     transform="translate(0,7.4759755)">
    <rect
       style="opacity:1;fill:#5d5d5d;fill-opacity:1;stroke:none;stroke-width:0.26458332;stroke-linejoin:round;stroke-miterlimit:4;stroke-dasharray:none;stroke-opacity:1"
       id="rect937"
       width="144.32555"
       height="103.70058"
       x="-22.183371"
       y="-18.645313" />
  </g>
  <g
     inkscape:label="Layer 1"
     inkscape:groupmode="layer"
     id="layer1"
     transform="translate(0,7.4759755)">
    <g
       aria-label="小驹"
       style="font-style:normal;font-variant:normal;font-weight:normal;font-stretch:normal;font-size:10.58333302px;line-height:1.25;font-family:'Futura Std';-inkscape-font-specification:'Futura Std, weight=650';font-variant-ligatures:normal;font-variant-caps:normal;font-variant-numeric:normal;text-align:start;letter-spacing:0px;word-spacing:0px;writing-mode:lr-tb;text-anchor:start;fill:#ffffff;fill-opacity:1;stroke:none;stroke-width:0.26458332"
       id="text82"
       transform="matrix(1.0035615,0,0,1.0035615,0,-0.12648971)">
      <path
         d="m 17.252614,-0.20445963 q 0.198437,1.68671873 0.09922,27.93007763 -0.04961,1.091406 -0.644922,1.537891 -0.496094,0.446484 -1.984375,0.04961 -1.686719,-0.347266 -3.224609,-0.644922 -1.785938,-0.496094 -1.5875005,0.04961 0.049609,0.347265 1.1906255,1.041796 4.018359,2.43086 5.159374,4.01836 1.240235,1.785937 2.182813,1.736328 0.744141,0.04961 1.438672,-1.785938 0.79375,-2.282031 0.595312,-6.052343 -1.637109,-22.3242187 0.396875,-29.2695311 0.892969,-1.5378906 -1.984375,-2.7285156 -1.686718,-0.9425781 -2.728515,-0.5457031 -0.892969,0.3472656 -0.09922,1.4882812 1.091406,1.3890625 1.190625,3.17499997 z M 5.6936297,10.709603 q -2.1332031,3.323828 -4.76249989,6.250781 -0.49609375,0.496094 -0.74414062,1.438672 -0.34726562,1.389062 -0.0496094,2.33164 0.19843749,1.091407 1.53789061,0.595313 1.3890625,-0.644922 2.5796875,-2.331641 1.7859375,-2.430859 2.3316406,-4.7625 0.6449218,-1.835547 0.4464843,-3.274218 -0.1984375,-0.496094 -0.4960937,-0.694532 -0.4960937,0 -0.8433594,0.446485 z m 21.8281243,0.148828 q 3.125391,3.026172 6.746875,7.391797 0.892969,1.190625 1.785938,1.488281 0.496094,0.04961 0.942578,-0.496094 0.79375,-0.744141 0.148828,-3.323828 -0.644922,-3.026172 -9.47539,-6.8460936 -0.496094,-0.3472657 -0.644922,0.396875 -0.04961,0.7937496 0.496093,1.3890626 z"
         style="font-size:50.79999924px;fill:#ffffff;fill-opacity:1;stroke-width:0.26458332"
         id="path107"
         inkscape:connector-curvature="0" />
      <path
         d="m 55.203785,16.662728 q 1.389063,-1.240235 6.548438,-2.033985 1.389062,-0.198437 2.083593,0.297657 0.644922,0.595312 -0.843359,8.929687 -0.347266,2.579687 -1.537891,4.167187 -0.446484,0.347266 -4.365625,-0.74414 -0.79375,-0.198438 -0.74414,0.09922 -0.04961,0.297657 0.396875,0.694532 2.430859,2.579687 3.224609,4.316015 0.347266,0.942578 1.289844,0.496094 3.12539,-1.785937 3.621484,-4.911328 0.942578,-4.365625 1.5875,-9.276953 0.347266,-1.686719 1.141016,-3.175 0.595312,-0.79375 0.04961,-1.339453 -0.79375,-0.942578 -2.530078,-1.885156 -1.041797,-0.595313 -2.629297,0.248047 0,-0.04961 0.04961,-0.04961 0.79375,-1.389062 1.785937,-7.8382809 0.644922,-2.6789063 2.38125,-4.31601561 0.892969,-0.94257811 0,-1.63710939 -0.942578,-0.7937499 -3.621484,-1.9347656 -0.744141,-0.3472656 -3.373438,0.396875 -2.083593,0.4960938 -3.770312,1.0914063 -1.686719,0.4960937 -2.827734,0.74414059 -0.79375,0.0496094 -0.942579,0.34726562 -0.198437,0.29765624 0.694532,0.79374998 1.686718,0.79374999 2.728515,0.34726562 1.537891,-0.64492186 5.159375,-1.3394531 0.644922,-0.0496094 0.892969,0 0.644922,0.34726562 0.446484,2.48046869 -0.942578,7.7886718 -1.53789,9.3265628 -0.446485,1.041796 0.248047,2.133203 -1.488282,0.297656 -3.919141,0.992187 -0.942578,0.198438 -0.992188,-0.694531 0.892969,-6.5980469 1.537891,-7.9375 0.347266,-0.7937499 0.09922,-1.3890624 -0.744141,-0.9425782 -1.984375,-1.5875 -0.79375,-0.4464844 -1.289844,-0.049609 -0.347265,0.1984375 0,0.8433594 0.347266,1.0914062 0.04961,3.3734374 -0.198438,1.7859375 -0.496094,4.0183586 -0.198438,2.133203 -0.892969,3.919141 -0.347266,1.041797 0.347266,1.785937 0.942578,0.892969 1.934765,0.297657 z M 46.91902,22.81429 q -0.644922,0.04961 -0.744141,0.595313 -0.04961,0.644921 0.396875,1.041796 1.091406,0.79375 2.778125,1.686719 0.496094,0.148828 1.091406,-0.347266 1.339453,-1.091406 8.78086,-4.812109 1.041796,-0.496094 1.785937,-1.141015 0.644922,-0.347266 0.644922,-0.84336 Q 61.355348,18.696712 60.760035,18.84554 49.30027,22.863899 46.91902,22.81429 Z m 33.28789,7.838281 q -0.644922,0.148828 -4.316016,-1.240234 -0.496093,-0.198438 -0.496093,0.09922 -0.04961,0.198437 0.545703,0.694531 2.232422,2.430859 3.224609,4.167187 0.496094,1.091406 1.240234,1.041797 1.091407,0.04961 2.083594,-1.091406 3.720703,-3.125391 4.514453,-11.062891 0.644922,-5.258593 0.84336,-13.44414 0,-1.8355469 1.091406,-3.2742187 0.644922,-0.6449219 0.545703,-1.0914063 -0.04961,-0.3472656 -1.041797,-1.0417968 -1.389062,-0.9425781 -3.175,-1.4386719 -1.091406,-0.2976562 -4.911328,1.0417969 -0.198438,0 -0.297656,0.099219 -1.835547,0.4960938 -7.242969,1.9347656 0.148828,-0.2976562 0.396875,-0.5953125 1.785938,-2.6789062 3.621484,-6.6476561 0.744141,-1.8355469 1.488282,-2.8277343 0.347265,-0.5953125 0.04961,-1.190625 -0.297656,-0.5953125 -1.835547,-1.4882813 -1.389062,-0.7441406 -2.33164,-0.5953124 -0.892969,0.1984375 -0.347266,1.2402343 1.240234,1.9347656 -1.835547,9.0289061 -1.488281,3.2742187 -3.621484,6.9453124 -0.347266,0.595312 -0.446485,0.892968 -0.04961,0.496094 0.545704,0.347266 1.240234,-0.595312 3.621484,-4.0183589 1.835547,0.1984375 8.433593,-1.2402344 2.976563,-0.6449219 3.472657,-0.2480469 1.091406,2.0835938 0.396875,13.8410152 -0.595313,5.655469 -2.331641,9.177734 -0.79375,1.835547 -1.885156,1.984375 z m -7.044531,-8.929687 q 0.297656,0.04961 0.74414,-0.04961 1.785938,-0.446484 5.60586,-0.74414 0.496093,-0.04961 0.496093,-0.446485 0,-0.347265 -1.240234,-1.141015 0.79375,-3.323828 1.835547,-4.316016 0.942578,-1.091406 0,-1.736328 -0.892969,-0.496094 -2.033984,-1.289844 -0.79375,-0.446484 -1.63711,0.04961 -1.934765,1.041797 -5.308203,1.785937 -0.496094,-0.198437 -1.5875,-0.446484 -0.496094,-0.148828 -0.694531,0.09922 -0.297656,0.297656 0.04961,0.992187 1.091407,2.430859 1.785938,6.35 0.04961,1.240234 0.79375,1.984375 0.74414,1.041797 0.992187,0.297656 0.198438,-0.496093 0.198438,-1.389062 z m -0.148828,-1.389063 q -0.595313,-4.167187 -0.595313,-5.258593 0.04961,-0.148828 3.571875,-0.84336 0.942578,-0.198437 1.240234,0.198438 0.297657,0.297656 -0.79375,5.010547 -1.934765,0.496093 -3.423046,0.892968 z"
         style="font-size:50.79999924px;fill:#ffffff;fill-opacity:1;stroke-width:0.26458332"
         id="path109"
         inkscape:connector-curvature="0" />
    </g>
    <g
       aria-label="xiǎojū.io"
       style="font-style:normal;font-variant:normal;font-weight:normal;font-stretch:normal;font-size:10.58333302px;line-height:1.25;font-family:'Futura Std';-inkscape-font-specification:'Futura Std, weight=650';font-variant-ligatures:normal;font-variant-caps:normal;font-variant-numeric:normal;text-align:start;letter-spacing:0px;word-spacing:0px;writing-mode:lr-tb;text-anchor:start;fill:#ffffff;fill-opacity:1;stroke:none;stroke-width:0.26458332"
       id="text103"
       transform="translate(0,-0.52916663)">
      <path
         d="m 8.6154944,50.136972 -3.3155598,4.431771 3.6380207,4.828645 H 7.1768226 L 4.4648435,55.684954 1.7611327,59.397388 H 1.8626451e-8 L 3.6380207,54.568743 0.32246094,50.136972 H 2.0091796 l 2.4556639,3.348633 2.4391275,-3.348633 z"
         style="font-style:normal;font-variant:normal;font-weight:normal;font-stretch:normal;font-size:16.93333244px;font-family:Menlo;-inkscape-font-specification:Menlo;fill:#ffffff;fill-opacity:1;stroke-width:0.26458332"
         id="path112"
         inkscape:connector-curvature="0" />
      <path
         d="m 12.170833,50.170045 h 3.894335 v 8.044987 h 3.017904 v 1.182356 h -7.557161 v -1.182356 h 3.017903 v -6.86263 h -2.372981 z m 2.372981,-3.596679 h 1.521354 v 1.918229 h -1.521354 z"
         style="font-style:normal;font-variant:normal;font-weight:normal;font-stretch:normal;font-size:16.93333244px;font-family:Menlo;-inkscape-font-specification:Menlo;fill:#ffffff;fill-opacity:1;stroke-width:0.26458332"
         id="path114"
         inkscape:connector-curvature="0" />
      <path
         d="m 25.548826,54.742376 h -0.504361 q -1.331185,0 -2.00918,0.471289 -0.669727,0.463021 -0.669727,1.389062 0,0.835091 0.504362,1.298112 0.504362,0.463021 1.397331,0.463021 1.256771,0 1.976107,-0.868164 0.719336,-0.876432 0.727604,-2.414323 v -0.338997 z m 2.951758,-0.628386 v 5.283398 h -1.529622 v -1.372526 q -0.487826,0.826823 -1.231966,1.223698 -0.735873,0.388607 -1.794206,0.388607 -1.413867,0 -2.257226,-0.79375 -0.84336,-0.802018 -0.84336,-2.141471 0,-1.546159 1.033529,-2.348177 1.041797,-0.802018 3.050976,-0.802018 h 2.042253 v -0.239779 q -0.0083,-1.107943 -0.56224,-1.604036 -0.553971,-0.504362 -1.769401,-0.504362 -0.777213,0 -1.570963,0.223242 -0.79375,0.223242 -1.546159,0.65319 v -1.521354 q 0.843359,-0.322461 1.612305,-0.479557 0.777213,-0.165365 1.504817,-0.165365 1.149284,0 1.959571,0.338997 0.818554,0.338998 1.322916,1.016993 0.314193,0.413411 0.446484,1.02526 0.132292,0.603581 0.132292,1.81901 z M 24.234178,48.962884 22.200194,45.85403 h 1.149284 l 1.488281,2.025716 1.496549,-2.025716 h 1.149284 l -2.033984,3.108854 z"
         style="font-style:normal;font-variant:normal;font-weight:normal;font-stretch:normal;font-size:16.93333244px;font-family:Menlo;-inkscape-font-specification:Menlo;fill:#ffffff;fill-opacity:1;stroke-width:0.26458332"
         id="path116"
         inkscape:connector-curvature="0" />
      <path
         d="m 35.024215,51.203574 q -1.157552,0 -1.752864,0.901237 -0.595312,0.901237 -0.595312,2.670638 0,1.761132 0.595312,2.670637 0.595312,0.901237 1.752864,0.901237 1.165821,0 1.761133,-0.901237 0.595313,-0.909505 0.595313,-2.670637 0,-1.769401 -0.595313,-2.670638 -0.595312,-0.901237 -1.761133,-0.901237 z m 0,-1.289844 q 1.926498,0 2.94349,1.248503 1.02526,1.248502 1.02526,3.613216 0,2.372981 -1.016992,3.621484 -1.016992,1.240234 -2.951758,1.240234 -1.926497,0 -2.943489,-1.240234 -1.016992,-1.248503 -1.016992,-3.621484 0,-2.364714 1.016992,-3.613216 1.016992,-1.248503 2.943489,-1.248503 z"
         style="font-style:normal;font-variant:normal;font-weight:normal;font-stretch:normal;font-size:16.93333244px;font-family:Menlo;-inkscape-font-specification:Menlo;fill:#ffffff;fill-opacity:1;stroke-width:0.26458332"
         id="path118"
         inkscape:connector-curvature="0" />
      <path
         d="m 45.078382,59.562753 v -8.243424 h -2.621028 v -1.182357 h 4.142382 v 9.425781 q 0,1.612305 -0.74414,2.480469 -0.735872,0.876432 -2.10013,0.876432 h -2.10013 V 61.62981 h 1.934765 q 0.744141,0 1.116211,-0.520898 0.37207,-0.51263 0.37207,-1.546159 z m 0,-13.030728 h 1.521354 v 1.926497 h -1.521354 z"
         style="font-style:normal;font-variant:normal;font-weight:normal;font-stretch:normal;font-size:16.93333244px;font-family:Menlo;-inkscape-font-specification:Menlo;fill:#ffffff;fill-opacity:1;stroke-width:0.26458332"
         id="path120"
         inkscape:connector-curvature="0" />
      <path
         d="m 52.924932,46.780071 h 4.944401 v 1.223698 h -4.944401 z m -1.008724,9.111588 v -5.73815 h 1.521354 v 5.73815 q 0,1.248503 0.438217,1.835547 0.446484,0.587044 1.372526,0.587044 1.074869,0 1.645377,-0.752408 0.570508,-0.760677 0.570508,-2.174544 v -5.233789 h 1.529622 v 9.243879 H 57.46419 v -1.389062 q -0.405143,0.802018 -1.107943,1.21543 -0.694531,0.413411 -1.628841,0.413411 -1.422135,0 -2.116666,-0.926042 -0.694532,-0.934309 -0.694532,-2.819466 z"
         style="font-style:normal;font-variant:normal;font-weight:normal;font-stretch:normal;font-size:16.93333244px;font-family:Menlo;-inkscape-font-specification:Menlo;fill:#ffffff;fill-opacity:1;stroke-width:0.26458332"
         id="path122"
         inkscape:connector-curvature="0" />
      <path
         d="m 63.7067,56.057024 h 2.910416 v 3.340364 H 63.7067 Z"
         style="font-style:normal;font-variant:normal;font-weight:normal;font-stretch:normal;font-size:16.93333244px;font-family:Menlo;-inkscape-font-specification:Menlo;fill:#ffffff;fill-opacity:1;stroke-width:0.26458332"
         id="path124"
         inkscape:connector-curvature="0" />
      <path
         d="m 73.289581,50.170045 h 3.894336 v 8.044987 h 3.017903 v 1.182356 h -7.557161 v -1.182356 h 3.017904 v -6.86263 h -2.372982 z m 2.372982,-3.596679 h 1.521354 v 1.918229 h -1.521354 z"
         style="font-style:normal;font-variant:normal;font-weight:normal;font-stretch:normal;font-size:16.93333244px;font-family:Menlo;-inkscape-font-specification:Menlo;fill:#ffffff;fill-opacity:1;stroke-width:0.26458332"
         id="path126"
         inkscape:connector-curvature="0" />
      <path
         d="m 85.956505,51.203574 q -1.157552,0 -1.752865,0.901237 -0.595312,0.901237 -0.595312,2.670638 0,1.761132 0.595312,2.670637 0.595313,0.901237 1.752865,0.901237 1.16582,0 1.761132,-0.901237 0.595313,-0.909505 0.595313,-2.670637 0,-1.769401 -0.595313,-2.670638 -0.595312,-0.901237 -1.761132,-0.901237 z m 0,-1.289844 q 1.926497,0 2.943489,1.248503 1.02526,1.248502 1.02526,3.613216 0,2.372981 -1.016992,3.621484 -1.016992,1.240234 -2.951757,1.240234 -1.926498,0 -2.94349,-1.240234 -1.016992,-1.248503 -1.016992,-3.621484 0,-2.364714 1.016992,-3.613216 1.016992,-1.248503 2.94349,-1.248503 z"
         style="font-style:normal;font-variant:normal;font-weight:normal;font-stretch:normal;font-size:16.93333244px;font-family:Menlo;-inkscape-font-specification:Menlo;fill:#ffffff;fill-opacity:1;stroke-width:0.26458332"
         id="path128"
         inkscape:connector-curvature="0" />
    </g>
  </g>
</svg>
