<?xml version="1.0" encoding="UTF-8" standalone="no"?>
<!-- Created with Inkscape (http://www.inkscape.org/) -->

<svg
   xmlns:dc="http://purl.org/dc/elements/1.1/"
   xmlns:cc="http://creativecommons.org/ns#"
   xmlns:rdf="http://www.w3.org/1999/02/22-rdf-syntax-ns#"
   xmlns:svg="http://www.w3.org/2000/svg"
   xmlns="http://www.w3.org/2000/svg"
   xmlns:sodipodi="http://sodipodi.sourceforge.net/DTD/sodipodi-0.dtd"
   xmlns:inkscape="http://www.inkscape.org/namespaces/inkscape"
   width="19.287066mm"
   height="20.508356mm"
   viewBox="0 0 19.287066 20.508356"
   version="1.1"
   id="svg8"
   inkscape:version="0.92.2 5c3e80d, 2017-08-06"
   sodipodi:docname="xiao.svg">
  <defs
     id="defs2" />
  <sodipodi:namedview
     id="base"
     pagecolor="#7abc43"
     bordercolor="#666666"
     borderopacity="1.0"
     inkscape:pageopacity="0"
     inkscape:pageshadow="2"
     inkscape:zoom="3.959798"
     inkscape:cx="39.581241"
     inkscape:cy="36.109578"
     inkscape:document-units="mm"
     inkscape:current-layer="layer1"
     showgrid="false"
     fit-margin-top="0"
     fit-margin-left="0"
     fit-margin-right="0"
     fit-margin-bottom="0"
     inkscape:window-width="1280"
     inkscape:window-height="751"
     inkscape:window-x="0"
     inkscape:window-y="1"
     inkscape:window-maximized="1" />
  <metadata
     id="metadata5">
    <rdf:RDF>
      <cc:Work
         rdf:about="">
        <dc:format>image/svg+xml</dc:format>
        <dc:type
           rdf:resource="http://purl.org/dc/dcmitype/StillImage" />
        <dc:title></dc:title>
      </cc:Work>
    </rdf:RDF>
  </metadata>
  <g
     inkscape:label="Layer 1"
     inkscape:groupmode="layer"
     id="layer1"
     transform="translate(-51.759225,-54.265646)">
    <text
       xml:space="preserve"
       style="font-style:normal;font-variant:normal;font-weight:normal;font-stretch:normal;font-size:10.58333302px;line-height:1.25;font-family:'Futura Std';-inkscape-font-specification:'Futura Std, weight=650';font-variant-ligatures:normal;font-variant-caps:normal;font-variant-numeric:normal;text-align:start;letter-spacing:0px;word-spacing:0px;writing-mode:lr-tb;text-anchor:start;fill:#000000;fill-opacity:1;stroke:none;stroke-width:0.26458332"
       x="68.791664"
       y="80.797615"
       id="text12"><tspan
         sodipodi:role="line"
         id="tspan10"
         x="68.791664"
         y="90.851784"
         style="stroke-width:0.26458332" /></text>
    <g
       aria-label="å°"
       transform="scale(0.26458333)"
       style="font-style:normal;font-variant:normal;font-weight:normal;font-stretch:normal;font-size:40px;line-height:1.25;font-family:'Futura Std';-inkscape-font-specification:'Futura Std, weight=650';font-variant-ligatures:normal;font-variant-caps:normal;font-variant-numeric:normal;text-align:start;letter-spacing:0px;word-spacing:0px;writing-mode:lr-tb;text-anchor:start;fill:#ffffff;fill-opacity:1;stroke:none"
       id="flowRoot14">
      <path
         d="m 237.28942,214.82069 q -0.48,0.96 -0.864,2.208 -0.384,1.248 -0.672,3.456 -0.288,2.208 -0.48,5.664 -0.096,3.36 -0.096,8.544 0,5.088 0.096,12.288 0.192,7.2 0.48,16.896 0.192,5.376 -0.864,9.216 -0.96,3.84 -3.168,7.2 -1.632,2.496 -3.744,2.304 -2.016,-0.192 -3.168,-3.072 -0.48,-1.344 -2.592,-3.936 -2.016,-2.592 -6.144,-6.624 -2.592,-2.496 -2.112,-3.264 0.48,-0.768 4.032,0.384 2.88,0.96 4.608,1.44 1.728,0.384 2.592,0.384 0.864,0 1.152,-0.288 0.288,-0.384 0.384,-0.96 0.576,-4.512 0.864,-10.848 0.288,-6.432 0.384,-13.056 0.096,-6.624 -0.096,-12.576 -0.096,-6.048 -0.384,-9.888 -0.288,-3.744 -0.96,-6.048 -0.672,-2.304 -2.016,-4.224 -1.248,-1.728 -1.44,-2.88 -0.192,-1.248 0.672,-1.728 0.96,-0.576 2.976,-0.096 2.112,0.384 5.376,2.016 2.496,1.248 3.84,2.112 1.344,0.864 1.824,1.728 0.576,0.768 0.384,1.632 -0.192,0.864 -0.864,2.016 z m 31.104,33.792 q 0.384,4.32 -0.384,6.72 -0.672,2.4 -2.112,2.688 -1.44,0.288 -3.456,-1.536 -2.016,-1.824 -4.128,-6.048 -0.48,-0.768 -1.44,-2.304 -0.96,-1.536 -2.304,-3.456 -1.248,-2.016 -2.88,-4.32 -1.536,-2.304 -3.264,-4.608 -2.304,-3.168 -1.728,-3.84 0.672,-0.768 4.32,0.672 9.024,3.552 12.96,7.68 4.032,4.032 4.416,8.352 z m -59.136,-13.248 q 1.92,5.184 0.576,11.52 -1.344,6.24 -7.2,12.768 -2.208,2.496 -4.224,1.92 -2.016,-0.576 -2.496,-4.224 -0.192,-1.536 -0.288,-2.688 0,-1.152 0.288,-2.208 0.384,-1.056 1.152,-2.112 0.768,-1.152 2.112,-2.496 0.864,-0.96 1.824,-2.496 0.96,-1.632 1.728,-3.36 0.864,-1.728 1.44,-3.36 0.576,-1.728 0.768,-2.88 0.48,-3.264 1.824,-3.36 1.344,-0.192 2.496,2.976 z"
         style="font-style:normal;font-variant:normal;font-weight:normal;font-stretch:normal;font-size:96px;font-family:'Kaiti SC';-inkscape-font-specification:'Kaiti SC';fill:#ffffff"
         id="path22"
         inkscape:connector-curvature="0" />
    </g>
  </g>
</svg>
