<?xml version="1.0" encoding="UTF-8" standalone="no"?>
<!-- Created with Inkscape (http://www.inkscape.org/) -->

<svg
   xmlns:dc="http://purl.org/dc/elements/1.1/"
   xmlns:cc="http://creativecommons.org/ns#"
   xmlns:rdf="http://www.w3.org/1999/02/22-rdf-syntax-ns#"
   xmlns:svg="http://www.w3.org/2000/svg"
   xmlns="http://www.w3.org/2000/svg"
   xmlns:sodipodi="http://sodipodi.sourceforge.net/DTD/sodipodi-0.dtd"
   xmlns:inkscape="http://www.inkscape.org/namespaces/inkscape"
   width="92.109001"
   height="40.3125"
   viewBox="0 0 24.370507 10.666016"
   version="1.1"
   id="svg8"
   inkscape:version="0.92.2 5c3e80d, 2017-08-06"
   sodipodi:docname="xiao_ju_pinyin_and_chinese.svg">
  <defs
     id="defs2" />
  <sodipodi:namedview
     id="base"
     pagecolor="#ffffff"
     bordercolor="#666666"
     borderopacity="1.0"
     inkscape:pageopacity="0.0"
     inkscape:pageshadow="2"
     inkscape:zoom="1.979899"
     inkscape:cx="79.908572"
     inkscape:cy="103.07347"
     inkscape:document-units="mm"
     inkscape:current-layer="layer5"
     showgrid="false"
     fit-margin-top="0"
     fit-margin-left="0"
     fit-margin-right="0"
     fit-margin-bottom="0"
     inkscape:window-width="1280"
     inkscape:window-height="751"
     inkscape:window-x="0"
     inkscape:window-y="1"
     inkscape:window-maximized="1"
     units="px" />
  <metadata
     id="metadata5">
    <rdf:RDF>
      <cc:Work
         rdf:about="">
        <dc:format>image/svg+xml</dc:format>
        <dc:type
           rdf:resource="http://purl.org/dc/dcmitype/StillImage" />
        <dc:title></dc:title>
      </cc:Work>
    </rdf:RDF>
  </metadata>
  <g
     inkscape:groupmode="layer"
     id="layer5"
     inkscape:label="xiao"
     style="display:inline"
     transform="translate(-49.666442,-77.575302)">
    <g
       aria-label="xiǎo"
       style="font-style:normal;font-variant:normal;font-weight:normal;font-stretch:normal;font-size:10.58333302px;line-height:1.25;font-family:'Futura Std';-inkscape-font-specification:'Futura Std, weight=650';font-variant-ligatures:normal;font-variant-caps:normal;font-variant-numeric:normal;text-align:start;letter-spacing:0px;word-spacing:0px;writing-mode:lr-tb;text-anchor:start;fill:#000000;fill-opacity:1;stroke:none;stroke-width:0.26458332"
       id="text26">
      <path
         d="m 55.051126,80.252141 -2.072225,2.769857 2.273763,3.017904 H 54.151956 L 52.456969,83.71963 50.76715,86.039902 h -1.100708 l 2.273763,-3.017904 -2.072225,-2.769857 h 1.054199 l 1.53479,2.092896 1.524455,-2.092896 z"
         style="font-style:normal;font-variant:normal;font-weight:normal;font-stretch:normal;font-family:Menlo;-inkscape-font-specification:Menlo;stroke-width:0.26458332"
         id="path28"
         inkscape:connector-curvature="0" />
      <path
         d="m 57.273212,80.272812 h 2.43396 v 5.028117 h 1.88619 v 0.738973 h -4.723226 v -0.738973 h 1.88619 v -4.289144 h -1.483114 z m 1.483114,-2.247925 h 0.950846 v 1.198894 h -0.950846 z"
         style="font-style:normal;font-variant:normal;font-weight:normal;font-stretch:normal;font-family:Menlo;-inkscape-font-specification:Menlo;stroke-width:0.26458332"
         id="path30"
         inkscape:connector-curvature="0" />
      <path
         d="m 65.634458,83.130519 h -0.315226 q -0.83199,0 -1.255737,0.294555 -0.418579,0.289388 -0.418579,0.868164 0,0.521932 0.315226,0.81132 0.315226,0.289388 0.873332,0.289388 0.785482,0 1.235066,-0.542602 0.449585,-0.54777 0.454753,-1.508952 v -0.211873 z m 1.844849,-0.392741 v 3.302124 h -0.956014 v -0.857829 q -0.304891,0.516764 -0.769979,0.764811 -0.45992,0.242879 -1.121378,0.242879 -0.883667,0 -1.410767,-0.496093 -0.527099,-0.501262 -0.527099,-1.33842 0,-0.966349 0.645955,-1.467611 0.651123,-0.501261 1.90686,-0.501261 h 1.276408 v -0.149862 q -0.0052,-0.692464 -0.3514,-1.002522 -0.346232,-0.315227 -1.105875,-0.315227 -0.485759,0 -0.981852,0.139527 -0.496094,0.139526 -0.96635,0.408244 v -0.950847 q 0.5271,-0.201538 1.007691,-0.299723 0.485758,-0.103353 0.940511,-0.103353 0.718302,0 1.224731,0.211873 0.511597,0.211874 0.826823,0.635621 0.19637,0.258382 0.279053,0.640787 0.08268,0.377238 0.08268,1.136882 z m -2.666504,-3.219442 -1.27124,-1.943034 h 0.718302 l 0.930176,1.266073 0.935344,-1.266073 h 0.718302 l -1.27124,1.943034 z"
         style="font-style:normal;font-variant:normal;font-weight:normal;font-stretch:normal;font-family:Menlo;-inkscape-font-specification:Menlo;stroke-width:0.26458332"
         id="path32"
         inkscape:connector-curvature="0" />
      <path
         d="m 71.556578,80.918767 q -0.72347,0 -1.09554,0.563274 -0.37207,0.563273 -0.37207,1.669148 0,1.100708 0.37207,1.669149 0.37207,0.563273 1.09554,0.563273 0.728638,0 1.100708,-0.563273 0.37207,-0.568441 0.37207,-1.669149 0,-1.105875 -0.37207,-1.669148 -0.37207,-0.563274 -1.100708,-0.563274 z m 0,-0.806152 q 1.204061,0 1.839681,0.780314 0.640788,0.780314 0.640788,2.25826 0,1.483114 -0.63562,2.263428 -0.63562,0.775146 -1.844849,0.775146 -1.204061,0 -1.839681,-0.775146 -0.63562,-0.780314 -0.63562,-2.263428 0,-1.477946 0.63562,-2.25826 0.63562,-0.780314 1.839681,-0.780314 z"
         style="font-style:normal;font-variant:normal;font-weight:normal;font-stretch:normal;font-family:Menlo;-inkscape-font-specification:Menlo;stroke-width:0.26458332"
         id="path34"
         inkscape:connector-curvature="0" />
    </g>
  </g>
</svg>
