<?xml version="1.0" encoding="UTF-8" standalone="no"?>
<!-- Created with Inkscape (http://www.inkscape.org/) -->

<svg
   xmlns:dc="http://purl.org/dc/elements/1.1/"
   xmlns:cc="http://creativecommons.org/ns#"
   xmlns:rdf="http://www.w3.org/1999/02/22-rdf-syntax-ns#"
   xmlns:svg="http://www.w3.org/2000/svg"
   xmlns="http://www.w3.org/2000/svg"
   xmlns:sodipodi="http://sodipodi.sourceforge.net/DTD/sodipodi-0.dtd"
   xmlns:inkscape="http://www.inkscape.org/namespaces/inkscape"
   width="104.91281mm"
   height="19.118902mm"
   viewBox="0 0 104.91281 19.118902"
   version="1.1"
   id="svg68"
   inkscape:version="0.92.2 5c3e80d, 2017-08-06"
   sodipodi:docname="xiaoju_io.svg">
  <defs
     id="defs62" />
  <sodipodi:namedview
     id="base"
     pagecolor="#4fb043"
     bordercolor="#666666"
     borderopacity="1.0"
     inkscape:pageopacity="0"
     inkscape:pageshadow="2"
     inkscape:zoom="1.4"
     inkscape:cx="280.08632"
     inkscape:cy="-24.46877"
     inkscape:document-units="mm"
     inkscape:current-layer="layer1"
     showgrid="false"
     fit-margin-top="0"
     fit-margin-left="0"
     fit-margin-right="0"
     fit-margin-bottom="0"
     inkscape:window-width="1280"
     inkscape:window-height="751"
     inkscape:window-x="0"
     inkscape:window-y="1"
     inkscape:window-maximized="1" />
  <metadata
     id="metadata65">
    <rdf:RDF>
      <cc:Work
         rdf:about="">
        <dc:format>image/svg+xml</dc:format>
        <dc:type
           rdf:resource="http://purl.org/dc/dcmitype/StillImage" />
        <dc:title></dc:title>
      </cc:Work>
    </rdf:RDF>
  </metadata>
  <g
     inkscape:label="Layer 1"
     inkscape:groupmode="layer"
     id="layer1"
     transform="translate(-69.52478,-70.323736)">
    <g
       aria-label="xiaoju.io"
       style="font-style:normal;font-variant:normal;font-weight:normal;font-stretch:normal;font-size:10.58333302px;line-height:1.25;font-family:'Futura Std';-inkscape-font-specification:'Futura Std, weight=650';font-variant-ligatures:normal;font-variant-caps:normal;font-variant-numeric:normal;text-align:start;letter-spacing:0px;word-spacing:0px;writing-mode:lr-tb;text-anchor:start;fill:#ffffff;fill-opacity:1;stroke:none;stroke-width:0.26458332"
       id="text72">
      <path
         d="m 79.576191,74.529509 -3.868153,5.170399 4.244358,5.63342 h -2.054655 l -3.163976,-4.331174 -3.15433,4.331174 H 69.52478 l 4.244358,-5.63342 -3.868153,-5.170399 h 1.967838 l 2.864942,3.906738 2.845649,-3.906738 z"
         style="font-style:normal;font-variant:normal;font-weight:normal;font-stretch:normal;font-size:19.75555611px;font-family:Menlo;-inkscape-font-specification:Menlo;stroke-width:0.26458332;fill:#ffffff"
         id="path74"
         inkscape:connector-curvature="0" />
      <path
         d="m 83.724087,74.568094 h 4.543392 v 9.385818 h 3.520887 v 1.379416 h -8.816688 v -1.379416 h 3.520888 V 75.94751 h -2.768479 z m 2.768479,-4.196127 h 1.774913 v 2.237934 h -1.774913 z"
         style="font-style:normal;font-variant:normal;font-weight:normal;font-stretch:normal;font-size:19.75555611px;font-family:Menlo;-inkscape-font-specification:Menlo;stroke-width:0.26458332;fill:#ffffff"
         id="path76"
         inkscape:connector-curvature="0" />
      <path
         d="m 99.331748,79.90248 h -0.588422 q -1.553049,0 -2.344043,0.549837 -0.781348,0.540191 -0.781348,1.620573 0,0.974273 0.588422,1.514464 0.588423,0.540191 1.63022,0.540191 1.466232,0 2.305453,-1.012858 0.83923,-1.022505 0.84888,-2.81671 V 79.90248 Z m 3.443722,-0.733117 v 6.163965 h -1.78456 v -1.60128 q -0.56913,0.964627 -1.437298,1.427647 -0.858518,0.453375 -2.09324,0.453375 -1.649512,0 -2.633431,-0.926042 -0.983919,-0.935688 -0.983919,-2.498383 0,-1.803852 1.205783,-2.73954 1.21543,-0.935688 3.559473,-0.935688 h 2.382632 v -0.279742 q -0.01,-1.2926 -0.65595,-1.871376 -0.6463,-0.588422 -2.064301,-0.588422 -0.90675,0 -1.832791,0.260449 -0.926042,0.260449 -1.803852,0.762055 v -1.774913 q 0.983919,-0.376204 1.881022,-0.559483 0.906749,-0.192926 1.755621,-0.192926 1.340831,0 2.286161,0.395497 0.95498,0.395497 1.54341,1.186491 0.36655,0.482314 0.5209,1.196137 0.15434,0.704178 0.15434,2.122179 z"
         style="font-style:normal;font-variant:normal;font-weight:normal;font-stretch:normal;font-size:19.75555611px;font-family:Menlo;-inkscape-font-specification:Menlo;stroke-width:0.26458332;fill:#ffffff"
         id="path78"
         inkscape:connector-curvature="0" />
      <path
         d="m 110.38637,75.773877 q -1.35048,0 -2.04501,1.051443 -0.69453,1.051443 -0.69453,3.115745 0,2.054655 0.69453,3.115744 0.69453,1.051443 2.04501,1.051443 1.36013,0 2.05466,-1.051443 0.69453,-1.061089 0.69453,-3.115744 0,-2.064302 -0.69453,-3.115745 -0.69453,-1.051443 -2.05466,-1.051443 z m 0,-1.504818 q 2.24758,0 3.43407,1.456587 1.19614,1.456586 1.19614,4.215419 0,2.768478 -1.18649,4.225065 -1.18649,1.44694 -3.44372,1.44694 -2.24758,0 -3.43407,-1.44694 -1.18649,-1.456587 -1.18649,-4.225065 0,-2.758833 1.18649,-4.215419 1.18649,-1.456587 3.43407,-1.456587 z"
         style="font-style:normal;font-variant:normal;font-weight:normal;font-stretch:normal;font-size:19.75555611px;font-family:Menlo;-inkscape-font-specification:Menlo;stroke-width:0.26458332;fill:#ffffff"
         id="path80"
         inkscape:connector-curvature="0" />
      <path
         d="m 122.11623,85.526254 v -9.617329 h -3.05786 v -1.379416 h 4.83278 v 10.996745 q 0,1.881022 -0.86817,2.89388 -0.85852,1.022504 -2.45015,1.022504 h -2.45015 v -1.504817 h 2.25722 q 0.86817,0 1.30225,-0.607715 0.43408,-0.598069 0.43408,-1.803852 z m 0,-15.202518 h 1.77492 v 2.24758 h -1.77492 z"
         style="font-style:normal;font-variant:normal;font-weight:normal;font-stretch:normal;font-size:19.75555611px;font-family:Menlo;-inkscape-font-specification:Menlo;stroke-width:0.26458332;fill:#ffffff"
         id="path82"
         inkscape:connector-curvature="0" />
      <path
         d="m 130.0937,81.243311 v -6.69451 h 1.77491 v 6.69451 q 0,1.456586 0.51125,2.141471 0.5209,0.684885 1.60128,0.684885 1.25402,0 1.91961,-0.87781 0.66559,-0.887457 0.66559,-2.536969 v -6.106087 h 1.78456 v 10.784527 h -1.78456 v -1.620573 q -0.47267,0.935688 -1.2926,1.418002 -0.81029,0.482313 -1.90031,0.482313 -1.65916,0 -2.46945,-1.080382 -0.81028,-1.090028 -0.81028,-3.289377 z"
         style="font-style:normal;font-variant:normal;font-weight:normal;font-stretch:normal;font-size:19.75555611px;font-family:Menlo;-inkscape-font-specification:Menlo;stroke-width:0.26458332;fill:#ffffff"
         id="path84"
         inkscape:connector-curvature="0" />
      <path
         d="m 143.84928,81.436236 h 3.39548 v 3.897092 h -3.39548 z"
         style="font-style:normal;font-variant:normal;font-weight:normal;font-stretch:normal;font-size:19.75555611px;font-family:Menlo;-inkscape-font-specification:Menlo;stroke-width:0.26458332;fill:#ffffff"
         id="path86"
         inkscape:connector-curvature="0" />
      <path
         d="m 155.0293,74.568094 h 4.54339 v 9.385818 h 3.52089 v 1.379416 h -8.81669 v -1.379416 h 3.52089 V 75.94751 h -2.76848 z m 2.76848,-4.196127 h 1.77491 v 2.237934 h -1.77491 z"
         style="font-style:normal;font-variant:normal;font-weight:normal;font-stretch:normal;font-size:19.75555611px;font-family:Menlo;-inkscape-font-specification:Menlo;stroke-width:0.26458332;fill:#ffffff"
         id="path88"
         inkscape:connector-curvature="0" />
      <path
         d="m 169.80738,75.773877 q -1.35048,0 -2.04501,1.051443 -0.69453,1.051443 -0.69453,3.115745 0,2.054655 0.69453,3.115744 0.69453,1.051443 2.04501,1.051443 1.36012,0 2.05466,-1.051443 0.69453,-1.061089 0.69453,-3.115744 0,-2.064302 -0.69453,-3.115745 -0.69454,-1.051443 -2.05466,-1.051443 z m 0,-1.504818 q 2.24758,0 3.43407,1.456587 1.19614,1.456586 1.19614,4.215419 0,2.768478 -1.18649,4.225065 -1.18649,1.44694 -3.44372,1.44694 -2.24758,0 -3.43407,-1.44694 -1.18649,-1.456587 -1.18649,-4.225065 0,-2.758833 1.18649,-4.215419 1.18649,-1.456587 3.43407,-1.456587 z"
         style="font-style:normal;font-variant:normal;font-weight:normal;font-stretch:normal;font-size:19.75555611px;font-family:Menlo;-inkscape-font-specification:Menlo;stroke-width:0.26458332;fill:#ffffff"
         id="path90"
         inkscape:connector-curvature="0" />
    </g>
  </g>
</svg>
