<?xml version="1.0" encoding="UTF-8" standalone="no"?>
<!-- Created with Inkscape (http://www.inkscape.org/) -->

<svg
   xmlns:dc="http://purl.org/dc/elements/1.1/"
   xmlns:cc="http://creativecommons.org/ns#"
   xmlns:rdf="http://www.w3.org/1999/02/22-rdf-syntax-ns#"
   xmlns:svg="http://www.w3.org/2000/svg"
   xmlns="http://www.w3.org/2000/svg"
   xmlns:sodipodi="http://sodipodi.sourceforge.net/DTD/sodipodi-0.dtd"
   xmlns:inkscape="http://www.inkscape.org/namespaces/inkscape"
   width="19.287067mm"
   height="20.508354mm"
   viewBox="0 0 19.287068 20.508355"
   version="1.1"
   id="svg8"
   inkscape:version="0.92.2 5c3e80d, 2017-08-06"
   sodipodi:docname="xiao_chinese.svg">
  <defs
     id="defs2" />
  <sodipodi:namedview
     id="base"
     pagecolor="#ffffff"
     bordercolor="#666666"
     borderopacity="1.0"
     inkscape:pageopacity="0.0"
     inkscape:pageshadow="2"
     inkscape:zoom="1.979899"
     inkscape:cx="14.814511"
     inkscape:cy="18.587598"
     inkscape:document-units="mm"
     inkscape:current-layer="layer2"
     showgrid="false"
     fit-margin-top="0"
     fit-margin-left="0"
     fit-margin-right="0"
     fit-margin-bottom="0"
     inkscape:window-width="1280"
     inkscape:window-height="751"
     inkscape:window-x="0"
     inkscape:window-y="1"
     inkscape:window-maximized="1" />
  <metadata
     id="metadata5">
    <rdf:RDF>
      <cc:Work
         rdf:about="">
        <dc:format>image/svg+xml</dc:format>
        <dc:type
           rdf:resource="http://purl.org/dc/dcmitype/StillImage" />
        <dc:title></dc:title>
      </cc:Work>
    </rdf:RDF>
  </metadata>
  <g
     inkscape:label="background_frame"
     inkscape:groupmode="layer"
     id="layer1"
     style="display:inline"
     transform="translate(-18.780731,-66.76097)">
    <rect
       style="opacity:1;fill:#ffffff;fill-opacity:1;stroke:none;stroke-width:0.26458332;stroke-linejoin:round;stroke-miterlimit:4;stroke-dasharray:none;stroke-opacity:1"
       id="rect866"
       width="60.356667"
       height="45.095623"
       x="2.3487217"
       y="55.871532" />
  </g>
  <g
     inkscape:groupmode="layer"
     id="layer2"
     inkscape:label="chinese_xiao"
     style="display:inline"
     transform="translate(-18.780731,-66.76097)">
    <g
       aria-label="小"
       style="font-style:normal;font-variant:normal;font-weight:normal;font-stretch:normal;font-size:10.58333302px;line-height:1.25;font-family:'Kaiti SC';-inkscape-font-specification:'Kaiti SC';font-variant-ligatures:normal;font-variant-caps:normal;font-variant-numeric:normal;text-align:start;letter-spacing:0px;word-spacing:0px;writing-mode:lr-tb;text-anchor:start;fill:#000000;fill-opacity:1;stroke:none;stroke-width:0.26458332"
       id="text13"
       transform="translate(-8.7879464,16.34747)">
      <path
         d="m 38.592277,52.985827 q -0.127,0.254 -0.2286,0.5842 -0.1016,0.3302 -0.1778,0.9144 -0.0762,0.5842 -0.127,1.4986 -0.0254,0.889 -0.0254,2.2606 0,1.3462 0.0254,3.251199 0.0508,1.905 0.127,4.4704 0.0508,1.4224 -0.2286,2.4384 -0.254,1.016 -0.8382,1.905 -0.4318,0.6604 -0.9906,0.6096 -0.5334,-0.0508 -0.8382,-0.8128 -0.127,-0.3556 -0.6858,-1.0414 -0.5334,-0.6858 -1.6256,-1.7526 -0.6858,-0.6604 -0.5588,-0.8636 0.127,-0.2032 1.0668,0.1016 0.762,0.254 1.2192,0.381 0.4572,0.1016 0.6858,0.1016 0.2286,0 0.3048,-0.0762 0.0762,-0.1016 0.1016,-0.254 0.1524,-1.1938 0.2286,-2.8702 0.0762,-1.7018 0.1016,-3.454399 0.0254,-1.7526 -0.0254,-3.3274 -0.0254,-1.6002 -0.1016,-2.6162 -0.0762,-0.9906 -0.254,-1.6002 -0.1778,-0.6096 -0.5334,-1.1176 -0.3302,-0.4572 -0.381,-0.762 -0.0508,-0.3302 0.1778,-0.4572 0.254,-0.1524 0.7874,-0.0254 0.5588,0.1016 1.4224,0.5334 0.6604,0.3302 1.016,0.5588 0.3556,0.2286 0.4826,0.4572 0.1524,0.2032 0.1016,0.4318 -0.0508,0.2286 -0.2286,0.5334 z m 8.2296,8.940799 q 0.1016,1.143 -0.1016,1.778 -0.1778,0.635 -0.5588,0.7112 -0.381,0.0762 -0.9144,-0.4064 -0.5334,-0.4826 -1.0922,-1.6002 -0.127,-0.2032 -0.381,-0.6096 -0.254,-0.4064 -0.6096,-0.9144 -0.3302,-0.533399 -0.762,-1.142999 -0.4064,-0.6096 -0.8636,-1.2192 -0.6096,-0.8382 -0.4572,-1.016 0.1778,-0.2032 1.143,0.1778 2.3876,0.9398 3.429,2.032 1.0668,1.066799 1.1684,2.209799 z m -15.6464,-3.505199 q 0.508,1.3716 0.1524,3.047999 -0.3556,1.651 -1.905,3.3782 -0.5842,0.6604 -1.1176,0.508 -0.5334,-0.1524 -0.6604,-1.1176 -0.0508,-0.4064 -0.0762,-0.7112 0,-0.3048 0.0762,-0.5842 0.1016,-0.2794 0.3048,-0.5588 0.2032,-0.3048 0.5588,-0.6604 0.2286,-0.254 0.4826,-0.6604 0.254,-0.431799 0.4572,-0.888999 0.2286,-0.4572 0.381,-0.889 0.1524,-0.4572 0.2032,-0.762 0.127,-0.8636 0.4826,-0.889 0.3556,-0.0508 0.6604,0.7874 z"
         style="font-style:normal;font-variant:normal;font-weight:normal;font-stretch:normal;font-size:25.39999962px;font-family:'Kaiti SC';-inkscape-font-specification:'Kaiti SC';stroke-width:0.26458332"
         id="path832"
         inkscape:connector-curvature="0" />
    </g>
    <g
       aria-label="驹"
       style="font-style:normal;font-variant:normal;font-weight:normal;font-stretch:normal;font-size:10.58333302px;line-height:1.25;font-family:'Kaiti SC';-inkscape-font-specification:'Kaiti SC';font-variant-ligatures:normal;font-variant-caps:normal;font-variant-numeric:normal;text-align:start;letter-spacing:0px;word-spacing:0px;writing-mode:lr-tb;text-anchor:start;fill:#000000;fill-opacity:1;stroke:none;stroke-width:0.26458332"
       id="text827" />
  </g>
</svg>
