<?xml version="1.0" standalone="no"?>
<!DOCTYPE svg PUBLIC "-//W3C//DTD SVG 20010904//EN"
 "http://www.w3.org/TR/2001/REC-SVG-20010904/DTD/svg10.dtd">
<svg version="1.0" xmlns="http://www.w3.org/2000/svg"
 width="918.000000pt" height="918.000000pt" viewBox="0 0 918.000000 918.000000"
 preserveAspectRatio="xMidYMid meet">
<metadata>
Created by potrace 1.11, written by Peter Selinger 2001-2013
</metadata>
<g transform="translate(0.000000,918.000000) scale(0.100000,-0.100000)"
fill="#000000" stroke="none">
<path d="M6090 8644 c-118 -98 -153 -128 -232 -208 -46 -45 -103 -106 -128
-135 -25 -29 -60 -70 -77 -90 -18 -20 -33 -42 -33 -48 0 -7 -4 -13 -8 -13 -10
0 -103 -137 -166 -244 -171 -292 -246 -599 -193 -796 2 -8 8 -28 12 -45 10
-37 48 -99 86 -139 15 -17 27 -31 26 -32 -1 -1 -29 -5 -62 -8 -33 -4 -76 -8
-95 -11 -101 -13 -117 -16 -135 -19 -19 -3 -67 -11 -140 -22 -16 -3 -39 -8
-50 -11 -11 -4 -27 -7 -35 -8 -8 -1 -42 -8 -75 -15 -33 -7 -67 -14 -75 -15 -8
-2 -15 -4 -15 -5 0 -1 -11 -3 -24 -6 -83 -15 -501 -145 -596 -185 -16 -7 -32
-13 -35 -14 -82 -20 -629 -267 -638 -287 -2 -5 -11 -8 -21 -8 -9 0 -21 -4 -26
-9 -6 -5 -37 -23 -70 -40 -33 -18 -67 -36 -75 -41 -8 -5 -71 -42 -140 -81
-162 -94 -374 -228 -378 -240 -2 -5 -8 -9 -13 -9 -6 0 -40 -21 -77 -47 -37
-26 -81 -56 -97 -67 -17 -12 -37 -27 -45 -34 -8 -6 -40 -30 -70 -51 -30 -22
-64 -47 -75 -55 -11 -9 -33 -26 -49 -39 -71 -55 -261 -210 -266 -216 -3 -4
-18 -17 -35 -30 -28 -21 -104 -89 -248 -221 -112 -102 -353 -350 -482 -494
-76 -85 -245 -293 -310 -381 -16 -22 -31 -42 -34 -45 -4 -3 -25 -32 -47 -65
-110 -160 -153 -227 -159 -245 -4 -11 -10 -20 -15 -20 -4 0 -10 -8 -13 -17 -4
-10 -20 -40 -37 -68 -112 -184 -259 -535 -387 -928 -31 -95 -58 -179 -61 -187
-6 -18 -4 -10 -37 -130 -15 -52 -28 -102 -30 -110 -2 -8 -13 -53 -24 -100 -12
-47 -24 -100 -27 -119 -3 -18 -8 -43 -10 -55 -31 -160 -37 -222 -38 -381 0
-210 18 -295 84 -385 35 -49 58 -68 110 -92 54 -24 154 -30 223 -12 26 7 47 9
47 6 0 -3 5 -1 12 6 7 7 19 12 28 12 18 0 204 91 208 102 2 4 9 8 15 8 7 0 36
18 65 40 29 22 56 40 61 40 5 0 11 3 13 8 1 4 33 31 71 60 37 30 67 58 67 63
0 5 5 9 10 9 18 0 183 171 287 297 10 12 26 30 35 41 9 11 42 57 73 101 31 45
60 79 65 76 31 -19 46 -186 22 -240 -18 -38 -36 -80 -37 -85 -1 -6 -38 -66
-57 -93 -47 -69 -168 -187 -268 -264 -30 -24 -61 -47 -67 -53 -25 -21 -193
-120 -203 -120 -5 0 -10 -4 -10 -10 0 -5 -6 -10 -13 -10 -6 0 -33 -11 -60 -25
-26 -14 -47 -23 -47 -20 0 3 -10 0 -23 -7 -12 -7 -24 -13 -27 -13 -30 -5 -117
-65 -153 -105 -177 -197 10 -462 386 -550 79 -18 106 -23 212 -38 28 -4 138
-6 245 -6 175 0 237 3 430 19 30 2 91 7 135 10 44 4 94 8 110 10 17 3 64 7
105 11 41 3 82 7 90 9 8 2 49 6 90 10 87 9 109 11 170 19 25 4 79 11 120 16
41 6 93 12 115 15 22 2 63 8 90 11 28 4 58 7 68 8 9 0 17 3 17 6 0 3 10 6 23
6 34 1 244 34 437 69 14 3 39 7 55 10 52 10 129 24 155 29 13 3 42 8 64 12 22
3 44 8 48 10 4 3 22 7 40 9 39 6 73 13 73 15 0 1 9 3 20 5 29 4 58 10 160 34
224 54 304 74 365 91 36 11 77 21 92 24 24 4 64 15 118 34 8 3 20 6 26 7 5 2
64 20 130 41 65 20 124 39 129 40 30 7 196 68 232 84 24 11 47 20 51 20 30 0
523 225 566 258 6 5 36 22 66 38 30 16 63 37 74 46 11 10 26 18 33 18 7 0 13
3 13 8 0 4 17 16 37 27 20 11 41 25 47 30 6 6 49 39 95 74 114 87 159 130 411
390 14 14 56 62 94 106 38 44 73 82 78 83 4 2 8 8 8 13 0 5 11 22 25 37 14 16
57 71 96 123 39 52 76 101 83 110 8 9 15 20 17 25 2 5 25 41 52 81 26 39 47
76 47 82 0 6 3 11 8 11 4 0 19 21 32 48 14 26 27 49 31 52 3 3 27 48 54 100
26 52 52 102 56 110 40 75 149 363 165 435 1 6 9 36 18 67 10 31 19 70 22 85
2 15 8 48 14 73 15 76 23 135 35 255 6 60 6 316 0 366 -17 156 -26 212 -36
230 -4 9 -5 19 -2 23 21 21 164 -276 187 -387 3 -12 12 -56 21 -97 9 -41 19
-84 21 -95 26 -120 25 -528 -1 -665 -3 -13 -7 -42 -10 -63 -4 -22 -10 -50 -16
-63 -5 -14 -8 -28 -8 -32 1 -4 0 -9 -1 -12 -1 -3 -3 -12 -5 -21 -1 -9 -11 -43
-20 -75 -10 -33 -18 -63 -20 -69 -9 -42 -19 -72 -27 -81 -5 -7 -11 -21 -13
-32 -11 -59 -132 -306 -212 -432 -29 -47 -59 -94 -66 -105 -6 -11 -14 -22 -17
-25 -3 -3 -25 -32 -50 -65 -42 -57 -53 -71 -92 -117 -10 -12 -18 -25 -18 -30
0 -5 -4 -6 -10 -3 -5 3 -10 1 -10 -4 0 -13 -212 -225 -296 -296 -32 -28 -97
-80 -144 -115 -47 -35 -86 -68 -88 -72 -2 -4 -10 -8 -18 -8 -8 0 -14 -5 -14
-11 0 -5 -4 -8 -9 -5 -5 4 -11 3 -13 -2 -13 -31 -463 -288 -603 -344 -22 -9
-69 -29 -105 -46 -36 -16 -87 -38 -115 -47 -27 -10 -54 -22 -60 -26 -15 -10
-390 -135 -480 -159 -123 -33 -159 -46 -146 -54 9 -6 202 -71 236 -80 6 -2 17
-6 25 -9 42 -17 319 -93 483 -133 9 -2 25 -6 35 -8 30 -8 166 -38 192 -42 14
-2 36 -7 50 -11 28 -7 42 -9 87 -17 17 -3 58 -10 90 -16 71 -13 95 -16 154
-24 25 -4 57 -9 70 -11 13 -2 44 -7 69 -9 25 -3 59 -8 75 -11 17 -3 57 -7 90
-10 33 -2 103 -8 155 -12 122 -10 560 -10 670 0 97 8 148 14 199 22 20 3 52 8
71 11 19 3 55 9 80 14 25 6 59 12 75 15 37 7 60 13 60 15 0 1 7 3 15 5 9 1 59
15 111 30 l95 28 37 56 c50 77 97 168 97 186 0 8 3 15 8 15 5 0 50 107 58 140
0 3 4 12 7 20 6 14 42 144 53 192 13 53 25 115 29 143 3 17 7 41 10 55 3 14 7
50 10 80 4 30 8 62 10 70 17 63 26 699 12 850 -3 30 -8 91 -11 135 -3 44 -8
91 -10 105 -3 14 -7 54 -10 90 -4 36 -8 74 -10 85 -4 21 -13 87 -21 145 -3 19
-7 46 -10 59 -2 13 -7 49 -11 80 -3 31 -9 60 -11 64 -3 5 -7 25 -9 45 -2 20
-7 50 -11 67 -3 16 -8 35 -9 40 -20 100 -47 229 -56 260 -5 22 -11 47 -13 55
-2 8 -11 44 -20 80 -9 36 -18 70 -20 75 -1 6 -4 17 -7 25 -3 8 -18 58 -32 110
-15 52 -30 102 -33 110 -3 8 -7 20 -8 25 0 6 -4 17 -8 25 -6 15 -36 127 -43
165 -2 11 -6 31 -9 45 -3 14 -8 41 -11 60 -3 19 -7 40 -9 47 -18 54 -27 461
-12 593 3 36 9 88 11 115 9 88 15 134 27 198 6 34 13 76 16 92 2 17 16 84 29
150 14 66 27 132 29 148 3 15 7 38 10 52 3 14 7 37 11 53 3 15 11 54 18 87 8
33 14 67 14 75 1 8 8 44 16 80 16 70 25 121 31 160 1 14 4 27 5 30 1 3 2 8 1
13 -1 4 3 26 8 50 5 23 12 71 16 107 4 36 9 74 11 85 21 110 20 512 -2 617 -2
13 -7 43 -10 67 -2 24 -6 47 -9 51 -2 4 -7 22 -10 41 -18 104 -73 265 -147
431 -12 26 -28 47 -37 47 -115 7 -244 -1 -330 -20 -29 -6 -58 -12 -64 -13 -7
-2 -19 -6 -27 -9 -8 -3 -40 -13 -70 -22 -118 -36 -306 -140 -404 -226 -39 -34
-132 -126 -172 -171 -27 -30 -134 -184 -134 -193 0 -4 -9 -20 -21 -36 -11 -16
-17 -29 -13 -29 4 0 0 -8 -9 -17 -8 -10 -18 -30 -22 -45 -4 -15 -14 -33 -23
-40 -13 -10 -14 -10 -8 0 37 62 53 535 22 692 -3 14 -7 43 -11 65 -3 22 -11
58 -16 80 -6 22 -12 45 -13 50 -13 70 -108 295 -128 303 -4 2 -8 9 -8 15 0 13
-81 135 -120 181 -42 50 -164 169 -204 201 -45 35 -145 105 -149 104 -1 0 -27
-20 -57 -45z m66 -415 c33 -34 66 -69 75 -78 68 -69 175 -242 216 -351 34 -90
36 -94 40 -115 2 -11 8 -37 14 -58 5 -20 12 -72 14 -115 3 -42 5 -79 6 -82 4
-16 3 -90 -1 -90 -3 0 -5 -17 -6 -38 0 -40 -10 -122 -19 -162 -8 -38 -13 -63
-19 -90 -25 -115 -95 -305 -172 -465 -19 -38 -34 -75 -34 -81 0 -6 -7 -17 -15
-24 -8 -7 -15 -21 -15 -31 0 -11 -4 -19 -8 -19 -5 0 -19 -22 -32 -50 -13 -27
-26 -50 -30 -50 -24 0 -305 391 -355 495 -11 22 -22 42 -25 45 -11 11 -97 220
-105 254 -2 12 -11 50 -20 85 -14 57 -27 152 -26 189 0 17 0 80 0 95 -1 32 16
120 38 197 24 84 103 255 133 288 8 9 23 29 32 43 37 58 232 269 249 269 4 0
33 -28 65 -61z m1702 -861 c8 -18 17 -42 22 -53 14 -32 60 -166 77 -220 8 -27
20 -56 25 -62 6 -7 8 -13 4 -13 -3 0 -1 -12 5 -27 6 -16 12 -35 14 -43 2 -8 9
-35 16 -60 15 -54 13 -45 34 -147 9 -45 18 -99 20 -120 2 -21 4 -38 5 -38 6 0
4 -221 -3 -275 -16 -134 -93 -333 -170 -444 -112 -160 -328 -363 -502 -472
-16 -10 -36 -24 -43 -31 -27 -26 -47 -16 -56 28 -2 13 -16 68 -31 122 -27 101
-33 124 -41 167 -2 14 -9 45 -14 70 -15 68 -22 111 -35 205 -26 181 -26 462
-1 581 2 12 7 37 10 55 3 19 15 66 27 104 65 214 177 382 355 535 44 39 249
170 264 170 3 0 11 -15 18 -32z m-4536 -1612 c-5 -176 -50 -297 -134 -358 -15
-10 -36 -21 -45 -23 -10 -2 -25 -6 -34 -10 -10 -3 -20 -1 -24 5 -13 20 -7 84
11 125 10 22 18 42 19 45 0 3 15 26 33 52 17 26 32 51 32 57 0 6 3 11 8 11 4
0 18 18 32 40 14 22 28 40 32 40 5 0 8 5 8 10 0 6 10 26 22 45 19 28 24 31 32
18 5 -9 8 -34 8 -57z m-416 -188 c3 -144 1 -171 -17 -228 -25 -76 -61 -131
-122 -186 -50 -45 -132 -92 -143 -82 -3 4 -9 36 -11 71 -7 84 13 151 77 252
28 44 56 89 63 100 7 11 15 22 18 25 9 8 73 120 98 173 13 26 25 46 28 43 3
-2 7 -78 9 -168z m1219 -148 c0 -1 68 -6 240 -15 66 -3 138 -8 160 -10 22 -3
85 -8 140 -11 229 -13 230 -13 400 -29 33 -3 83 -8 110 -10 86 -6 168 -16 223
-27 l54 -10 -39 -18 c-57 -28 -192 -72 -203 -65 -5 3 -11 1 -15 -4 -3 -5 -13
-9 -23 -9 -9 0 -32 -2 -49 -6 -67 -13 -90 -15 -173 -22 -71 -5 -459 -8 -510
-4 -8 1 -26 1 -40 0 -23 -1 -133 4 -290 14 -239 16 -304 19 -375 19 -198 0
-392 -48 -595 -146 -312 -151 -584 -418 -740 -724 -29 -56 -54 -103 -56 -103
-3 0 -2 3 26 130 11 52 30 120 42 150 45 122 53 140 61 140 4 0 7 6 7 13 0 12
75 136 110 182 37 48 221 225 235 225 2 0 16 11 31 25 15 14 33 25 40 25 8 0
14 5 14 10 0 6 6 10 14 10 8 0 16 4 18 8 2 4 39 26 83 47 44 22 82 43 83 48 2
4 11 7 20 7 10 0 29 6 44 14 49 26 215 76 336 101 12 3 32 7 44 10 21 4 54 10
130 21 18 2 62 6 97 9 35 3 65 6 67 7 2 3 279 1 279 -2z m-1722 -215 c89 -170
108 -239 92 -328 -6 -36 -36 -97 -60 -124 -5 -6 -27 -32 -48 -57 -21 -25 -42
-46 -46 -46 -4 0 -18 19 -31 42 -34 61 -34 149 0 296 36 150 42 189 50 287 1
15 5 11 17 -15 8 -19 20 -44 26 -55z m2957 -45 c8 -1 -10 -7 -40 -14 -56 -12
-122 -42 -174 -80 -60 -43 -194 -184 -266 -281 -25 -32 -52 -67 -60 -76 -8
-10 -20 -24 -25 -31 -199 -260 -329 -406 -428 -481 -16 -12 -44 -34 -62 -49
-18 -16 -38 -28 -44 -28 -6 0 -11 -4 -11 -8 0 -5 -21 -21 -47 -36 -27 -15 -64
-36 -83 -48 -48 -29 -164 -86 -225 -110 -27 -11 -61 -25 -75 -31 -14 -6 -27
-11 -30 -12 -3 0 -31 -9 -62 -18 -32 -10 -60 -18 -63 -18 -2 0 -19 -5 -37 -10
-18 -6 -44 -12 -58 -15 -14 -3 -32 -7 -40 -9 -8 -3 -33 -7 -55 -10 -22 -4 -51
-8 -65 -11 -132 -24 -377 -21 -510 6 -30 6 -66 13 -79 16 -13 3 -32 9 -42 14
-10 6 -27 10 -37 10 -11 0 -40 10 -64 21 -23 12 -54 27 -68 33 -74 32 -157 94
-231 170 -51 53 -52 69 -9 91 23 12 129 22 153 15 4 -1 10 -3 15 -4 38 -7 71
-32 89 -69 23 -47 99 -137 116 -137 6 0 18 -6 26 -13 17 -14 91 -46 126 -53
147 -32 347 -32 540 2 17 3 41 7 55 9 38 5 163 33 190 42 8 3 30 7 49 9 18 2
39 8 47 15 8 6 14 9 14 6 0 -20 235 88 281 129 8 8 19 14 23 14 23 0 162 119
291 250 88 89 101 103 200 215 66 74 72 82 148 170 84 97 248 258 307 302 118
87 221 124 320 113z m-1854 -104 c49 -6 94 -20 125 -37 13 -7 26 -13 29 -14 5
0 78 -54 96 -70 47 -44 137 -198 149 -255 2 -8 8 -37 15 -65 28 -121 8 -268
-52 -388 -25 -50 -101 -138 -149 -172 -21 -15 -89 -43 -129 -53 -148 -37 -341
51 -438 202 -15 23 -31 44 -37 48 -5 4 -6 8 -1 8 5 0 3 6 -3 14 -15 18 -50
121 -58 171 -8 49 -8 177 -1 225 11 66 49 161 83 208 27 38 102 112 113 112 6
0 12 4 12 9 0 13 99 51 144 55 20 2 40 7 43 10 3 3 9 4 12 1 4 -2 25 -6 47 -9z
m-2973 -2551 c42 -20 127 -101 127 -121 0 -7 4 -14 10 -16 11 -3 50 -107 56
-148 28 -189 -35 -343 -161 -396 -175 -73 -378 130 -376 375 0 94 3 109 42
197 20 45 75 98 123 120 40 19 130 13 179 -11z"/>
<path d="M5028 8615 c-2 -82 -3 -92 -12 -126 -4 -14 -8 -32 -10 -40 -11 -63
-71 -189 -177 -374 -41 -71 -84 -150 -96 -175 -63 -137 -64 -142 -69 -256 -4
-94 10 -149 61 -240 40 -71 169 -208 261 -277 71 -53 276 -188 280 -184 2 2
-15 40 -38 86 -22 46 -41 89 -43 95 -2 10 -6 22 -22 64 -8 21 -7 17 -22 72
-30 103 -39 189 -35 310 3 106 5 117 24 201 6 26 13 55 15 65 2 11 4 19 5 19
1 0 3 5 14 50 2 11 12 47 20 80 39 147 42 302 6 413 -13 40 -27 75 -31 78 -5
3 -9 12 -9 20 0 8 -5 20 -10 27 -6 7 -29 41 -51 77 -58 92 -59 93 -61 15z"/>
<path d="M3822 8573 c38 -40 108 -145 108 -163 0 -5 4 -10 9 -10 5 0 11 -8 14
-17 3 -10 18 -49 32 -88 15 -38 29 -81 31 -95 2 -14 7 -38 11 -55 3 -16 8 -41
11 -55 4 -24 6 -399 2 -510 -3 -87 8 -211 24 -261 44 -142 120 -214 309 -292
20 -9 37 -14 37 -12 0 3 12 0 26 -6 15 -5 43 -12 63 -15 34 -5 58 -9 106 -19
33 -7 155 -15 155 -10 0 2 -19 17 -42 33 -138 95 -225 234 -257 408 -13 71
-20 156 -26 304 -7 202 -25 331 -56 415 -52 141 -155 264 -291 352 -86 55
-256 133 -290 133 -7 0 4 -17 24 -37z"/>
<path d="M8407 5793 c-3 -5 -11 -28 -18 -53 -7 -25 -14 -49 -15 -55 -27 -96
-57 -205 -60 -225 -3 -14 -9 -42 -15 -63 -6 -21 -12 -50 -14 -65 -2 -15 -6
-43 -10 -62 -11 -56 -16 -129 -17 -215 -2 -175 29 -276 143 -478 124 -216 185
-352 229 -508 22 -76 25 -88 37 -149 9 -47 10 -50 13 -52 1 -2 4 -16 6 -33 2
-16 8 -57 14 -90 15 -91 24 -176 37 -330 10 -129 10 -750 -1 -925 -19 -312
-32 -471 -52 -655 -8 -71 -13 -124 -18 -186 -2 -25 -7 -64 -11 -87 -3 -22 -8
-58 -10 -79 -2 -21 -6 -65 -10 -98 -4 -33 -9 -71 -10 -85 -2 -14 -6 -47 -10
-75 -10 -63 -13 -90 -19 -140 -8 -64 -16 -118 -20 -140 -2 -11 -6 -42 -10 -70
l-6 -50 35 70 c29 59 73 156 80 175 1 3 7 19 14 35 90 222 178 459 187 503 3
13 11 40 18 60 30 79 119 395 142 506 3 11 9 41 14 66 5 25 12 56 15 70 3 14
8 34 9 45 3 18 20 109 30 161 2 12 7 45 11 74 4 29 9 62 11 74 2 12 6 41 9 66
3 25 8 63 11 85 10 81 14 122 21 220 8 130 9 606 0 715 -12 153 -16 204 -22
240 -3 19 -7 52 -10 73 -7 55 -14 99 -19 122 -2 11 -7 40 -11 65 -4 25 -10 56
-13 70 -2 14 -5 33 -6 43 0 9 -4 17 -9 17 -4 0 -6 4 -3 8 8 14 -98 411 -134
497 -4 11 -29 74 -55 140 -42 106 -151 342 -165 355 -3 3 -13 21 -24 40 -56
105 -160 253 -228 325 -21 22 -38 43 -38 48 0 4 -4 7 -9 7 -6 0 -12 -3 -14 -7z"/>
</g>
</svg>
